<svg width="16" height="16" viewBox="0 0 16 16" fill="none" xmlns="http://www.w3.org/2000/svg">
<g clip-path="url(#clip0_810_9715)">
<path d="M0.00102139 1.94489C0.00102139 1.58843 0.0714769 1.25077 0.25823 0.94447C0.657313 0.289421 1.25087 -0.000962332 2.01043 2.39551e-06C5.18379 0.00434367 8.35667 0.00193185 11.53 0.00241421C11.6082 0.00241421 11.6864 0.00675549 11.7646 0.0110968C12.6308 0.0588508 13.3681 0.719689 13.4922 1.58071C13.5332 1.86482 13.5264 2.15617 13.5428 2.47356C13.7006 2.47356 13.8555 2.47308 14.0109 2.47356C15.1937 2.47646 15.9967 3.27187 15.9976 4.45511C16.0005 7.64546 16.001 10.8358 15.9976 14.0262C15.9962 15.1838 15.2091 15.9908 14.0548 15.9937C10.8458 16.0024 7.6362 16.0019 4.42713 15.9942C3.26414 15.9913 2.47563 15.1781 2.4737 14.0151C2.47321 13.8549 2.47321 13.6953 2.47321 13.5255C2.28646 13.5255 2.1248 13.526 1.96314 13.525C0.823316 13.5192 0.0068121 12.7267 0.0043993 11.5878C-0.00332069 8.37383 0.0019865 5.15936 0.00102139 1.94489ZM3.62945 13.9292C3.62945 14.5876 3.88521 14.8409 4.55067 14.8414H9.22819C10.8173 14.8414 12.4064 14.8399 13.996 14.8428C14.2464 14.8428 14.4732 14.7975 14.6513 14.604C14.8038 14.4376 14.8443 14.2384 14.8438 14.0204C14.8414 12.9548 14.8429 11.8898 14.8429 10.8247C14.8429 8.71824 14.8429 6.61176 14.8424 4.50528C14.8424 3.89412 14.5755 3.62931 13.9607 3.62931H4.49758C3.90547 3.62931 3.62945 3.90763 3.62945 4.5048V13.9292ZM1.15822 11.5449C1.15822 12.0055 1.4024 12.3215 1.80486 12.3606C2.01815 12.3813 2.23531 12.3644 2.47321 12.3644V12.1474C2.47321 9.57154 2.47225 6.9962 2.47418 4.42038C2.47514 3.48749 3.04554 2.74176 3.92526 2.53193C4.11008 2.48803 4.30649 2.47597 4.49758 2.47597C7.04361 2.47212 9.58963 2.47356 12.1357 2.47356H12.3687C12.3687 2.24251 12.3789 2.03799 12.3663 1.83491C12.3446 1.47459 12.0638 1.19675 11.7038 1.16491C11.6319 1.15864 11.5595 1.15767 11.4876 1.15767C8.3393 1.15767 5.19103 1.15623 2.04325 1.16105C1.87917 1.16153 1.70304 1.18565 1.55392 1.24836C1.32422 1.34531 1.19731 1.54501 1.1669 1.79681C1.15967 1.85662 1.15773 1.91692 1.15773 1.97673C1.15773 5.16612 1.15725 8.3555 1.15822 11.5449Z" fill="#33FF00"/>
</g>
<defs>
<clipPath id="clip0_810_9715">
<rect width="16" height="16" fill="white"/>
</clipPath>
</defs>
</svg>
