<svg width="12" height="12" viewBox="0 0 12 12" fill="none" xmlns="http://www.w3.org/2000/svg">
<g clip-path="url(#clip0_810_9758)">
<path d="M5.99773 4.10135e-06C2.67911 0.00384276 0.00139586 2.68218 3.06495e-07 5.99878C-0.00104636 9.31329 2.67876 11.9951 5.99599 12C9.30868 12.0045 11.9948 9.32341 12 6.00716C12.0052 2.68742 9.31601 -0.00383456 5.99773 4.10135e-06ZM6.00192 11.1621C3.14732 11.1646 0.832447 8.84846 0.83768 5.99529C0.843262 3.13968 3.14348 0.840671 5.99773 0.83753C8.85338 0.834738 11.1672 3.14945 11.1623 6.00402C11.1574 8.85928 8.85617 11.1593 6.00192 11.1621Z" fill="#33FF00"/>
<path d="M6.41849 7.12514C6.41849 7.67895 6.41989 8.23277 6.41745 8.78658C6.41675 8.96979 6.32743 9.10379 6.15892 9.17568C5.9946 9.24547 5.82992 9.2214 5.71618 9.08774C5.64571 9.00503 5.58744 8.88115 5.58675 8.77506C5.57733 7.66744 5.58012 6.55981 5.58186 5.45218C5.58221 5.20406 5.76119 5.02609 5.99843 5.02539C6.23498 5.02504 6.4164 5.20371 6.41745 5.45044C6.42024 6.00879 6.41849 6.56679 6.41849 7.12514Z" fill="#33FF00"/>
<path d="M6.55485 3.76643C6.55485 4.07596 6.30748 4.32443 5.99942 4.32443C5.69135 4.32443 5.44434 4.07562 5.44434 3.76608C5.44434 3.45654 5.69274 3.20668 5.99977 3.20703C6.30748 3.20738 6.55485 3.45654 6.55485 3.76643Z" fill="#33FF00"/>
</g>
<defs>
<clipPath id="clip0_810_9758">
<rect width="12" height="12" fill="white"/>
</clipPath>
</defs>
</svg>
