<svg width="12" height="20" viewBox="0 0 12 20" fill="none" xmlns="http://www.w3.org/2000/svg">
<g clip-path="url(#clip0_270_6447)">
<path d="M8.25081 4.8211C8.30714 4.81083 8.3654 4.80741 8.42269 4.80692C8.99321 4.80252 9.56325 4.80057 10.1338 4.79568C10.8083 4.78981 11.1973 4.39524 11.1987 3.71561C11.2002 2.82428 11.2007 1.93295 11.1973 1.04161C11.1973 0.925734 11.1848 0.806922 11.1593 0.693977C11.0745 0.317984 10.6773 -0.0096041 10.2951 -0.000803221C9.33456 0.0221769 8.37262 0.0045751 7.41116 0.00750872C6.64614 0.0104423 5.92926 0.21873 5.26293 0.587389C3.8932 1.34524 3.12625 2.55243 2.90526 4.08965C2.79212 4.87586 2.82967 5.68408 2.8003 6.48251C2.79741 6.56514 2.79982 6.64777 2.79982 6.75143H2.56776C2.04876 6.75143 1.52927 6.74654 1.01027 6.75289C0.39064 6.75974 0.00596061 7.15138 0.0030719 7.78113C-0.00126116 8.76976 -0.000779708 9.75888 0.0030719 10.7475C0.00596061 11.3934 0.399788 11.789 1.03867 11.7934C1.55142 11.7963 2.06416 11.7938 2.57691 11.7938H2.8003V12.0681C2.8003 14.3124 2.8003 16.5571 2.80078 18.8013C2.80078 18.8795 2.79886 18.9578 2.80367 19.0355C2.84026 19.6193 3.22543 19.9943 3.80461 19.9963C4.8301 20.0007 5.85511 19.9997 6.8806 19.9963C7.29658 19.9948 7.61674 19.8085 7.78044 19.4174C7.84976 19.2506 7.86902 19.0516 7.8695 18.8668C7.87528 16.5962 7.87335 14.3261 7.87335 12.0554V11.7938H8.10878C8.7626 11.7938 9.41641 11.7987 10.0702 11.7924C10.6812 11.7865 11.0817 11.3787 11.0846 10.7597C11.089 9.77111 11.0962 8.78199 11.0779 7.79335C11.074 7.58409 11.0023 7.35527 10.8983 7.17289C10.711 6.84579 10.3875 6.74752 10.025 6.74996C9.32012 6.75485 8.61575 6.75143 7.89021 6.75143C7.89021 6.22826 7.88154 5.72955 7.89309 5.23083C7.90032 4.9316 7.96531 4.87293 8.25129 4.8211H8.25081ZM6.72365 7.29219C6.73039 7.69459 7.00963 7.92243 7.43138 7.92439C8.18774 7.92781 8.9441 7.92537 9.70046 7.92537H9.91856V10.6204H9.71298C8.96962 10.6204 8.22578 10.6199 7.48242 10.6204C6.9456 10.6209 6.71354 10.858 6.71354 11.409C6.71258 13.7907 6.71306 16.1718 6.71306 18.5534V18.8135H3.95771V11.4863C3.95771 11.4276 3.95916 11.369 3.95723 11.3108C3.94038 10.8732 3.69388 10.6238 3.26587 10.6214C2.64383 10.6179 2.02228 10.6204 1.40072 10.6204H1.16722V7.92537H1.60967C2.12868 7.92537 2.64768 7.92586 3.16717 7.92537C3.7218 7.92488 3.95579 7.68285 3.95819 7.11324C3.96108 6.35197 3.94086 5.58971 3.97649 4.8299C4.02656 3.74691 4.37417 2.77979 5.20082 2.04296C5.85415 1.46112 6.63891 1.19514 7.49108 1.16042C8.31677 1.12718 9.14439 1.14722 9.97104 1.14478C9.98885 1.14478 10.0062 1.15553 10.0331 1.16385V3.62076C9.93204 3.62076 9.83719 3.61831 9.74331 3.62076C9.18049 3.63689 8.61286 3.61391 8.05583 3.6809C7.25517 3.77722 6.80838 4.24856 6.75109 5.0685C6.69958 5.8068 6.71065 6.55047 6.72365 7.2917V7.29219Z" fill="#33FF00"/>
</g>
<defs>
<clipPath id="clip0_270_6447">
<rect width="11.2" height="20" fill="white"/>
</clipPath>
</defs>
</svg>
