<svg width="30" height="24" viewBox="0 0 30 24" fill="none" xmlns="http://www.w3.org/2000/svg">
<g clip-path="url(#clip0_1483_2922)">
<path d="M28.3017 17.9021C28.1377 15.4622 27.7835 13.0523 27.1383 10.689C26.5971 8.70675 25.8891 6.79094 24.8902 4.98713C24.693 4.6313 24.4347 4.35317 24.0928 4.14632C23.6657 3.88802 23.2418 3.62168 22.8013 3.3875C21.4177 2.65172 19.96 2.14423 18.3867 2.00329C18.1921 1.9856 18.1 2.04348 18.0196 2.2155C17.7747 2.7396 17.5041 3.25245 17.2575 3.77602C17.1745 3.95286 17.0861 4.04075 16.8738 3.99573C16.6654 3.95125 16.4484 3.94643 16.2345 3.93089C15.0116 3.843 13.7893 3.84086 12.5701 3.98341C12.2947 4.01556 12.136 3.95393 12.0171 3.68331C11.8091 3.21119 11.5353 2.76801 11.3279 2.29589C11.2111 2.03062 11.0621 1.97864 10.7926 2.01669C8.88103 2.28785 7.11259 2.93145 5.48187 3.96626C4.94919 4.30441 4.50708 4.69775 4.24771 5.28777C3.93261 6.00479 3.5532 6.69502 3.25953 7.42008C1.89354 10.7882 1.2419 14.3138 1.00075 17.9236C0.991636 18.0522 1.0672 18.2161 1.15669 18.3169C2.36566 19.684 3.86562 20.625 5.57619 21.2327C6.67262 21.6223 7.80442 21.8715 8.97052 21.954C9.20685 21.9711 9.36387 21.9117 9.50695 21.7085C9.9019 21.1475 10.3456 20.6196 10.725 20.0489C10.9892 19.6518 11.2636 19.4058 11.7582 19.6229C11.7818 19.633 11.8113 19.6293 11.8375 19.6325C13.8782 19.9042 15.9151 19.9165 17.9467 19.5511C18.1101 19.5216 18.2071 19.5612 18.3052 19.6947C18.7972 20.3619 19.3036 21.0189 19.7934 21.6877C19.9316 21.8768 20.072 22.0103 20.3309 21.9256C20.332 21.9508 20.333 21.9754 20.3346 22.0001C21.1122 21.8457 21.8973 21.7209 22.6663 21.5306C24.8158 20.9985 26.6812 19.9685 28.1619 18.3008C28.2497 18.2022 28.3108 18.0329 28.3017 17.9021ZM27.4566 18.2638C26.3843 19.3351 25.1212 20.1003 23.7118 20.6389C22.7397 21.0103 21.7317 21.2332 20.698 21.3479C20.415 21.3795 20.2049 21.3533 20.0233 21.0746C19.7082 20.5907 19.3352 20.1437 18.9869 19.6807C18.9236 19.5971 18.8641 19.5109 18.7795 19.3935C20.9 18.9064 22.8105 18.0473 24.5467 16.7414C24.4358 16.5919 24.3372 16.4595 24.2145 16.2944C21.3737 18.4251 18.1353 19.2692 14.6461 19.2719C11.1612 19.2751 7.93572 18.4139 5.09442 16.296C4.97652 16.4509 4.87578 16.5838 4.75949 16.7371C6.48345 18.0441 8.39551 18.8978 10.5182 19.3903C10.4501 19.4916 10.4014 19.5703 10.3456 19.6448C9.95656 20.1663 9.57233 20.692 9.17095 21.2037C9.10289 21.2906 8.9523 21.3725 8.84888 21.3629C6.1019 21.1062 3.66734 20.1545 1.73545 18.1208C1.64006 18.0205 1.57201 17.84 1.58165 17.7033C1.85656 13.7924 2.63682 10.0009 4.30237 6.42332C4.34739 6.32632 4.40205 6.23308 4.43742 6.13287C4.81629 5.05787 5.64478 4.4432 6.61421 3.94054C7.8623 3.29318 9.16934 2.84839 10.5546 2.61849C10.7636 2.58366 10.8783 2.62064 10.971 2.8232C11.1623 3.24334 11.3831 3.65062 11.6194 4.11792C9.46461 4.44106 7.53648 5.30384 5.61745 6.27327C5.69462 6.43457 5.76589 6.58355 5.85056 6.7604C11.7111 3.64687 17.5673 3.60185 23.4417 6.762C23.5264 6.60124 23.6025 6.45601 23.7172 6.23897C22.7317 5.80008 21.7858 5.32099 20.7982 4.95551C19.8089 4.5895 18.7779 4.33656 17.75 4.02949C17.9601 3.60614 18.175 3.13724 18.4311 2.69191C18.4756 2.61474 18.697 2.60349 18.8304 2.61796C19.7612 2.72031 20.654 2.98719 21.4948 3.38267C22.2917 3.75726 23.0591 4.1983 23.8179 4.64684C24.0425 4.77921 24.2386 5.0091 24.3715 5.23793C25.4385 7.07818 26.1367 9.06634 26.6753 11.1134C27.2294 13.2206 27.5509 15.3657 27.7273 17.5356C27.7519 17.84 27.6704 18.05 27.4566 18.2638Z" fill="black" stroke="#33FF00" stroke-width="0.75" stroke-linejoin="round"/>
<path d="M20.2383 11.2056C19.3273 10.204 17.7067 10.2539 16.8761 11.3214C16.0749 12.3508 15.9742 13.4633 16.5669 14.6208C17.3171 16.086 19.2104 16.3357 20.2887 15.1262C20.7731 14.5833 20.9998 13.9445 21.0025 13.3288C21.0169 12.4499 20.7586 11.7774 20.2383 11.2056ZM19.8064 14.8084C19.0427 15.5469 17.9768 15.4933 17.2855 14.6809C16.5749 13.8459 16.5819 12.5073 17.3 11.6777C18.1263 10.7238 19.5834 10.898 20.1568 12.0427C20.3321 12.3921 20.4028 12.7934 20.4639 12.989C20.4323 13.8079 20.2645 14.3652 19.8064 14.8084Z" fill="black" stroke="#33FF00" stroke-width="0.75"/>
<path d="M12.3591 11.2373C11.4797 10.2325 9.90209 10.2411 9.02965 11.2481C8.07791 12.3461 8.04522 13.9125 8.94981 15.0459C9.73703 16.0325 11.1507 16.1842 12.1169 15.3744C12.7948 14.8064 13.0944 14.0593 13.1024 13.1869C13.1105 12.4399 12.8457 11.7936 12.3591 11.2373ZM12.0055 14.7024C11.2214 15.6311 9.81634 15.5475 9.15023 14.3439C8.96213 14.0041 8.90426 13.5931 8.78636 13.2148C8.80887 13.2083 8.83138 13.2019 8.85335 13.1955C8.86139 12.4795 9.10414 11.8675 9.6754 11.4153C10.3962 10.8451 11.3886 10.9619 12.0033 11.6762C12.7305 12.5208 12.7262 13.8487 12.0055 14.7024Z" fill="black" stroke="#33FF00" stroke-width="0.75"/>
</g>
<defs>
<clipPath id="clip0_1483_2922">
<rect width="29" height="22" fill="white" transform="translate(0 1)"/>
</clipPath>
</defs>
</svg>
