<svg width="30" height="24" viewBox="0 0 30 24" fill="none" xmlns="http://www.w3.org/2000/svg">
<g clip-path="url(#clip0_1483_2895)">
<path d="M17.2508 6.82208C17.3071 6.81181 17.3654 6.80839 17.4227 6.8079C17.9932 6.8035 18.5632 6.80154 19.1338 6.79665C19.8083 6.79079 20.1973 6.39621 20.1987 5.71659C20.2002 4.82526 20.2007 3.93392 20.1973 3.04259C20.1973 2.92671 20.1848 2.8079 20.1593 2.69495C20.0745 2.31896 19.6773 1.99137 19.2951 2.00017C18.3346 2.02315 17.3726 2.00555 16.4112 2.00849C15.6461 2.01142 14.9293 2.21971 14.2629 2.58837C12.8932 3.34622 12.1262 4.55341 11.9053 6.09063C11.7921 6.87684 11.8297 7.68505 11.8003 8.48349C11.7974 8.56612 11.7998 8.64875 11.7998 8.7524H11.5678C11.0488 8.7524 10.5293 8.74752 10.0103 8.75387C9.39064 8.76072 9.00596 9.15236 9.00307 9.78211C8.99874 10.7707 8.99922 11.7599 9.00307 12.7485C9.00596 13.3944 9.39979 13.7899 10.0387 13.7943C10.5514 13.7973 11.0642 13.7948 11.5769 13.7948H11.8003V14.0691C11.8003 16.3133 11.8003 18.5581 11.8008 20.8023C11.8008 20.8805 11.7989 20.9587 11.8037 21.0365C11.8403 21.6203 12.2254 21.9953 12.8046 21.9972C13.8301 22.0016 14.8551 22.0007 15.8806 21.9972C16.2966 21.9958 16.6167 21.8095 16.7804 21.4183C16.8498 21.2516 16.869 21.0526 16.8695 20.8678C16.8753 18.5972 16.8734 16.327 16.8734 14.0564V13.7948H17.1088C17.7626 13.7948 18.4164 13.7997 19.0702 13.7934C19.6812 13.7875 20.0817 13.3797 20.0846 12.7607C20.089 11.7721 20.0962 10.783 20.0779 9.79433C20.074 9.58507 20.0023 9.35624 19.8983 9.17387C19.711 8.84677 19.3875 8.74849 19.025 8.75094C18.3201 8.75583 17.6158 8.7524 16.8902 8.7524C16.8902 8.22924 16.8815 7.73052 16.8931 7.23181C16.9003 6.93258 16.9653 6.87391 17.2513 6.82208H17.2508ZM15.7236 9.29317C15.7304 9.69557 16.0096 9.92341 16.4314 9.92537C17.1877 9.92879 17.9441 9.92634 18.7005 9.92634H18.9186V12.6214H18.713C17.9696 12.6214 17.2258 12.6209 16.4824 12.6214C15.9456 12.6219 15.7135 12.859 15.7135 13.41C15.7126 15.7916 15.7131 18.1728 15.7131 20.5544V20.8145H12.9577V13.4873C12.9577 13.4286 12.9592 13.3699 12.9572 13.3118C12.9404 12.8742 12.6939 12.6248 12.2659 12.6223C11.6438 12.6189 11.0223 12.6214 10.4007 12.6214H10.1672V9.92634H10.6097C11.1287 9.92634 11.6477 9.92683 12.1672 9.92634C12.7218 9.92586 12.9558 9.68383 12.9582 9.11422C12.9611 8.35294 12.9409 7.59069 12.9765 6.83088C13.0266 5.74788 13.3742 4.78076 14.2008 4.04393C14.8541 3.4621 15.6389 3.19612 16.4911 3.1614C17.3168 3.12815 18.1444 3.1482 18.971 3.14575C18.9889 3.14575 19.0062 3.15651 19.0331 3.16482V5.62174C18.932 5.62174 18.8372 5.61929 18.7433 5.62174C18.1805 5.63787 17.6129 5.61489 17.0558 5.68188C16.2552 5.7782 15.8084 6.24953 15.7511 7.06948C15.6996 7.80778 15.7106 8.55145 15.7236 9.29268V9.29317Z" fill="#33FF00"/>
</g>
<defs>
<clipPath id="clip0_1483_2895">
<rect width="11.2" height="20" fill="white" transform="translate(9 2)"/>
</clipPath>
</defs>
</svg>
