<svg width="30" height="24" viewBox="0 0 30 24" fill="none" xmlns="http://www.w3.org/2000/svg">
<g clip-path="url(#clip0_1483_2917)">
<path d="M26.043 3.14808C25.89 2.23947 25.0401 1.78799 24.1033 2.09726C17.4982 4.27395 10.8947 6.45573 4.28615 8.62171C3.64618 8.83108 3.16931 9.15163 3 9.83111V10.2815C3.14447 10.8927 3.55419 11.2307 4.11798 11.4689C5.63721 12.1094 7.14176 12.7855 8.65422 13.4424C8.78967 13.5011 8.86585 13.575 8.89746 13.7246C9.25808 15.4261 9.62378 17.1265 9.9906 18.8268C10.1215 19.4347 10.2463 20.0447 10.3975 20.648C10.4951 21.0408 10.7931 21.2547 11.1379 21.1813C11.3129 21.1441 11.4861 21.043 11.6329 20.9341C12.8332 20.0453 14.0297 19.1508 15.2204 18.2495C15.3581 18.1451 15.4355 18.1592 15.5607 18.2619C16.922 19.3839 18.286 20.503 19.6551 21.6153C20.5863 22.3715 21.7381 21.968 22.0124 20.8026C23.3426 15.1399 24.6761 9.47782 26.0018 3.81401C26.052 3.59956 26.0785 3.36253 26.043 3.14808ZM11.2339 17.4363C11.2141 17.5051 11.1865 17.5723 11.1227 17.64C10.8196 16.2331 10.516 14.8262 10.2079 13.3995C12.3039 12.2358 14.3965 11.0738 16.4891 9.91181C16.4987 9.92705 16.5083 9.94285 16.5184 9.95809C16.0263 10.4733 15.5342 10.9886 15.0421 11.5033C14.1239 12.4632 13.1989 13.4176 12.2926 14.3882C12.1312 14.5615 12.0025 14.7912 11.932 15.0175C11.6825 15.8189 11.4647 16.6293 11.2339 17.4363ZM12.2599 18.7783C12.5172 17.877 12.757 17.039 13.0037 16.1755C13.4518 16.5424 13.8739 16.8872 14.309 17.2433C13.6352 17.7478 12.9766 18.2416 12.2599 18.7783ZM20.6472 20.6779C18.2961 18.754 15.971 16.8516 13.634 14.939C13.7012 14.8674 13.7565 14.807 13.8129 14.7477C16.0596 12.3983 18.3069 10.0489 20.553 7.69843C20.6405 7.60644 20.7268 7.5105 20.7962 7.4044C20.9452 7.17753 20.9311 6.88238 20.7748 6.66454C20.6162 6.44332 20.3222 6.33496 20.0558 6.41397C19.9424 6.44783 19.8334 6.50314 19.729 6.56126C16.3587 8.43208 12.989 10.3035 9.62152 12.1799C9.46914 12.2646 9.34837 12.2781 9.18584 12.2059C7.65024 11.527 6.1107 10.8571 4.57228 10.1838C4.50456 10.1539 4.43966 10.1184 4.30591 10.0518C11.1362 7.80001 17.9084 5.56744 24.7303 3.31851C23.3646 9.12511 22.0113 14.8781 20.6472 20.6779Z" fill="#33FF00"/>
</g>
<defs>
<clipPath id="clip0_1483_2917">
<rect width="23.0593" height="20" fill="white" transform="translate(3 2)"/>
</clipPath>
</defs>
</svg>
