<svg width="30" height="24" viewBox="0 0 30 24" fill="none" xmlns="http://www.w3.org/2000/svg">
<g clip-path="url(#clip0_1483_2911)">
<path d="M26.9032 4.31969C26.7256 4.2226 26.5657 4.274 26.3938 4.35967C26.1362 4.49104 25.8729 4.60013 25.6096 4.71436C25.6039 4.69151 25.5925 4.67438 25.581 4.65153C25.6496 4.56586 25.7187 4.48533 25.7872 4.39394C26.1191 3.93588 26.4395 3.46696 26.4509 2.86611C26.4623 2.49429 26.1191 2.28811 25.7872 2.45431C25.7301 2.47716 25.6787 2.51714 25.6267 2.55141C24.9116 3.03803 24.1217 3.32418 23.2576 3.40414C23.0914 3.42127 22.9657 3.387 22.8344 3.27277C22.1079 2.62052 21.2608 2.23099 20.299 2.06536C17.758 1.64214 15.1832 3.31847 14.5481 5.81382C14.3705 6.50606 14.3191 7.20458 14.4053 7.93679C14.3196 7.93679 14.2448 7.93679 14.1649 7.93108C13.3236 7.8911 12.4994 7.7249 11.6986 7.45017C10.1308 6.91786 8.72293 6.07655 7.45841 5.00679C6.78331 4.44021 6.16532 3.79937 5.52963 3.18139C5.24919 2.91238 4.91164 2.90095 4.73401 3.20995C3.97267 4.5373 3.77848 5.93948 4.30508 7.39877C4.49413 7.93679 4.78028 8.44569 5.01445 8.95516C4.96876 8.9266 4.8888 8.88091 4.80826 8.83521C4.40218 8.59476 4.04692 8.80095 4.04692 9.27557C4.04692 9.47033 4.06405 9.67024 4.08119 9.865C4.20684 11.3186 4.82483 12.5089 5.96941 13.413C6.02653 13.4587 6.07793 13.5101 6.14704 13.5672C5.73524 13.6871 5.62044 13.899 5.74095 14.2709C6.30182 15.9592 7.42357 17.0689 9.13416 17.5784C9.19699 17.5955 9.25411 17.6241 9.34606 17.6584C8.61384 18.2192 7.81252 18.5511 6.95408 18.7458C5.88945 18.9863 4.80826 19.0377 3.7265 18.8949C3.4118 18.8549 3.14279 18.8778 3 19.2153V19.4501C3.24045 19.6562 3.46377 19.8904 3.7265 20.068C5.15153 21.0236 6.74218 21.5502 8.43051 21.8135C10.044 22.0654 11.6581 22.0654 13.2602 21.7906C14.5704 21.573 15.8069 21.1212 17.0029 20.549C19.853 19.1868 21.9645 17.0809 23.2919 14.2143C24.2245 12.1999 24.6883 10.0712 24.7283 7.85112C24.7283 7.69063 24.7797 7.5764 24.8945 7.46217C25.3754 6.98697 25.8615 6.51805 26.3081 6.0143C26.6057 5.67675 26.8576 5.28779 27.0923 4.90398C27.2237 4.68637 27.1151 4.42878 26.9032 4.32026V4.31969ZM24.7289 6.3627C24.517 6.56889 24.3057 6.78021 24.0766 6.97498C23.8761 7.1526 23.8076 7.35822 23.8133 7.62152C23.8533 9.97352 23.361 12.205 22.2912 14.3057C21.0895 16.6577 19.2755 18.3974 16.9235 19.582C15.739 20.1828 14.4916 20.6638 13.1808 20.8751C10.7488 21.2583 8.35683 21.1212 6.03338 20.24C5.79293 20.1486 5.5639 20.0338 5.27204 19.9081C5.70097 19.8624 6.06765 19.8339 6.43376 19.7768C8.01299 19.542 9.4323 18.9697 10.5598 17.7966C10.7317 17.6189 10.9087 17.4419 10.7888 17.1615C10.6803 16.8924 10.4455 16.8867 10.2051 16.8639C8.76292 16.7091 7.6526 16.0454 6.94323 14.7581C6.92038 14.7124 6.89754 14.6667 6.89182 14.6495C7.31505 14.581 7.73313 14.5239 8.13922 14.4319C8.42537 14.3634 8.5396 14.18 8.52817 13.9453C8.51104 13.6763 8.33341 13.5735 8.10495 13.5044C6.62281 13.052 5.57532 12.1479 5.14067 10.6201C5.08356 10.431 5.055 10.2311 5.02073 10.0706C5.44967 10.1277 5.85633 10.202 6.26242 10.2425C6.49716 10.2654 6.70277 10.1854 6.79473 9.93925C6.88611 9.69308 6.76617 9.52174 6.59997 9.35553C5.74724 8.51423 5.13496 7.53585 4.96305 6.32272C4.86595 5.61906 4.96305 4.93197 5.31202 4.19975C5.42625 4.34882 5.52392 4.50874 5.65528 4.64068C6.93123 5.89379 8.35054 6.9527 9.96462 7.73632C11.5039 8.48624 13.1237 8.90375 14.8514 8.84093C15.286 8.8295 15.4808 8.60618 15.3894 8.17154C15.2638 7.5764 15.2523 6.98697 15.3494 6.39183C15.6641 4.54358 17.3239 3.05002 19.1893 2.93522C20.4195 2.86097 21.4785 3.2385 22.3712 4.07981C22.5602 4.26315 22.7658 4.36596 23.0234 4.32598C23.5729 4.22888 24.1166 4.13121 24.666 4.03412C24.7517 4.01698 24.838 3.98271 24.9236 3.95416C24.9408 3.97129 24.9522 3.98843 24.9636 4.00556C24.6432 4.30884 24.3342 4.61212 24.0024 4.89827C23.6534 5.20726 23.5557 5.38489 23.6705 5.61906C23.8367 5.95661 24.14 5.88807 24.4142 5.85381C24.706 5.82525 24.9979 5.76813 25.3183 5.76242C25.1178 5.9629 24.9293 6.16851 24.7289 6.36327V6.3627Z" fill="#33FF00"/>
</g>
<defs>
<clipPath id="clip0_1483_2911">
<rect width="24.1494" height="20" fill="white" transform="translate(3 2)"/>
</clipPath>
</defs>
</svg>
