<svg width="30" height="24" viewBox="0 0 30 24" fill="none" xmlns="http://www.w3.org/2000/svg">
<g clip-path="url(#clip0_1483_2900)">
<path d="M26.1104 5.43348C25.9207 3.7246 24.7575 2.42497 23.0784 2.10471C21.4825 1.80792 19.999 2.14627 18.6696 3.06599C17.1387 4.12798 16.237 5.64715 15.7085 7.39759C15.5422 7.93739 15.8273 8.19849 16.3788 8.0919C16.8595 7.99118 17.3577 7.92566 17.8506 7.90219C18.2007 7.89045 18.5449 8.00927 18.6989 8.38282C18.8353 8.70895 18.8534 9.05317 18.7165 9.37393C18.3425 10.2281 17.9689 11.0828 17.5533 11.9194C17.2208 12.5839 16.8472 13.2366 16.3074 13.7706C15.6963 14.3817 15.5955 14.3578 15.263 13.6161C15.0019 13.0107 14.8 12.3761 14.622 11.7409C14.1414 9.99049 13.892 8.20436 13.6251 6.41871C13.4769 5.42761 13.2036 4.47856 12.6521 3.62388C12.0233 2.645 11.0087 2.18196 9.86309 2.36581C9.11548 2.48462 8.47447 2.85231 7.85742 3.2557C6.12604 4.40717 4.62497 5.84273 3.17132 7.31447C2.94592 7.53988 2.94592 7.77115 3.15372 8.02638C3.44464 8.38234 3.74095 8.72656 4.03774 9.08251C4.41765 9.52746 4.61323 9.52746 5.04058 9.12994C5.29581 8.8928 5.57451 8.66104 5.87717 8.48893C6.29229 8.25179 6.55339 8.37011 6.76119 8.80332C7.63934 10.6486 8.2388 12.5888 8.7429 14.5587C9.16438 16.1786 9.61519 17.7804 10.3804 19.282C10.7896 20.0829 11.2644 20.8427 11.9705 21.4241C12.457 21.8216 12.985 22.0827 13.6495 21.9761C14.8602 21.7742 15.928 21.2583 16.925 20.5816C18.4676 19.5314 19.7374 18.1902 20.9065 16.7546C22.4257 14.8912 23.7072 12.8738 24.8763 10.7797C25.3868 9.86581 25.7129 8.89867 25.9324 7.88996C26.0331 7.44502 26.0806 6.98785 26.152 6.53117V5.62906C26.1402 5.56403 26.1163 5.49851 26.1104 5.43348ZM24.9535 7.97895C24.6924 9.20719 24.0871 10.2814 23.4583 11.3434C22.2834 13.331 20.996 15.2418 19.4651 16.9742C18.3317 18.2616 17.1035 19.4482 15.5843 20.2912C14.9257 20.653 14.2314 20.9141 13.4896 21.0388C13.2168 21.0862 12.985 20.9855 12.7718 20.8369C12.214 20.475 11.8345 19.947 11.5079 19.3832C10.7305 18.0542 10.2621 16.6006 9.87629 15.123C9.37805 13.1828 8.84998 11.2544 8.06669 9.40326C7.90631 9.01748 7.7342 8.6317 7.55036 8.25228C7.14697 7.43915 6.21552 7.19028 5.39066 7.67091C5.11196 7.83129 4.85086 8.02687 4.55994 8.22881C4.41765 8.0567 4.27488 7.89045 4.12673 7.71247C4.15656 7.67678 4.18002 7.64109 4.20985 7.61175C5.31928 6.51406 6.4468 5.43397 7.7166 4.52061C8.2388 4.1407 8.79669 3.80283 9.37218 3.51191C10.0132 3.17942 10.6894 3.13199 11.3182 3.57107C11.7275 3.85613 11.9768 4.27125 12.1724 4.71619C12.5523 5.56452 12.6887 6.4725 12.8134 7.38048C13.0686 9.26147 13.3713 11.1366 14.006 12.9345C14.1898 13.4684 14.4392 13.9965 14.7296 14.4771C15.2102 15.278 15.8156 15.367 16.5632 14.8096C17.0912 14.4179 17.477 13.8957 17.8212 13.3442C18.5747 12.1693 19.1859 10.9112 19.6308 9.59395C20.0166 8.46057 19.5717 7.03088 17.8447 6.94776C17.5244 6.93016 17.1978 6.94189 16.8419 6.94189C17.0081 6.60354 17.1744 6.24171 17.3699 5.89163C18.0999 4.62182 19.1086 3.66055 20.5325 3.20974C21.3275 2.96037 22.1523 2.84205 22.9772 3.05523C24.2646 3.38136 24.9887 4.22431 25.155 5.54154C25.2679 6.37226 25.1252 7.17316 24.9531 7.98042L24.9535 7.97895Z" fill="#33FF00"/>
</g>
<defs>
<clipPath id="clip0_1483_2900">
<rect width="23.1523" height="20" fill="white" transform="translate(3 2)"/>
</clipPath>
</defs>
</svg>
