<svg width="30" height="24" viewBox="0 0 30 24" fill="none" xmlns="http://www.w3.org/2000/svg">
<g clip-path="url(#clip0_1483_2905)">
<path d="M28.1765 6.75021C27.7662 3.94752 25.5476 2.00694 22.7241 2.00694C17.3206 2.00021 11.9164 1.99292 6.51283 2.01366C5.90072 2.02039 5.26114 2.1112 4.69052 2.3057C2.4024 3.09214 1.01171 5.09494 1.00442 7.50806C0.997692 10.5053 0.997692 13.4963 1.01114 16.4935C1.01114 16.9038 1.03917 17.3281 1.13614 17.7312C1.72751 20.2973 3.85532 21.9946 6.48424 21.9946C11.9086 22.0013 17.3267 22.0013 22.7511 21.9946C25.3379 21.9946 27.4383 20.3326 28.0644 17.8287C28.1272 17.5854 28.1687 17.3416 28.2241 17.1056V6.89651C28.2034 6.84774 28.1821 6.79898 28.1754 6.75021H28.1765ZM27.1053 16.591C27.0913 18.6499 25.7146 20.3393 23.7045 20.785C23.3777 20.8545 23.0369 20.8825 22.7028 20.8825C17.3127 20.8892 11.9164 20.8892 6.51955 20.8825C4.37045 20.8825 2.66697 19.5266 2.21462 17.461C2.15184 17.1897 2.12437 16.8976 2.12437 16.6196C2.11765 13.5456 2.10363 10.4716 2.12437 7.39763C2.1311 5.3668 3.50162 3.67678 5.48368 3.23171C5.8385 3.14819 6.22079 3.12017 6.58962 3.12017C9.26002 3.11344 11.9377 3.12017 14.6154 3.12017C17.2931 3.12017 20.019 3.11344 22.7174 3.12017C24.8592 3.12017 26.5706 4.49012 27.0156 6.5557C27.0784 6.827 27.1059 7.11905 27.1059 7.39707C27.1126 10.4643 27.1199 13.531 27.1059 16.591H27.1053Z" fill="#33FF00"/>
<path d="M19.3941 11.7236C16.9254 10.2701 14.4496 8.82334 11.9737 7.37715C11.4103 7.04307 11 7.27962 11 7.94049V16.6271C11 17.2667 11.417 17.5106 11.9664 17.1972C14.449 15.7437 16.9249 14.2903 19.4081 12.8368C19.9574 12.5167 19.9507 12.0442 19.3941 11.7241V11.7236ZM12.1334 15.806V8.7471C14.1502 9.92928 16.1323 11.098 18.1564 12.2802C16.1323 13.4624 14.1502 14.6311 12.1334 15.806Z" fill="#33FF00"/>
</g>
<defs>
<clipPath id="clip0_1483_2905">
<rect width="27.2253" height="20" fill="white" transform="translate(1 2)"/>
</clipPath>
</defs>
</svg>
