<svg width="24" height="20" viewBox="0 0 24 20" fill="none" xmlns="http://www.w3.org/2000/svg">
<g clip-path="url(#clip0_270_6445)">
<path d="M23.347 3.43348C23.1573 1.7246 21.994 0.424973 20.315 0.104711C18.7191 -0.192082 17.2356 0.146271 15.9061 1.06599C14.3752 2.12798 13.4736 3.64715 12.9451 5.39759C12.7788 5.93739 13.0639 6.19849 13.6154 6.0919C14.096 5.99118 14.5943 5.92566 15.0871 5.90219C15.4372 5.89045 15.7815 6.00927 15.9355 6.38282C16.0719 6.70895 16.09 7.05317 15.9531 7.37393C15.579 8.22812 15.2055 9.0828 14.7899 9.9194C14.4574 10.5839 14.0838 11.2366 13.544 11.7706C12.9328 12.3817 12.8321 12.3578 12.4996 11.6161C12.2385 11.0107 12.0366 10.3761 11.8586 9.74093C11.378 7.99049 11.1286 6.20436 10.8616 4.41871C10.7135 3.42761 10.4402 2.47856 9.88863 1.62388C9.25984 0.645 8.24527 0.181965 7.09966 0.36581C6.35206 0.484625 5.71104 0.852315 5.09399 1.2557C3.36262 2.40717 1.86154 3.84273 0.407894 5.31447C0.182488 5.53988 0.182488 5.77115 0.390292 6.02638C0.681217 6.38234 0.97752 6.72656 1.27431 7.08251C1.65423 7.52746 1.84981 7.52746 2.27715 7.12994C2.53238 6.8928 2.81108 6.66104 3.11374 6.48893C3.52886 6.25179 3.78996 6.37011 3.99776 6.80332C4.87592 8.64862 5.47537 10.5888 5.97948 12.5587C6.40095 14.1786 6.85176 15.7804 7.61697 17.282C8.02622 18.0829 8.50099 18.8427 9.20703 19.4241C9.69354 19.8216 10.2216 20.0827 10.8861 19.9761C12.0967 19.7742 13.1646 19.2583 14.1616 18.5816C15.7042 17.5314 16.974 16.1902 18.1431 14.7546C19.6622 12.8912 20.9438 10.8738 22.1129 8.77966C22.6233 7.86581 22.9495 6.89867 23.169 5.88996C23.2697 5.44502 23.3171 4.98785 23.3885 4.53117V3.62906C23.3768 3.56403 23.3528 3.49851 23.347 3.43348ZM22.1901 5.97895C21.929 7.20719 21.3237 8.28142 20.6949 9.34341C19.52 11.331 18.2326 13.2418 16.7017 14.9742C15.5683 16.2616 14.34 17.4482 12.8209 18.2912C12.1622 18.653 11.4679 18.9141 10.7262 19.0388C10.4534 19.0862 10.2216 18.9855 10.0084 18.8369C9.45053 18.475 9.0711 17.947 8.74449 17.3832C7.96706 16.0542 7.49864 14.6006 7.11286 13.123C6.61462 11.1828 6.08656 9.25443 5.30326 7.40326C5.14288 7.01748 4.97077 6.6317 4.78693 6.25228C4.38354 5.43915 3.4521 5.19028 2.62724 5.67091C2.34854 5.83129 2.08744 6.02687 1.79651 6.22881C1.65423 6.0567 1.51145 5.89045 1.3633 5.71247C1.39313 5.67678 1.4166 5.64109 1.44642 5.61175C2.55585 4.51406 3.68337 3.43397 4.95317 2.52061C5.47537 2.1407 6.03326 1.80283 6.60875 1.51191C7.24977 1.17942 7.92598 1.13199 8.55477 1.57107C8.96402 1.85613 9.21339 2.27125 9.40897 2.71619C9.78888 3.56452 9.9253 4.4725 10.05 5.38048C10.3052 7.26147 10.6079 9.13659 11.2425 10.9345C11.4264 11.4684 11.6757 11.9965 11.9662 12.4771C12.4468 13.278 13.0521 13.367 13.7997 12.8096C14.3278 12.4179 14.7136 11.8957 15.0578 11.3442C15.8113 10.1693 16.4225 8.91118 16.8674 7.59395C17.2532 6.46057 16.8082 5.03088 15.0813 4.94776C14.761 4.93016 14.4344 4.94189 14.0784 4.94189C14.2447 4.60354 14.4109 4.24171 14.6065 3.89163C15.3365 2.62182 16.3452 1.66055 17.769 1.20974C18.5641 0.960373 19.3889 0.842047 20.2138 1.05523C21.5012 1.38136 22.2253 2.22431 22.3916 3.54154C22.5045 4.37226 22.3617 5.17316 22.1896 5.98042L22.1901 5.97895Z" fill="#33FF00"/>
</g>
<defs>
<clipPath id="clip0_270_6445">
<rect width="23.1523" height="20" fill="white" transform="translate(0.236572)"/>
</clipPath>
</defs>
</svg>
