<svg width="24" height="20" viewBox="0 0 24 20" fill="none" xmlns="http://www.w3.org/2000/svg">
<g clip-path="url(#clip0_270_6449)">
<path d="M23.5039 1.14783C23.351 0.239228 22.5011 -0.212252 21.5642 0.0970122C14.9591 2.27371 8.35563 4.45549 1.74709 6.62146C1.10712 6.83084 0.630242 7.15139 0.460938 7.83086V8.28121C0.605411 8.89241 1.01513 9.23045 1.57891 9.46861C3.09815 10.1091 4.6027 10.7852 6.11516 11.4421C6.2506 11.5008 6.32679 11.5748 6.3584 11.7243C6.71901 13.4258 7.08471 15.1262 7.45154 16.8266C7.58247 17.4344 7.70719 18.0445 7.85844 18.6478C7.95607 19.0405 8.25405 19.2544 8.59886 19.1811C8.77381 19.1438 8.94707 19.0428 9.0938 18.9339C10.2942 18.045 11.4906 17.1505 12.6814 16.2493C12.8191 16.1449 12.8964 16.159 13.0217 16.2617C14.3829 17.3836 15.7469 18.5027 17.116 19.6151C18.0472 20.3713 19.1991 19.9678 19.4733 18.8024C20.8035 13.1397 22.1371 7.47758 23.4627 1.81376C23.5129 1.59931 23.5395 1.36228 23.5039 1.14783ZM8.6948 15.436C8.67505 15.5049 8.6474 15.5721 8.58363 15.6398C8.28057 14.2329 7.97695 12.8259 7.66882 11.3992C9.76481 10.2356 11.8574 9.07356 13.95 7.91157C13.9596 7.9268 13.9692 7.9426 13.9794 7.95784C13.4873 8.47309 12.9952 8.98835 12.503 9.50303C11.5848 10.463 10.6599 11.4173 9.75352 12.388C9.59212 12.5612 9.46345 12.7909 9.39291 13.0172C9.14346 13.8186 8.92562 14.629 8.6948 15.436ZM9.72079 16.7781C9.97814 15.8768 10.218 15.0387 10.4646 14.1753C10.9127 14.5421 11.3348 14.8869 11.7699 15.243C11.0961 15.7476 10.4375 16.2414 9.72079 16.7781ZM18.1082 18.6777C15.7571 16.7538 13.432 14.8514 11.095 12.9388C11.1621 12.8671 11.2174 12.8067 11.2739 12.7475C13.5206 10.3981 15.7678 8.0487 18.0139 5.69819C18.1014 5.6062 18.1877 5.51026 18.2572 5.40416C18.4061 5.17729 18.392 4.88214 18.2357 4.6643C18.0771 4.44307 17.7831 4.33472 17.5167 4.41372C17.4033 4.44759 17.2944 4.50289 17.19 4.56102C13.8197 6.43184 10.4499 8.30322 7.08246 10.1797C6.93008 10.2643 6.80931 10.2779 6.64678 10.2056C5.11118 9.52674 3.57163 8.85685 2.03322 8.18358C1.96549 8.15367 1.90059 8.11812 1.76684 8.05152C8.59717 5.79977 15.3694 3.5672 22.1912 1.31827C20.8255 7.12486 19.4722 12.8778 18.1082 18.6777Z" fill="#33FF00"/>
</g>
<defs>
<clipPath id="clip0_270_6449">
<rect width="23.0593" height="20" fill="white" transform="translate(0.460938)"/>
</clipPath>
</defs>
</svg>
