<svg width="30" height="22" viewBox="0 0 30 22" fill="none" xmlns="http://www.w3.org/2000/svg">
<g clip-path="url(#clip0_270_6451)">
<path d="M28.8408 16.9019C28.6768 14.462 28.3226 12.0521 27.6774 9.68877C27.1361 7.70651 26.4282 5.7907 25.4293 3.98689C25.2321 3.63106 24.9738 3.35293 24.6319 3.14607C24.2048 2.88777 23.7809 2.62144 23.3404 2.38725C21.9567 1.65147 20.4991 1.14398 18.9257 1.00304C18.7312 0.985361 18.639 1.04324 18.5586 1.21526C18.3137 1.73936 18.0431 2.25221 17.7966 2.77577C17.7135 2.95262 17.6251 3.0405 17.4129 2.99549C17.2044 2.95101 16.9874 2.94619 16.7736 2.93065C15.5507 2.84276 14.3283 2.84062 13.1092 2.98316C12.8337 3.01532 12.6751 2.95369 12.5561 2.68306C12.3482 2.21094 12.0744 1.76776 11.867 1.29564C11.7501 1.03038 11.6012 0.978394 11.3316 1.01644C9.42009 1.2876 7.65165 1.93121 6.02093 2.96601C5.48826 3.30416 5.04615 3.69751 4.78677 4.28752C4.47167 5.00455 4.09226 5.69477 3.79859 6.41983C2.4326 9.78791 1.78096 13.3135 1.53981 16.9233C1.5307 17.0519 1.60626 17.2159 1.69575 17.3167C2.90472 18.6837 4.40468 19.6247 6.11525 20.2324C7.21168 20.622 8.34349 20.8712 9.50958 20.9537C9.74591 20.9709 9.90293 20.9114 10.046 20.7083C10.441 20.1472 10.8847 19.6194 11.2641 19.0487C11.5283 18.6516 11.8027 18.4056 12.2973 18.6226C12.3209 18.6328 12.3503 18.629 12.3766 18.6323C14.4173 18.904 16.4542 18.9163 18.4858 18.5508C18.6492 18.5213 18.7462 18.561 18.8443 18.6944C19.3362 19.3616 19.8426 20.0186 20.3324 20.6874C20.4707 20.8766 20.6111 21.01 20.8699 20.9253C20.871 20.9505 20.8721 20.9752 20.8737 20.9998C21.6513 20.8455 22.4364 20.7206 23.2054 20.5304C25.3548 19.9983 27.2203 18.9683 28.7009 17.3006C28.7888 17.202 28.8499 17.0326 28.8408 16.9019ZM27.9957 17.2636C26.9234 18.3348 25.6603 19.1001 24.2509 19.6387C23.2788 20.01 22.2708 20.233 21.237 20.3477C20.9541 20.3793 20.744 20.353 20.5623 20.0743C20.2472 19.5904 19.8743 19.1435 19.5259 18.6805C19.4627 18.5969 19.4032 18.5106 19.3185 18.3933C21.4391 17.9061 23.3495 17.0471 25.0858 15.7411C24.9749 15.5916 24.8763 15.4592 24.7535 15.2942C21.9128 17.4249 18.6744 18.2689 15.1852 18.2716C11.7003 18.2748 8.47478 17.4136 5.63348 15.2958C5.51559 15.4507 5.41484 15.5836 5.29855 15.7368C7.02251 17.0439 8.93457 17.8976 11.0572 18.39C10.9892 18.4913 10.9404 18.5701 10.8847 18.6446C10.4956 19.166 10.1114 19.6917 9.71001 20.2035C9.64195 20.2903 9.49136 20.3723 9.38794 20.3627C6.64096 20.106 4.2064 19.1542 2.27452 17.1205C2.17913 17.0203 2.11107 16.8397 2.12072 16.7031C2.39563 12.7921 3.17589 9.00069 4.84144 5.42308C4.88645 5.32608 4.94111 5.23284 4.97648 5.13262C5.35536 4.05763 6.18384 3.44296 7.15327 2.94029C8.40136 2.29294 9.7084 1.84815 11.0937 1.61825C11.3027 1.58342 11.4174 1.62039 11.5101 1.82296C11.7014 2.2431 11.9222 2.65038 12.1585 3.11767C10.0037 3.44081 8.07554 4.3036 6.15651 5.27303C6.23368 5.43433 6.30495 5.58331 6.38963 5.76015C12.2501 2.64662 18.1064 2.60161 23.9808 5.76176C24.0655 5.60099 24.1416 5.45577 24.2562 5.23873C23.2707 4.79983 22.3249 4.32075 21.3372 3.95527C20.348 3.58926 19.3169 3.33632 18.2891 3.02925C18.4992 2.6059 18.7141 2.13699 18.9702 1.69167C19.0147 1.6145 19.236 1.60324 19.3694 1.61771C20.3003 1.72007 21.1931 1.98694 22.0339 2.38243C22.8308 2.75702 23.5982 3.19806 24.357 3.6466C24.5815 3.77896 24.7777 4.00886 24.9106 4.23769C25.9775 6.07794 26.6758 8.06609 27.2144 10.1132C27.7685 12.2203 28.09 14.3655 28.2663 16.5353C28.291 16.8397 28.2095 17.0498 27.9957 17.2636Z" fill="black" stroke="#33FF00" stroke-width="0.75" stroke-linejoin="round"/>
<path d="M20.7754 10.2056C19.8644 9.20402 18.2438 9.25385 17.4132 10.3214C16.6121 11.3508 16.5113 12.4633 17.104 13.6208C17.8543 15.086 19.7476 15.3357 20.8258 14.1262C21.3102 13.5833 21.5369 12.9445 21.5396 12.3288C21.554 11.4499 21.2957 10.7774 20.7754 10.2056ZM20.3435 13.8084C19.5798 14.5469 18.5139 14.4933 17.8226 13.6809C17.112 12.8459 17.119 11.5073 17.8371 10.6777C18.6635 9.72383 20.1205 9.898 20.6939 11.0427C20.8692 11.3921 20.9399 11.7934 21.001 11.989C20.9694 12.8079 20.8017 13.3652 20.3435 13.8084Z" fill="black" stroke="#33FF00" stroke-width="0.75"/>
<path d="M12.8963 10.2364C12.0169 9.23157 10.4392 9.24014 9.56676 10.2471C8.61502 11.3451 8.58233 12.9115 9.48692 14.0449C10.2741 15.0315 11.6878 15.1832 12.654 14.3734C13.3319 13.8054 13.6315 13.0584 13.6395 12.1859C13.6476 11.4389 13.3828 10.7926 12.8963 10.2364ZM12.5426 13.7014C11.7586 14.6301 10.3535 14.5465 9.68734 13.3429C9.49924 13.0032 9.44137 12.5921 9.32347 12.2138C9.34598 12.2074 9.36848 12.2009 9.39046 12.1945C9.39849 11.4786 9.64125 10.8666 10.2125 10.4143C10.9333 9.84409 11.9258 9.96092 12.5404 10.6753C13.2676 11.5198 13.2633 12.8478 12.5426 13.7014Z" fill="black" stroke="#33FF00" stroke-width="0.75"/>
</g>
<defs>
<clipPath id="clip0_270_6451">
<rect width="29" height="22" fill="white" transform="translate(0.539062)"/>
</clipPath>
</defs>
</svg>
