<svg width="62" height="62" viewBox="0 0 62 62" fill="none" xmlns="http://www.w3.org/2000/svg">
<path d="M62 31C62 48.1208 48.1208 62 31 62C13.8792 62 0 48.1208 0 31C0 13.8792 13.8792 0 31 0C48.1208 0 62 13.8792 62 31ZM4.24103 31C4.24103 45.7786 16.2214 57.759 31 57.759C45.7786 57.759 57.759 45.7786 57.759 31C57.759 16.2214 45.7786 4.24103 31 4.24103C16.2214 4.24103 4.24103 16.2214 4.24103 31Z" fill="#33FF00"/>
<path d="M40.8367 27.2944V34.7043C40.8367 35.9177 40.1867 37.0444 39.1358 37.6619L32.7008 41.3777C31.65 41.9844 30.35 41.9844 29.2883 41.3777L22.8533 37.6619C21.8025 37.0552 21.1525 35.9285 21.1525 34.7043V27.2944C21.1525 26.0811 21.8025 24.9543 22.8533 24.3368L29.2883 20.621C30.3392 20.0143 31.6392 20.0143 32.7008 20.621L39.1358 24.3368C40.1867 24.9543 40.8367 26.0702 40.8367 27.2944Z" stroke="#33FF00" stroke-width="1.5" stroke-linecap="round" stroke-linejoin="round"/>
<path d="M31 29.9174C32.3941 29.9174 33.5242 28.7873 33.5242 27.3933C33.5242 25.9992 32.3941 24.8691 31 24.8691C29.6059 24.8691 28.4758 25.9992 28.4758 27.3933C28.4758 28.7873 29.6059 29.9174 31 29.9174Z" stroke="#33FF00" stroke-width="1.5" stroke-linecap="round" stroke-linejoin="round"/>
<path d="M35.3333 36.0492C35.3333 34.0992 33.3942 32.5176 31 32.5176C28.6058 32.5176 26.6667 34.0992 26.6667 36.0492" stroke="#33FF00" stroke-width="1.5" stroke-linecap="round" stroke-linejoin="round"/>
</svg>
