<svg width="1430" height="1073" viewBox="0 0 1430 1073" fill="none" xmlns="http://www.w3.org/2000/svg">
<g filter="url(#filter0_f_374_1532)">
<path d="M826.548 514.712C888.32 454.382 888.32 356.567 826.548 296.237C764.775 235.907 664.622 235.907 602.849 296.237C541.077 356.567 541.077 454.382 602.849 514.712C664.622 575.042 764.775 575.042 826.548 514.712Z" fill="black"/>
</g>
<g filter="url(#filter1_d_374_1532)">
<path d="M826.548 514.714C888.32 454.384 888.32 356.569 826.548 296.239C764.775 235.909 664.622 235.909 602.849 296.239C541.077 356.569 541.077 454.384 602.849 514.714C664.622 575.044 764.775 575.044 826.548 514.714Z" fill="#444444"/>
<path d="M825.475 297.287C886.654 357.039 886.654 453.915 825.475 513.666C764.295 573.417 665.102 573.417 603.922 513.666C542.742 453.915 542.742 357.039 603.922 297.287C665.102 237.536 764.295 237.536 825.475 297.287Z" stroke="#33FF00" stroke-width="3"/>
</g>
<path d="M521.771 531.946C499.43 497.229 486.5 456.153 486.5 412.11" stroke="#00A651" stroke-width="2" stroke-miterlimit="10"/>
<path d="M624.185 618.436C581.851 600.19 546.189 569.877 521.777 531.947" stroke="#33FF00" stroke-width="5" stroke-miterlimit="10"/>
<path d="M811.67 617.873C782.865 630.501 750.907 637.512 717.292 637.512C683.678 637.512 652.663 630.704 624.18 618.412" stroke="#00A651" stroke-width="6" stroke-miterlimit="10"/>
<path d="M910.997 534.732C886.884 570.977 852.419 600.031 811.672 617.895" stroke="#33FF00" stroke-width="5" stroke-miterlimit="10"/>
<path d="M948.089 412.11C948.089 457.321 934.468 499.431 911 534.71" stroke="#00A651" stroke-width="5" stroke-miterlimit="10"/>
<path d="M956.608 406.243C956.608 410.591 953.014 414.095 948.554 414.095C944.095 414.095 940.5 410.591 940.5 406.243C940.5 401.896 944.095 398.391 948.554 398.391C953.014 398.391 956.608 401.896 956.608 406.243Z" fill="white" stroke="#00A651" stroke-miterlimit="10"/>
<path d="M492.411 412.177C492.411 415.436 489.696 418.087 486.36 418.087C483.023 418.087 480.309 415.436 480.309 412.177C480.309 408.919 483.023 406.268 486.36 406.268C489.696 406.268 492.411 408.919 492.411 412.177Z" fill="#00A651"/>
<path d="M919.282 534.754C919.282 539.204 915.601 542.799 911.045 542.799C906.49 542.799 902.809 539.204 902.809 534.754C902.809 530.305 906.49 526.71 911.045 526.71C915.601 526.71 919.282 530.305 919.282 534.754Z" fill="white" stroke="#33FF00" stroke-miterlimit="10"/>
<path d="M530.715 535.9C530.715 539.63 527.632 542.641 523.812 542.641C519.993 542.641 516.91 539.63 516.91 535.9C516.91 532.17 519.993 529.159 523.812 529.159C527.632 529.159 530.715 532.17 530.715 535.9Z" fill="white" stroke="#00A651" stroke-width="1.5" stroke-miterlimit="10"/>
<path d="M822.39 617.895C822.39 623.491 817.742 628.03 812.013 628.03C806.284 628.03 801.637 623.491 801.637 617.895C801.637 612.3 806.284 607.761 812.013 607.761C817.742 607.761 822.39 612.3 822.39 617.895Z" fill="white" stroke="#00A651" stroke-width="1.26" stroke-miterlimit="10"/>
<path d="M632.709 617.896C632.709 622.435 628.936 626.12 624.288 626.12C619.64 626.12 615.867 622.435 615.867 617.896C615.867 613.357 619.64 609.671 624.288 609.671C628.936 609.671 632.709 613.357 632.709 617.896Z" fill="white" stroke="#33FF00" stroke-width="1.62" stroke-miterlimit="10"/>
<path d="M717.293 718.361C694.377 718.361 672.059 715.889 650.593 711.215C637.824 708.429 624.939 715.462 620.476 727.484L553.937 906.731C548.737 920.708 556.813 936.145 571.492 940.078C617.945 952.459 666.814 959.088 717.27 959.088C767.726 959.088 816.617 952.459 863.047 940.078C877.749 936.168 885.802 920.73 880.625 906.731L814.087 727.484C809.623 715.462 796.739 708.429 783.969 711.215C762.503 715.889 740.185 718.361 717.27 718.361H717.293Z" fill="#33FF00"/>
<path d="M449.092 606.952L284.908 709.979C272.024 718.069 268.964 735.169 278.259 747.033C332.949 816.872 404.687 873.273 487.446 910.304C501.366 916.529 517.77 909.832 522.993 895.766L589.532 716.541C594.041 704.407 588.542 690.992 576.808 685.059C540.939 666.903 509.211 642.028 483.374 612.142C474.838 602.278 460.228 599.986 449.092 606.974V606.952Z" fill="black"/>
<path d="M845.047 716.542L911.585 895.767C916.808 909.833 933.213 916.53 947.132 910.305C1029.87 873.274 1101.63 816.873 1156.32 747.034C1165.61 735.17 1162.55 718.07 1149.67 709.98L985.486 606.953C974.374 599.964 959.741 602.256 951.205 612.121C925.367 642.029 893.662 666.904 857.77 685.038C846.036 690.97 840.537 704.385 845.047 716.519V716.542Z" fill="#33FF00"/>
<path d="M1020.7 458.084C1016.53 489.611 1007.35 519.609 993.937 547.27C988.277 558.955 992.188 572.931 1003.35 579.942L1167.55 682.97C1180.39 691.014 1197.56 686.722 1204.76 673.577C1239.57 610.008 1261.72 538.821 1267.91 463.23C1269.13 448.355 1257.1 435.614 1241.8 435.614H1046.67C1033.44 435.614 1022.4 445.254 1020.7 458.062V458.084Z" fill="#33FF00"/>
<path d="M387.91 435.636H192.781C177.504 435.636 165.448 448.377 166.667 463.252C172.879 538.821 195.013 610.007 229.823 673.599C237.025 686.744 254.189 691.036 267.027 682.992L431.234 579.964C442.393 572.976 446.304 558.999 440.644 547.292C427.23 519.631 418.05 489.632 413.886 458.106C412.206 445.298 401.14 435.658 387.91 435.658V435.636Z" fill="#33FF00"/>
<path d="M716.539 711.257C693.623 711.257 671.305 708.785 649.839 704.111C637.07 701.325 624.185 708.358 619.722 720.38L553.183 899.627C547.984 913.604 556.059 929.041 570.738 932.974C617.191 945.355 666.06 951.984 716.516 951.984C766.972 951.984 815.863 945.355 862.293 932.974C876.995 929.064 885.048 913.626 879.871 899.627L813.333 720.38C808.869 708.358 795.985 701.325 783.215 704.111C761.749 708.785 739.432 711.257 716.516 711.257H716.539Z" fill="#444444"/>
<path d="M452.221 614.008L288.037 717.035C275.153 725.125 272.093 742.225 281.388 754.089C336.077 823.928 407.816 880.329 490.575 917.36C504.495 923.585 520.899 916.888 526.122 902.822L592.661 723.597C597.17 711.463 591.671 698.048 579.937 692.116C544.068 673.959 512.34 649.084 486.503 619.199C477.967 609.334 463.357 607.042 452.221 614.03V614.008Z" fill="#33FF00"/>
<path d="M449.221 607.008L285.037 710.035C272.153 718.125 269.093 735.225 278.388 747.089C333.077 816.928 404.816 873.329 487.575 910.36C501.495 916.585 517.899 909.888 523.122 895.822L589.661 716.597C594.17 704.463 588.671 691.048 576.937 685.116C541.068 666.959 509.34 642.084 483.503 612.199C474.967 602.334 460.357 600.042 449.221 607.03V607.008Z" fill="#444444"/>
<path d="M845.047 709.801L911.585 889.026C916.808 903.093 933.213 909.789 947.132 903.565C1029.87 866.533 1101.63 810.132 1156.32 740.293C1165.61 728.429 1162.55 711.329 1149.67 703.24L985.486 600.212C974.374 593.224 959.741 595.516 951.205 605.38C925.367 635.289 893.662 660.163 857.77 678.297C846.036 684.229 840.537 697.644 845.047 709.778V709.801Z" fill="#444444"/>
<path d="M1020.7 451.344C1016.53 482.87 1007.35 512.868 993.937 540.529C988.277 552.214 992.188 566.191 1003.35 573.201L1167.55 676.229C1180.39 684.273 1197.56 679.982 1204.76 666.836C1239.57 603.267 1261.72 532.08 1267.91 456.489C1269.13 441.614 1257.1 428.873 1241.8 428.873H1046.67C1033.44 428.873 1022.4 438.513 1020.7 451.321V451.344Z" fill="#444444"/>
<path d="M386.328 429.8H191.199C175.922 429.8 163.866 442.541 165.085 457.416C171.297 532.985 193.431 604.171 228.241 667.763C235.443 680.908 252.607 685.2 265.445 677.156L429.652 574.128C440.811 567.14 444.722 553.163 439.062 541.456C425.648 513.795 416.468 483.797 412.304 452.27C410.624 439.462 399.558 429.822 386.328 429.822V429.8Z" fill="#444444"/>
<path d="M1048.19 506.544C1048.19 502.8 1045.2 502.8 1043.86 502.8C1043.2 502.8 1041.42 502.816 1040.83 502.816V502.8H1038.4V514H1040.83V510.272C1041.33 510.272 1042.99 510.272 1043.41 510.272C1043.55 510.272 1043.76 510.272 1044 510.272L1045.82 514H1048.46L1046.32 509.712C1047.33 509.184 1048.19 508.48 1048.19 506.544ZM1043.66 508.096C1043.46 508.096 1041.36 508.096 1040.83 508.096V504.992C1041.47 504.992 1043.26 504.992 1043.71 504.992C1044.46 504.992 1045.94 504.992 1045.94 506.544C1045.94 508.112 1044.37 508.096 1043.66 508.096ZM1054.35 504.864C1051.63 504.864 1049.36 506.352 1049.36 509.44C1049.36 512.544 1051.63 514 1054.35 514C1057.09 514 1059.36 512.592 1059.36 509.44C1059.36 506.32 1057.09 504.864 1054.35 504.864ZM1054.35 511.792C1052.83 511.792 1051.74 511.12 1051.74 509.44C1051.74 507.744 1052.83 507.088 1054.35 507.088C1055.89 507.088 1056.97 507.776 1056.97 509.44C1056.97 511.056 1055.89 511.792 1054.35 511.792ZM1063.34 514V502.496H1060.92V514H1063.34ZM1067.5 514V502.496H1065.08V514H1067.5ZM1084.8 504.864C1082.08 504.864 1079.81 506.352 1079.81 509.44C1079.81 512.544 1082.08 514 1084.8 514C1087.53 514 1089.81 512.592 1089.81 509.44C1089.81 506.32 1087.53 504.864 1084.8 504.864ZM1084.8 511.792C1083.28 511.792 1082.19 511.12 1082.19 509.44C1082.19 507.744 1083.28 507.088 1084.8 507.088C1086.33 507.088 1087.42 507.776 1087.42 509.44C1087.42 511.056 1086.33 511.792 1084.8 511.792ZM1098.27 505.024V509.36C1098.27 510.576 1097.95 511.92 1095.85 511.92C1093.52 511.92 1093.68 510.224 1093.68 509.52V505.024H1091.26V509.52C1091.26 510.832 1091.36 514 1095.15 514C1096.77 514 1097.58 513.488 1098.16 512.688H1098.27V514H1100.7V505.024H1098.27ZM1105.69 507.104H1108.61V505.056H1105.69V502.464H1103.25V505.056H1102.06V507.104H1103.25V510.704C1103.25 512 1103.25 514 1105.69 514C1108.13 514 1108.61 513.84 1108.61 513.84V511.472C1106.27 511.6 1105.69 511.776 1105.69 510.48V510.288V507.104ZM1126.77 505.04C1125.1 505.04 1124.08 505.568 1123.47 506.352H1123.34V505.04H1120.91V517.424H1123.34V512.768H1123.45C1124.06 513.552 1125.09 514.032 1126.77 514.032C1130.54 514.032 1130.96 510.736 1130.96 509.536C1130.96 508.224 1130.56 505.04 1126.77 505.04ZM1126.06 511.936C1123.95 511.936 1123.52 510.896 1123.52 509.536C1123.52 508.32 1123.95 507.136 1126.06 507.136C1128.38 507.136 1128.64 508.832 1128.64 509.536C1128.64 510.176 1128.38 511.936 1126.06 511.936ZM1138.09 505.024C1136.49 505.024 1135.52 505.552 1134.94 506.352H1134.83V502.448H1132.4V514H1134.83V509.68C1134.83 508.464 1135.29 507.12 1137.39 507.12C1139.73 507.12 1139.73 508.816 1139.73 509.52V514H1142.14V509.52C1142.14 508.208 1141.9 505.024 1138.09 505.024ZM1151.04 506.352C1150.44 505.552 1149.43 505.024 1147.76 505.024C1143.97 505.024 1143.57 508.208 1143.57 509.52C1143.57 510.72 1143.99 514 1147.75 514C1149.44 514 1150.47 513.536 1151.08 512.752H1151.16V514H1153.59V505.024H1151.16V506.352H1151.04ZM1148.47 511.92C1146.15 511.92 1145.89 510.16 1145.89 509.52C1145.89 508.816 1146.13 507.12 1148.47 507.12C1150.56 507.12 1151 508.304 1151 509.52C1151 510.88 1150.56 511.92 1148.47 511.92ZM1159.67 508.56L1159.46 508.544C1157.9 508.304 1157.62 508.08 1157.62 507.68C1157.62 507.408 1157.91 506.912 1159.27 506.912C1160.68 506.912 1161.29 507.296 1161.29 508V508.08H1163.77V508C1163.77 506.624 1162.98 504.976 1159.27 504.976C1155.82 504.976 1155.1 506.464 1155.1 507.712C1155.1 509.504 1156.7 510.08 1159.27 510.416C1159.4 510.432 1159.53 510.448 1159.66 510.464C1160.63 510.576 1161.5 510.704 1161.5 511.376C1161.5 511.968 1160.57 512.096 1159.59 512.096C1157.98 512.096 1157.4 511.744 1157.4 510.976V510.896H1154.9V511.072C1154.89 511.536 1154.89 512.288 1155.51 512.912C1156.23 513.632 1157.62 514 1159.66 514C1162.41 514 1164.01 513.568 1164.01 511.344C1164.01 509.216 1161.7 508.864 1159.67 508.56ZM1174.83 510.08H1174.93C1175.06 508.848 1174.9 506.96 1173.17 505.776V505.792C1172.42 505.264 1171.39 504.944 1170.13 504.944C1167.11 504.944 1165.31 506.544 1165.31 509.472C1165.31 512.464 1167.06 514 1170.13 514C1173.07 514 1174.64 512.816 1174.88 510.88H1172.53C1172.31 511.472 1171.59 511.872 1170.13 511.872C1168.56 511.872 1167.84 511.28 1167.67 510.08H1174.83ZM1170.13 507.072C1171.86 507.072 1172.31 507.808 1172.5 508.48H1167.76C1168.05 507.568 1168.79 507.072 1170.13 507.072ZM1190.46 502.816C1190.46 502.816 1190.38 505.04 1187.27 505.04C1187.27 506.896 1187.27 506.88 1187.27 506.88H1190.46V514H1192.89V502.816H1190.46ZM1210.21 504.864C1207.49 504.864 1205.21 506.352 1205.21 509.44C1205.21 512.544 1207.49 514 1210.21 514C1212.94 514 1215.21 512.592 1215.21 509.44C1215.21 506.32 1212.94 504.864 1210.21 504.864ZM1210.21 511.792C1208.69 511.792 1207.6 511.12 1207.6 509.44C1207.6 507.744 1208.69 507.088 1210.21 507.088C1211.74 507.088 1212.83 507.776 1212.83 509.44C1212.83 511.056 1211.74 511.792 1210.21 511.792ZM1220.89 504.032C1221.82 504.032 1223.12 504.144 1223.12 504.144V502.08C1223.12 502.08 1221.56 501.856 1220.03 501.856C1218.2 501.856 1217.45 502.448 1217.31 505.024H1216.06V507.024H1217.28V514H1219.71V507.024H1222.96V505.024H1219.74C1219.8 504.224 1220.04 504.032 1220.89 504.032ZM1039.74 523.448C1039.74 523.448 1038.43 526.024 1038.43 529.416C1038.43 532.776 1039.73 535 1039.73 535L1042.43 534.984C1042.43 534.984 1040.8 532.776 1040.8 529.416C1040.8 526.024 1042.43 523.448 1042.43 523.448H1039.74ZM1046.52 523.8H1044.09V535H1053.29V532.808H1046.52V523.8ZM1057.42 523.8H1054.99V535H1064.19V532.808H1057.42V523.8ZM1065.77 523.8V535H1068.2H1074.97V532.776H1068.2V530.504H1074.97V528.312H1068.2V526.008H1074.97V523.8H1065.77ZM1079.34 535C1079.34 535 1080.66 532.424 1080.66 529.048C1080.66 525.672 1079.35 523.448 1079.35 523.448L1076.66 523.48C1076.66 523.48 1078.28 525.672 1078.28 529.048C1078.28 532.424 1076.66 535 1076.66 535H1079.34ZM1093.9 523.8H1091.47V535H1100.67V532.808H1093.9V523.8ZM1104.78 535V526.088H1102.36V535H1104.78ZM1104.78 525.448V523.272H1102.36V525.448H1104.78ZM1110.9 529.56L1110.69 529.544C1109.12 529.304 1108.85 529.08 1108.85 528.68C1108.85 528.408 1109.14 527.912 1110.5 527.912C1111.91 527.912 1112.51 528.296 1112.51 529V529.08H1114.99V529C1114.99 527.624 1114.21 525.976 1110.5 525.976C1107.04 525.976 1106.32 527.464 1106.32 528.712C1106.32 530.504 1107.92 531.08 1110.5 531.416C1110.63 531.432 1110.75 531.448 1110.88 531.464C1111.86 531.576 1112.72 531.704 1112.72 532.376C1112.72 532.968 1111.79 533.096 1110.82 533.096C1109.2 533.096 1108.63 532.744 1108.63 531.976V531.896H1106.13V532.072C1106.11 532.536 1106.11 533.288 1106.74 533.912C1107.46 534.632 1108.85 535 1110.88 535C1113.63 535 1115.23 534.568 1115.23 532.344C1115.23 530.216 1112.93 529.864 1110.9 529.56ZM1119.83 528.104H1122.74V526.056H1119.83V523.464H1117.38V526.056H1116.2V528.104H1117.38V531.704C1117.38 533 1117.38 535 1119.83 535C1122.26 535 1122.74 534.84 1122.74 534.84V532.472C1120.4 532.6 1119.83 532.776 1119.83 531.48V531.288V528.104ZM1133.31 531.08H1133.41C1133.54 529.848 1133.38 527.96 1131.65 526.776V526.792C1130.9 526.264 1129.87 525.944 1128.61 525.944C1125.59 525.944 1123.79 527.544 1123.79 530.472C1123.79 533.464 1125.54 535 1128.61 535C1131.55 535 1133.12 533.816 1133.36 531.88H1131.01C1130.79 532.472 1130.07 532.872 1128.61 532.872C1127.04 532.872 1126.32 532.28 1126.15 531.08H1133.31ZM1128.61 528.072C1130.34 528.072 1130.79 528.808 1130.98 529.48H1126.24C1126.53 528.568 1127.27 528.072 1128.61 528.072ZM1140.12 526.024C1138.57 526.024 1138.03 526.488 1137.51 527.352H1137.37V526.024H1134.94V535H1137.37V530.984C1137.37 529.768 1137.9 528.36 1139.71 528.36C1140.47 528.36 1141.1 528.488 1141.32 528.552L1141.71 526.264C1141.29 526.168 1140.76 526.024 1140.12 526.024ZM1148.57 526.024C1146.95 526.024 1146.14 526.552 1145.56 527.352H1145.45V526.024H1143.02V535H1145.45V530.68C1145.45 529.464 1145.75 528.12 1147.87 528.12C1150.19 528.12 1150.04 529.816 1150.04 530.52V535H1152.46V530.52C1152.46 529.208 1152.36 526.024 1148.57 526.024ZM1156.99 533.928C1156.99 532.792 1156.35 532.2 1155.55 532.2C1154.77 532.2 1154.13 532.84 1154.13 533.64C1154.13 534.376 1154.51 534.968 1155.41 534.856C1155.36 535.272 1154.8 535.672 1154.8 535.672C1154.8 535.672 1154.85 535.864 1155.01 536.488C1156.69 535.896 1156.99 534.568 1156.99 533.928ZM1170.26 523.8H1167.83V535H1177.03V532.808H1170.26V523.8ZM1187.88 531.08H1187.98C1188.1 529.848 1187.94 527.96 1186.22 526.776V526.792C1185.46 526.264 1184.44 525.944 1183.18 525.944C1180.15 525.944 1178.36 527.544 1178.36 530.472C1178.36 533.464 1180.1 535 1183.18 535C1186.12 535 1187.69 533.816 1187.93 531.88H1185.58C1185.35 532.472 1184.63 532.872 1183.18 532.872C1181.61 532.872 1180.89 532.28 1180.71 531.08H1187.88ZM1183.18 528.072C1184.9 528.072 1185.35 528.808 1185.54 529.48H1180.81C1181.1 528.568 1181.83 528.072 1183.18 528.072ZM1196.85 527.352C1196.24 526.552 1195.24 526.024 1193.57 526.024C1189.78 526.024 1189.38 529.208 1189.38 530.52C1189.38 531.72 1189.8 535 1193.56 535C1195.25 535 1196.28 534.536 1196.88 533.752H1196.96V535H1199.4V526.024H1196.96V527.352H1196.85ZM1194.28 532.92C1191.96 532.92 1191.7 531.16 1191.7 530.52C1191.7 529.816 1191.94 528.12 1194.28 528.12C1196.37 528.12 1196.8 529.304 1196.8 530.52C1196.8 531.88 1196.37 532.92 1194.28 532.92ZM1206.27 526.024C1204.72 526.024 1204.17 526.488 1203.66 527.352H1203.52V526.024H1201.09V535H1203.52V530.984C1203.52 529.768 1204.05 528.36 1205.85 528.36C1206.62 528.36 1207.25 528.488 1207.47 528.552L1207.85 526.264C1207.44 526.168 1206.91 526.024 1206.27 526.024ZM1214.72 526.024C1213.1 526.024 1212.29 526.552 1211.71 527.352H1211.6V526.024H1209.17V535H1211.6V530.68C1211.6 529.464 1211.9 528.12 1214.02 528.12C1216.34 528.12 1216.19 529.816 1216.19 530.52V535H1218.61V530.52C1218.61 529.208 1218.51 526.024 1214.72 526.024ZM1223.14 533.928C1223.14 532.792 1222.5 532.2 1221.7 532.2C1220.92 532.2 1220.28 532.84 1220.28 533.64C1220.28 534.376 1220.66 534.968 1221.56 534.856C1221.51 535.272 1220.95 535.672 1220.95 535.672C1220.95 535.672 1221 535.864 1221.16 536.488C1222.84 535.896 1223.14 534.568 1223.14 533.928ZM1045.89 548.352C1045.28 547.552 1044.27 547.024 1042.61 547.024C1038.82 547.024 1038.42 550.208 1038.42 551.52C1038.42 552.72 1038.83 556 1042.59 556C1044.29 556 1045.31 555.536 1045.92 554.752H1046V556H1048.43V547.024H1046V548.352H1045.89ZM1043.31 553.92C1040.99 553.92 1040.74 552.16 1040.74 551.52C1040.74 550.816 1040.98 549.12 1043.31 549.12C1045.41 549.12 1045.84 550.304 1045.84 551.52C1045.84 552.88 1045.41 553.92 1043.31 553.92ZM1055.67 547.024C1054.06 547.024 1053.24 547.552 1052.67 548.352H1052.55V547.024H1050.12V556H1052.55V551.68C1052.55 550.464 1052.86 549.12 1054.97 549.12C1057.29 549.12 1057.15 550.816 1057.15 551.52V556H1059.56V551.52C1059.56 550.208 1059.47 547.024 1055.67 547.024ZM1068.62 544.448V548.352H1068.47C1067.86 547.552 1066.86 547.024 1065.19 547.024C1061.4 547.024 1061 550.208 1061 551.52C1061 552.72 1061.42 556 1065.18 556C1066.87 556 1067.9 555.536 1068.5 554.752H1068.62V556H1071.05V544.448H1068.62ZM1065.9 553.92C1063.58 553.92 1063.32 552.16 1063.32 551.52C1063.32 550.816 1063.56 549.12 1065.9 549.12C1067.99 549.12 1068.42 550.304 1068.42 551.52C1068.42 552.88 1067.99 553.92 1065.9 553.92ZM1078.73 544.8V556H1081.16H1087.93V553.776H1081.16V551.504H1087.93V549.312H1081.16V547.008H1087.93V544.8H1078.73ZM1096.92 548.352C1096.31 547.552 1095.3 547.024 1093.64 547.024C1089.85 547.024 1089.45 550.208 1089.45 551.52C1089.45 552.72 1089.86 556 1093.62 556C1095.32 556 1096.34 555.536 1096.95 554.752H1097.03V556H1099.46V547.024H1097.03V548.352H1096.92ZM1094.34 553.92C1092.02 553.92 1091.77 552.16 1091.77 551.52C1091.77 550.816 1092.01 549.12 1094.34 549.12C1096.44 549.12 1096.87 550.304 1096.87 551.52C1096.87 552.88 1096.44 553.92 1094.34 553.92ZM1106.34 547.024C1104.79 547.024 1104.24 547.488 1103.73 548.352H1103.59V547.024H1101.15V556H1103.59V551.984C1103.59 550.768 1104.11 549.36 1105.92 549.36C1106.69 549.36 1107.31 549.488 1107.54 549.552L1107.92 547.264C1107.51 547.168 1106.98 547.024 1106.34 547.024ZM1114.79 547.024C1113.17 547.024 1112.36 547.552 1111.78 548.352H1111.67V547.024H1109.24V556H1111.67V551.68C1111.67 550.464 1111.97 549.12 1114.08 549.12C1116.4 549.12 1116.26 550.816 1116.26 551.52V556H1118.68V551.52C1118.68 550.208 1118.58 547.024 1114.79 547.024ZM1132.21 547.04C1130.54 547.04 1129.52 547.568 1128.91 548.352H1128.78V547.04H1126.35V559.424H1128.78V554.768H1128.89C1129.5 555.552 1130.53 556.032 1132.21 556.032C1135.98 556.032 1136.4 552.736 1136.4 551.536C1136.4 550.224 1136 547.04 1132.21 547.04ZM1131.5 553.936C1129.39 553.936 1128.96 552.896 1128.96 551.536C1128.96 550.32 1129.39 549.136 1131.5 549.136C1133.82 549.136 1134.08 550.832 1134.08 551.536C1134.08 552.176 1133.82 553.936 1131.5 553.936ZM1143.12 547.024C1141.56 547.024 1141.02 547.488 1140.51 548.352H1140.36V547.024H1137.93V556H1140.36V551.984C1140.36 550.768 1140.89 549.36 1142.7 549.36C1143.47 549.36 1144.09 549.488 1144.32 549.552L1144.7 547.264C1144.28 547.168 1143.76 547.024 1143.12 547.024ZM1150.24 546.864C1147.52 546.864 1145.25 548.352 1145.25 551.44C1145.25 554.544 1147.52 556 1150.24 556C1152.98 556 1155.25 554.592 1155.25 551.44C1155.25 548.32 1152.98 546.864 1150.24 546.864ZM1150.24 553.792C1148.72 553.792 1147.63 553.12 1147.63 551.44C1147.63 549.744 1148.72 549.088 1150.24 549.088C1151.78 549.088 1152.86 549.776 1152.86 551.44C1152.86 553.056 1151.78 553.792 1150.24 553.792ZM1164.3 547.12V548.448H1164.16C1163.55 547.648 1162.54 547.12 1160.88 547.12C1157.09 547.12 1156.69 550.304 1156.69 551.616C1156.69 552.832 1157.1 556.112 1160.86 556.112C1162.56 556.112 1163.58 555.632 1164.19 554.864H1164.3V555.504C1164.3 557.152 1163.57 558.224 1161.92 558.224C1160.02 558.224 1159.6 557.296 1159.54 556.816C1159.14 556.816 1157.76 556.816 1157.12 556.816C1157.12 558.144 1157.9 560.32 1161.94 560.32C1166.4 560.32 1166.74 556.992 1166.74 555.136V547.12H1164.3ZM1161.58 554.016C1159.26 554.016 1159.01 552.272 1159.01 551.616C1159.01 550.912 1159.25 549.216 1161.58 549.216C1163.68 549.216 1164.11 550.4 1164.11 551.616C1164.11 552.976 1163.68 554.016 1161.58 554.016ZM1173.59 547.024C1172.04 547.024 1171.5 547.488 1170.99 548.352H1170.84V547.024H1168.41V556H1170.84V551.984C1170.84 550.768 1171.37 549.36 1173.18 549.36C1173.95 549.36 1174.57 549.488 1174.79 549.552L1175.18 547.264C1174.76 547.168 1174.23 547.024 1173.59 547.024ZM1183.4 548.352C1182.79 547.552 1181.78 547.024 1180.12 547.024C1176.33 547.024 1175.93 550.208 1175.93 551.52C1175.93 552.72 1176.34 556 1180.1 556C1181.8 556 1182.82 555.536 1183.43 554.752H1183.51V556H1185.94V547.024H1183.51V548.352H1183.4ZM1180.82 553.92C1178.5 553.92 1178.25 552.16 1178.25 551.52C1178.25 550.816 1178.49 549.12 1180.82 549.12C1182.92 549.12 1183.35 550.304 1183.35 551.52C1183.35 552.88 1182.92 553.92 1180.82 553.92ZM1199.92 547.024C1197.68 547.024 1196.96 547.552 1196.37 548.352H1196.26C1195.75 547.6 1194.83 547.024 1193.22 547.024C1191.62 547.024 1190.82 547.552 1190.24 548.352H1190.13V547.104H1187.71V556H1190.13V551.68C1190.13 550.464 1190.27 549.12 1192.37 549.12C1194.58 549.12 1194.55 550.816 1194.55 551.52V556H1196.96V551.632L1196.98 551.68C1196.98 550.464 1197.12 549.12 1199.22 549.12C1201.43 549.12 1201.39 550.816 1201.39 551.52V556H1203.83V551.52C1203.81 550.208 1203.71 547.024 1199.92 547.024ZM1206.91 556C1207.71 556 1208.35 555.36 1208.35 554.576C1208.35 553.776 1207.71 553.136 1206.91 553.136C1206.12 553.136 1205.48 553.776 1205.48 554.576C1205.48 555.36 1206.12 556 1206.91 556Z" fill="#33FF00"/>
<path d="M893.243 718.8V730H895.675H902.443V727.776H895.675V725.504H902.443V723.312H895.675V721.008H902.443V718.8H893.243ZM911.872 721.088L909.248 727.84H909.008L906.384 721.088H903.824L907.28 730H910.992L914.448 721.088H911.872ZM919.741 720.864C917.021 720.864 914.749 722.352 914.749 725.44C914.749 728.544 917.021 730 919.741 730C922.477 730 924.749 728.592 924.749 725.44C924.749 722.32 922.477 720.864 919.741 720.864ZM919.741 727.792C918.221 727.792 917.133 727.12 917.133 725.44C917.133 723.744 918.221 723.088 919.741 723.088C921.277 723.088 922.365 723.776 922.365 725.44C922.365 727.056 921.277 727.792 919.741 727.792ZM928.731 730V718.496H926.315V730H928.731ZM937.404 721.024V725.36C937.404 726.576 937.084 727.92 934.988 727.92C932.652 727.92 932.812 726.224 932.812 725.52V721.024H930.396V725.52C930.396 726.832 930.492 730 934.284 730C935.9 730 936.716 729.488 937.292 728.688H937.404V730H939.836V721.024H937.404ZM944.828 723.104H947.74V721.056H944.828V718.464H942.38V721.056H941.196V723.104H942.38V726.704C942.38 728 942.38 730 944.828 730C947.26 730 947.74 729.84 947.74 729.84V727.472C945.404 727.6 944.828 727.776 944.828 726.48V726.288V723.104ZM951.615 730V721.088H949.199V730H951.615ZM951.615 720.448V718.272H949.199V720.448H951.615ZM958.116 720.864C955.396 720.864 953.124 722.352 953.124 725.44C953.124 728.544 955.396 730 958.116 730C960.852 730 963.124 728.592 963.124 725.44C963.124 722.32 960.852 720.864 958.116 720.864ZM958.116 727.792C956.596 727.792 955.508 727.12 955.508 725.44C955.508 723.744 956.596 723.088 958.116 723.088C959.652 723.088 960.74 723.776 960.74 725.44C960.74 727.056 959.652 727.792 958.116 727.792ZM970.148 721.024C968.532 721.024 967.716 721.552 967.14 722.352H967.028V721.024H964.596V730H967.028V725.68C967.028 724.464 967.332 723.12 969.444 723.12C971.764 723.12 971.62 724.816 971.62 725.52V730H974.036V725.52C974.036 724.208 973.94 721.024 970.148 721.024ZM982.93 722.352C982.322 721.552 981.314 721.024 979.65 721.024C975.858 721.024 975.458 724.208 975.458 725.52C975.458 726.72 975.874 730 979.634 730C981.33 730 982.354 729.536 982.962 728.752H983.042V730H985.474V721.024H983.042V722.352H982.93ZM980.354 727.92C978.034 727.92 977.778 726.16 977.778 725.52C977.778 724.816 978.018 723.12 980.354 723.12C982.45 723.12 982.882 724.304 982.882 725.52C982.882 726.88 982.45 727.92 980.354 727.92ZM992.349 721.024C990.797 721.024 990.253 721.488 989.741 722.352H989.597V721.024H987.165V730H989.597V725.984C989.597 724.768 990.125 723.36 991.933 723.36C992.701 723.36 993.325 723.488 993.549 723.552L993.933 721.264C993.517 721.168 992.989 721.024 992.349 721.024ZM1002.65 721.04L1000.05 727.792L997.447 721.04H994.887L998.343 730.016H999.207L997.895 733.424H1000.47L1005.22 721.04H1002.65ZM1021.58 726.848H1021.29L1016.4 718.816H1016.17V718.8H1012.89V730H1015.32V721.968H1015.6L1020.51 730H1024.01V718.8H1021.58V726.848ZM1025.69 718.8V730H1028.12V725.504H1034.89V723.312H1028.12V721.008H1035.23V718.8H1025.69ZM1036.93 721.024H1041.15V730H1043.59V721.024H1047.83V718.8H1036.93V721.024ZM1054.28 723.216C1052.4 722.912 1051.75 722.688 1051.75 722.096C1051.75 721.552 1052.18 720.88 1054.07 720.88C1056.39 720.88 1056.72 722.032 1056.72 722.8C1057.59 722.8 1059.28 722.8 1059.28 722.8C1059.28 721.104 1058.42 718.672 1054.07 718.672C1050.4 718.672 1049.24 720.496 1049.24 722.08C1049.24 724.128 1050.74 724.816 1054.1 725.312C1056.29 725.632 1057.06 725.776 1057.06 726.528C1057.06 727.392 1056.29 727.824 1054.45 727.824C1053 727.824 1051.51 727.552 1051.51 725.872C1050.13 725.872 1049.51 725.872 1049.01 725.872C1049.01 726.944 1049 730 1054.52 730C1057.8 730 1059.65 729.312 1059.65 726.528C1059.65 724 1056.79 723.632 1054.28 723.216ZM1074.79 722.352C1074.18 721.552 1073.17 721.024 1071.51 721.024C1067.71 721.024 1067.31 724.208 1067.31 725.52C1067.31 726.72 1067.73 730 1071.49 730C1073.19 730 1074.21 729.536 1074.82 728.752H1074.9V730H1077.33V721.024H1074.9V722.352H1074.79ZM1072.21 727.92C1069.89 727.92 1069.63 726.16 1069.63 725.52C1069.63 724.816 1069.87 723.12 1072.21 723.12C1074.31 723.12 1074.74 724.304 1074.74 725.52C1074.74 726.88 1074.31 727.92 1072.21 727.92ZM1084.57 721.024C1082.96 721.024 1082.14 721.552 1081.57 722.352H1081.45V721.024H1079.02V730H1081.45V725.68C1081.45 724.464 1081.76 723.12 1083.87 723.12C1086.19 723.12 1086.05 724.816 1086.05 725.52V730H1088.46V725.52C1088.46 724.208 1088.37 721.024 1084.57 721.024ZM1097.52 718.448V722.352H1097.37C1096.76 721.552 1095.76 721.024 1094.09 721.024C1090.3 721.024 1089.9 724.208 1089.9 725.52C1089.9 726.72 1090.32 730 1094.08 730C1095.77 730 1096.8 729.536 1097.4 728.752H1097.52V730H1099.95V718.448H1097.52ZM1094.8 727.92C1092.48 727.92 1092.22 726.16 1092.22 725.52C1092.22 724.816 1092.46 723.12 1094.8 723.12C1096.89 723.12 1097.32 724.304 1097.32 725.52C1097.32 726.88 1096.89 727.92 1094.8 727.92ZM941.191 745.272C941.895 744.888 942.279 744.216 942.279 743C942.279 740.744 940.775 739.8 938.455 739.8C937.831 739.8 937.383 739.8 937.063 739.8H932.759V751C932.759 751 938.391 751 939.607 751C941.319 751 942.759 749.976 942.759 747.816C942.759 746.344 942.199 745.624 941.191 745.272ZM937.751 742.024C938.935 742.024 939.895 742.088 939.895 743.208C939.895 744.328 938.983 744.376 937.863 744.376C937.239 744.376 936.087 744.376 935.191 744.376V742.024C935.527 742.024 937.127 742.024 937.751 742.024ZM938.263 748.792C937.447 748.792 938.183 748.792 937.223 748.792H935.191V746.328C935.847 746.328 937.815 746.328 938.583 746.328C939.703 746.328 940.375 746.504 940.375 747.56C940.375 748.712 939.463 748.792 938.263 748.792ZM951.577 743.352C950.969 742.552 949.961 742.024 948.297 742.024C944.505 742.024 944.105 745.208 944.105 746.52C944.105 747.72 944.521 751 948.281 751C949.977 751 951.001 750.536 951.609 749.752H951.689V751H954.121V742.024H951.689V743.352H951.577ZM949.001 748.92C946.681 748.92 946.425 747.16 946.425 746.52C946.425 745.816 946.665 744.12 949.001 744.12C951.097 744.12 951.529 745.304 951.529 746.52C951.529 747.88 951.097 748.92 949.001 748.92ZM963.256 739.448V743.352H963.112C962.504 742.552 961.496 742.024 959.832 742.024C956.04 742.024 955.64 745.208 955.64 746.52C955.64 747.72 956.056 751 959.816 751C961.512 751 962.536 750.536 963.144 749.752H963.256V751H965.688V739.448H963.256ZM960.536 748.92C958.216 748.92 957.96 747.16 957.96 746.52C957.96 745.816 958.2 744.12 960.536 744.12C962.632 744.12 963.064 745.304 963.064 746.52C963.064 747.88 962.632 748.92 960.536 748.92ZM974.665 742.12V743.448H974.521C973.913 742.648 972.905 742.12 971.241 742.12C967.449 742.12 967.049 745.304 967.049 746.616C967.049 747.832 967.465 751.112 971.225 751.112C972.921 751.112 973.945 750.632 974.553 749.864H974.665V750.504C974.665 752.152 973.929 753.224 972.281 753.224C970.377 753.224 969.961 752.296 969.897 751.816C969.497 751.816 968.121 751.816 967.481 751.816C967.481 753.144 968.265 755.32 972.297 755.32C976.761 755.32 977.097 751.992 977.097 750.136V742.12H974.665ZM971.945 749.016C969.625 749.016 969.369 747.272 969.369 746.616C969.369 745.912 969.609 744.216 971.945 744.216C974.041 744.216 974.473 745.4 974.473 746.616C974.473 747.976 974.041 749.016 971.945 749.016ZM988.135 747.08H988.231C988.359 745.848 988.199 743.96 986.471 742.776V742.792C985.719 742.264 984.695 741.944 983.431 741.944C980.407 741.944 978.615 743.544 978.615 746.472C978.615 749.464 980.359 751 983.431 751C986.375 751 987.943 749.816 988.183 747.88H985.831C985.607 748.472 984.887 748.872 983.431 748.872C981.863 748.872 981.143 748.28 980.967 747.08H988.135ZM983.431 744.072C985.159 744.072 985.607 744.808 985.799 745.48H981.063C981.351 744.568 982.087 744.072 983.431 744.072ZM1000.7 745.56L1000.49 745.544C998.926 745.304 998.654 745.08 998.654 744.68C998.654 744.408 998.942 743.912 1000.3 743.912C1001.71 743.912 1002.32 744.296 1002.32 745V745.08H1004.8V745C1004.8 743.624 1004.01 741.976 1000.3 741.976C996.846 741.976 996.126 743.464 996.126 744.712C996.126 746.504 997.726 747.08 1000.3 747.416C1000.43 747.432 1000.56 747.448 1000.69 747.464C1001.66 747.576 1002.53 747.704 1002.53 748.376C1002.53 748.968 1001.6 749.096 1000.62 749.096C999.006 749.096 998.43 748.744 998.43 747.976V747.896H995.934V748.072C995.918 748.536 995.918 749.288 996.542 749.912C997.262 750.632 998.654 751 1000.69 751C1003.44 751 1005.04 750.568 1005.04 748.344C1005.04 746.216 1002.73 745.864 1000.7 745.56ZM1013.18 742.04L1010.59 748.792L1007.98 742.04H1005.42L1008.88 751.016H1009.74L1008.43 754.424H1011.01L1015.76 742.04H1013.18ZM1020.97 745.56L1020.77 745.544C1019.2 745.304 1018.93 745.08 1018.93 744.68C1018.93 744.408 1019.21 743.912 1020.57 743.912C1021.98 743.912 1022.59 744.296 1022.59 745V745.08H1025.07V745C1025.07 743.624 1024.29 741.976 1020.57 741.976C1017.12 741.976 1016.4 743.464 1016.4 744.712C1016.4 746.504 1018 747.08 1020.57 747.416C1020.7 747.432 1020.83 747.448 1020.96 747.464C1021.93 747.576 1022.8 747.704 1022.8 748.376C1022.8 748.968 1021.87 749.096 1020.89 749.096C1019.28 749.096 1018.7 748.744 1018.7 747.976V747.896H1016.21V748.072C1016.19 748.536 1016.19 749.288 1016.81 749.912C1017.53 750.632 1018.93 751 1020.96 751C1023.71 751 1025.31 750.568 1025.31 748.344C1025.31 746.216 1023.01 745.864 1020.97 745.56ZM1029.9 744.104H1032.82V742.056H1029.9V739.464H1027.46V742.056H1026.27V744.104H1027.46V747.704C1027.46 749 1027.46 751 1029.9 751C1032.34 751 1032.82 750.84 1032.82 750.84V748.472C1030.48 748.6 1029.9 748.776 1029.9 747.48V747.288V744.104ZM1043.39 747.08H1043.48C1043.61 745.848 1043.45 743.96 1041.72 742.776V742.792C1040.97 742.264 1039.95 741.944 1038.68 741.944C1035.66 741.944 1033.87 743.544 1033.87 746.472C1033.87 749.464 1035.61 751 1038.68 751C1041.63 751 1043.2 749.816 1043.44 747.88H1041.08C1040.86 748.472 1040.14 748.872 1038.68 748.872C1037.12 748.872 1036.4 748.28 1036.22 747.08H1043.39ZM1038.68 744.072C1040.41 744.072 1040.86 744.808 1041.05 745.48H1036.32C1036.6 744.568 1037.34 744.072 1038.68 744.072ZM1057.34 742.024C1055.1 742.024 1054.38 742.552 1053.79 743.352H1053.68C1053.17 742.6 1052.26 742.024 1050.64 742.024C1049.04 742.024 1048.24 742.552 1047.66 743.352H1047.55V742.104H1045.14V751H1047.55V746.68C1047.55 745.464 1047.7 744.12 1049.79 744.12C1052 744.12 1051.97 745.816 1051.97 746.52V751H1054.38V746.632L1054.4 746.68C1054.4 745.464 1054.54 744.12 1056.64 744.12C1058.85 744.12 1058.82 745.816 1058.82 746.52V751H1061.25V746.52C1061.23 745.208 1061.14 742.024 1057.34 742.024Z" fill="#33FF00"/>
<g style="mix-blend-mode:screen" filter="url(#filter2_f_374_1532)">
<path d="M852 835.5C852 851.24 793.573 864 721.5 864C649.427 864 591 851.24 591 835.5C591 819.76 649.427 807 721.5 807C793.573 807 852 819.76 852 835.5Z" fill="#177100" fill-opacity="0.5"/>
</g>
<g style="mix-blend-mode:screen" filter="url(#filter3_f_374_1532)">
<ellipse cx="715" cy="406.5" rx="153" ry="28.5" fill="#177100" fill-opacity="0.5"/>
</g>
<g filter="url(#filter4_d_374_1532)">
<path d="M613.395 420.24L609.235 416.08C610.635 413.92 611.435 411.24 611.435 408.04C611.435 398.84 604.835 393.8 596.675 393.8C588.555 393.8 581.955 398.84 581.955 408.04C581.955 417.4 588.555 422.24 596.675 422.24C599.675 422.24 602.475 421.56 604.835 420.24L607.715 423.12L613.395 420.24ZM596.675 416.44C591.595 416.44 587.475 413.84 587.475 408.04C587.475 402.2 591.595 399.64 596.675 399.64C601.755 399.64 605.875 402.28 605.875 408.04C605.875 413.68 601.755 416.44 596.675 416.44ZM640.307 402.92C640.307 399.08 637.627 393.84 629.587 393.84C620.667 393.84 618.227 400.28 618.067 404.2C618.067 404.2 622.867 404.2 624.227 404.2C624.387 402.28 624.867 399.56 629.187 399.56C633.467 399.56 634.147 401.32 634.147 403.04C634.147 409.28 624.427 406.6 619.107 415C617.347 417.8 617.627 422 617.627 422H639.907V416.44H625.387C626.827 412.04 640.307 412.68 640.307 402.92ZM654.15 393.2L644.51 422H650.75L660.39 393.2H654.15ZM670.636 403.96C670.636 400.92 672.196 399.24 675.636 399.24C678.356 399.24 681.076 399.52 681.076 402.32C681.076 404.56 677.796 405.56 673.036 405.56C673.036 407.12 673.036 408.32 673.036 410.16C676.596 410.16 681.836 410.56 681.836 413.52C681.836 416.84 676.636 416.6 675.636 416.6C672.916 416.6 670.556 415.56 670.556 411.68C667.676 411.68 666.396 411.68 664.596 411.68C664.596 416.24 666.076 422 675.556 422C685.876 422 687.436 416.56 687.436 413.92C687.436 408.68 683.716 407.76 683.196 407.68C683.756 407.56 686.716 406.24 686.716 402.28C686.716 398.36 684.276 393.72 676.036 393.72C668.036 393.72 664.676 397.96 664.676 403.96C665.876 403.96 669.716 403.96 670.636 403.96ZM726.042 413.44V407.4H706.682V413.44H726.042ZM767.932 402.92C767.932 399.08 765.252 393.84 757.212 393.84C748.292 393.84 745.852 400.28 745.692 404.2C745.692 404.2 750.492 404.2 751.852 404.2C752.012 402.28 752.492 399.56 756.812 399.56C761.092 399.56 761.772 401.32 761.772 403.04C761.772 409.28 752.052 406.6 746.732 415C744.972 417.8 745.252 422 745.252 422H767.532V416.44H753.012C754.452 412.04 767.932 412.68 767.932 402.92ZM785.375 393.6C777.895 393.6 772.615 398.6 772.615 407.8C772.615 417.16 777.895 422 785.375 422C792.895 422 798.175 417 798.175 407.8C798.175 398.6 792.895 393.6 785.375 393.6ZM785.375 416.08C780.775 416.08 778.735 413.56 778.735 407.8C778.735 402.08 780.775 399.56 785.375 399.56C790.015 399.56 792.055 402.16 792.055 407.8C792.055 413.36 790.015 416.08 785.375 416.08ZM823.924 402.92C823.924 399.08 821.244 393.84 813.204 393.84C804.284 393.84 801.844 400.28 801.684 404.2C801.684 404.2 806.484 404.2 807.844 404.2C808.004 402.28 808.484 399.56 812.804 399.56C817.084 399.56 817.764 401.32 817.764 403.04C817.764 409.28 808.044 406.6 802.724 415C800.964 417.8 801.244 422 801.244 422H823.524V416.44H809.004C810.444 412.04 823.924 412.68 823.924 402.92ZM834.167 403.96C834.167 400.92 835.727 399.24 839.167 399.24C841.887 399.24 844.607 399.52 844.607 402.32C844.607 404.56 841.327 405.56 836.567 405.56C836.567 407.12 836.567 408.32 836.567 410.16C840.127 410.16 845.367 410.56 845.367 413.52C845.367 416.84 840.167 416.6 839.167 416.6C836.447 416.6 834.087 415.56 834.087 411.68C831.207 411.68 829.927 411.68 828.127 411.68C828.127 416.24 829.607 422 839.087 422C849.407 422 850.967 416.56 850.967 413.92C850.967 408.68 847.247 407.76 846.727 407.68C847.287 407.56 850.247 406.24 850.247 402.28C850.247 398.36 847.807 393.72 839.567 393.72C831.567 393.72 828.207 397.96 828.207 403.96C829.407 403.96 833.247 403.96 834.167 403.96Z" fill="#33FF00"/>
</g>
<path d="M654.257 816.8V816.816H653.505L651.265 825.776H651.041L648.817 816.816H648.225V816.8H644.641V828H647.073V819.664H647.313L649.441 828H652.945L655.073 819.664H655.313V828H657.745V816.8H654.257ZM664.261 818.864C661.541 818.864 659.269 820.352 659.269 823.44C659.269 826.544 661.541 828 664.261 828C666.997 828 669.269 826.592 669.269 823.44C669.269 820.32 666.997 818.864 664.261 818.864ZM664.261 825.792C662.741 825.792 661.653 825.12 661.653 823.44C661.653 821.744 662.741 821.088 664.261 821.088C665.797 821.088 666.885 821.776 666.885 823.44C666.885 825.056 665.797 825.792 664.261 825.792ZM676.05 819.024C674.498 819.024 673.954 819.488 673.442 820.352H673.298V819.024H670.866V828H673.298V823.984C673.298 822.768 673.826 821.36 675.634 821.36C676.402 821.36 677.026 821.488 677.25 821.552L677.634 819.264C677.218 819.168 676.69 819.024 676.05 819.024ZM687.749 824.08H687.845C687.973 822.848 687.813 820.96 686.085 819.776V819.792C685.333 819.264 684.309 818.944 683.045 818.944C680.021 818.944 678.229 820.544 678.229 823.472C678.229 826.464 679.973 828 683.045 828C685.989 828 687.557 826.816 687.797 824.88H685.445C685.221 825.472 684.501 825.872 683.045 825.872C681.477 825.872 680.757 825.28 680.581 824.08H687.749ZM683.045 821.072C684.773 821.072 685.221 821.808 685.413 822.48H680.677C680.965 821.568 681.701 821.072 683.045 821.072ZM703.116 822.56C703.116 823.776 703.164 825.776 700.588 825.776C698.044 825.776 697.98 824.24 697.98 822.56V816.8H695.548V822.832C695.548 824.56 695.532 828 700.604 828C705.66 828 705.66 824.368 705.66 822.848C705.66 821.312 705.66 816.8 705.66 816.8H703.116C703.116 816.8 703.116 821.344 703.116 822.56ZM710.964 821.104H713.876V819.056H710.964V816.464H708.516V819.056H707.332V821.104H708.516V824.704C708.516 826 708.516 828 710.964 828C713.396 828 713.876 827.84 713.876 827.84V825.472C711.54 825.6 710.964 825.776 710.964 824.48V824.288V821.104ZM717.751 828V819.088H715.335V828H717.751ZM717.751 818.448V816.272H715.335V818.448H717.751ZM721.911 828V816.496H719.495V828H721.911ZM726.07 828V819.088H723.654V828H726.07ZM726.07 818.448V816.272H723.654V818.448H726.07ZM731.211 821.104H734.123V819.056H731.211V816.464H728.763V819.056H727.579V821.104H728.763V824.704C728.763 826 728.763 828 731.211 828C733.643 828 734.123 827.84 734.123 827.84V825.472C731.787 825.6 731.211 825.776 731.211 824.48V824.288V821.104ZM742.951 819.04L740.359 825.792L737.751 819.04H735.191L738.647 828.016H739.511L738.199 831.424H740.775L745.527 819.04H742.951ZM758.03 818.032C758.958 818.032 760.254 818.144 760.254 818.144V816.08C760.254 816.08 758.702 815.856 757.166 815.856C755.342 815.856 754.59 816.448 754.446 819.024H753.198V821.024H754.414V828H756.846V821.024H760.094V819.024H756.878C756.942 818.224 757.182 818.032 758.03 818.032ZM765.974 818.864C763.254 818.864 760.982 820.352 760.982 823.44C760.982 826.544 763.254 828 765.974 828C768.71 828 770.982 826.592 770.982 823.44C770.982 820.32 768.71 818.864 765.974 818.864ZM765.974 825.792C764.454 825.792 763.366 825.12 763.366 823.44C763.366 821.744 764.454 821.088 765.974 821.088C767.51 821.088 768.598 821.776 768.598 823.44C768.598 825.056 767.51 825.792 765.974 825.792ZM777.763 819.024C776.211 819.024 775.667 819.488 775.155 820.352H775.011V819.024H772.579V828H775.011V823.984C775.011 822.768 775.539 821.36 777.347 821.36C778.115 821.36 778.739 821.488 778.963 821.552L779.347 819.264C778.931 819.168 778.403 819.024 777.763 819.024ZM673.473 841.544C673.473 837.8 670.481 837.8 669.137 837.8C668.481 837.8 666.705 837.816 666.113 837.816V837.8H663.681V849H666.113V845.272C666.609 845.272 668.273 845.272 668.689 845.272C668.833 845.272 669.041 845.272 669.281 845.272L671.105 849H673.745L671.601 844.712C672.609 844.184 673.473 843.48 673.473 841.544ZM668.945 843.096C668.737 843.096 666.641 843.096 666.113 843.096V839.992C666.753 839.992 668.545 839.992 668.993 839.992C669.745 839.992 671.217 839.992 671.217 841.544C671.217 843.112 669.649 843.096 668.945 843.096ZM677.867 849V840.088H675.451V849H677.867ZM677.867 839.448V837.272H675.451V839.448H677.867ZM679.532 840.04V842.264H685.276L679.532 846.712V849H688.556V846.792H682.828L688.556 842.328V840.04H679.532ZM699.118 845.08H699.214C699.342 843.848 699.182 841.96 697.454 840.776V840.792C696.702 840.264 695.678 839.944 694.414 839.944C691.39 839.944 689.598 841.544 689.598 844.472C689.598 847.464 691.342 849 694.414 849C697.358 849 698.926 847.816 699.166 845.88H696.814C696.59 846.472 695.87 846.872 694.414 846.872C692.846 846.872 692.126 846.28 691.95 845.08H699.118ZM694.414 842.072C696.142 842.072 696.59 842.808 696.782 843.48H692.046C692.334 842.568 693.07 842.072 694.414 842.072ZM710.548 842.104H713.46V840.056H710.548V837.464H708.1V840.056H706.916V842.104H708.1V845.704C708.1 847 708.1 849 710.548 849C712.98 849 713.46 848.84 713.46 848.84V846.472C711.124 846.6 710.548 846.776 710.548 845.48V845.288V842.104ZM719.474 839.864C716.754 839.864 714.482 841.352 714.482 844.44C714.482 847.544 716.754 849 719.474 849C722.21 849 724.482 847.592 724.482 844.44C724.482 841.32 722.21 839.864 719.474 839.864ZM719.474 846.792C717.954 846.792 716.866 846.12 716.866 844.44C716.866 842.744 717.954 842.088 719.474 842.088C721.01 842.088 722.098 842.776 722.098 844.44C722.098 846.056 721.01 846.792 719.474 846.792ZM735.854 840.024H732.478L728.526 843.928V837.448H726.11V848.984H728.526V847.24L730.27 845.512L732.798 849H735.822L732.046 843.784L735.854 840.024ZM744.93 845.08H745.026C745.154 843.848 744.994 841.96 743.266 840.776V840.792C742.514 840.264 741.49 839.944 740.226 839.944C737.202 839.944 735.41 841.544 735.41 844.472C735.41 847.464 737.154 849 740.226 849C743.17 849 744.738 847.816 744.978 845.88H742.626C742.402 846.472 741.682 846.872 740.226 846.872C738.658 846.872 737.938 846.28 737.762 845.08H744.93ZM740.226 842.072C741.954 842.072 742.402 842.808 742.594 843.48H737.858C738.146 842.568 738.882 842.072 740.226 842.072ZM752.012 840.024C750.396 840.024 749.58 840.552 749.004 841.352H748.892V840.024H746.46V849H748.892V844.68C748.892 843.464 749.196 842.12 751.308 842.12C753.628 842.12 753.484 843.816 753.484 844.52V849H755.9V844.52C755.9 843.208 755.804 840.024 752.012 840.024ZM761.95 843.56L761.742 843.544C760.174 843.304 759.902 843.08 759.902 842.68C759.902 842.408 760.19 841.912 761.55 841.912C762.958 841.912 763.566 842.296 763.566 843V843.08H766.046V843C766.046 841.624 765.262 839.976 761.55 839.976C758.094 839.976 757.374 841.464 757.374 842.712C757.374 844.504 758.974 845.08 761.55 845.416C761.678 845.432 761.806 845.448 761.934 845.464C762.91 845.576 763.774 845.704 763.774 846.376C763.774 846.968 762.846 847.096 761.87 847.096C760.254 847.096 759.678 846.744 759.678 845.976V845.896H757.182V846.072C757.166 846.536 757.166 847.288 757.79 847.912C758.51 848.632 759.902 849 761.934 849C764.686 849 766.286 848.568 766.286 846.344C766.286 844.216 763.982 843.864 761.95 843.56Z" fill="#33FF00"/>
<g style="mix-blend-mode:screen" filter="url(#filter5_f_374_1532)">
<ellipse cx="1000" cy="730.5" rx="141" ry="34.5" fill="#177100" fill-opacity="0.5"/>
</g>
<g style="mix-blend-mode:screen" filter="url(#filter6_f_374_1532)">
<ellipse cx="1127.5" cy="527.5" rx="117.5" ry="28.5" fill="#177100" fill-opacity="0.5"/>
</g>
<g style="mix-blend-mode:screen" filter="url(#filter7_f_374_1532)">
<ellipse cx="438" cy="736.5" rx="153" ry="28.5" fill="#177100" fill-opacity="0.5"/>
</g>
<g style="mix-blend-mode:screen" filter="url(#filter8_f_374_1532)">
<ellipse cx="307" cy="526.5" rx="119" ry="28.5" fill="#177100" fill-opacity="0.5"/>
</g>
<path d="M346.486 722.8V722.816H345.734L343.494 731.776H343.27L341.046 722.816H340.454V722.8H336.87V734H339.302V725.664H339.542L341.67 734H345.174L347.302 725.664H347.542V734H349.974V722.8H346.486ZM356.49 724.864C353.77 724.864 351.498 726.352 351.498 729.44C351.498 732.544 353.77 734 356.49 734C359.226 734 361.498 732.592 361.498 729.44C361.498 726.32 359.226 724.864 356.49 724.864ZM356.49 731.792C354.97 731.792 353.882 731.12 353.882 729.44C353.882 727.744 354.97 727.088 356.49 727.088C358.026 727.088 359.114 727.776 359.114 729.44C359.114 731.056 358.026 731.792 356.49 731.792ZM368.278 725.024C366.726 725.024 366.182 725.488 365.67 726.352H365.526V725.024H363.094V734H365.526V729.984C365.526 728.768 366.054 727.36 367.862 727.36C368.63 727.36 369.254 727.488 369.478 727.552L369.862 725.264C369.446 725.168 368.918 725.024 368.278 725.024ZM379.977 730.08H380.073C380.201 728.848 380.041 726.96 378.313 725.776V725.792C377.561 725.264 376.537 724.944 375.273 724.944C372.249 724.944 370.457 726.544 370.457 729.472C370.457 732.464 372.201 734 375.273 734C378.217 734 379.785 732.816 380.025 730.88H377.673C377.449 731.472 376.729 731.872 375.273 731.872C373.705 731.872 372.985 731.28 372.809 730.08H379.977ZM375.273 727.072C377.001 727.072 377.449 727.808 377.641 728.48H372.905C373.193 727.568 373.929 727.072 375.273 727.072ZM394.832 730.64C394.656 731.264 394.096 731.824 392.56 731.824C390.976 731.824 390.144 731.104 390.144 729.504C390.144 727.984 390.976 727.2 392.56 727.2C394.048 727.2 394.64 727.712 394.848 728.384H397.232C397.024 726.256 395.136 725.008 392.56 725.008C389.92 725.008 387.776 726.608 387.776 729.504C387.776 732.48 389.92 734 392.56 734C395.136 734 397.04 732.8 397.232 730.64H394.832ZM404.428 725.024C402.828 725.024 401.852 725.552 401.276 726.352H401.164V722.448H398.732V734H401.164V729.68C401.164 728.464 401.628 727.12 403.724 727.12C406.06 727.12 406.06 728.816 406.06 729.52V734H408.476V729.52C408.476 728.208 408.236 725.024 404.428 725.024ZM417.379 726.352C416.771 725.552 415.763 725.024 414.099 725.024C410.307 725.024 409.907 728.208 409.907 729.52C409.907 730.72 410.323 734 414.083 734C415.779 734 416.803 733.536 417.411 732.752H417.491V734H419.923V725.024H417.491V726.352H417.379ZM414.803 731.92C412.483 731.92 412.227 730.16 412.227 729.52C412.227 728.816 412.467 727.12 414.803 727.12C416.899 727.12 417.331 728.304 417.331 729.52C417.331 730.88 416.899 731.92 414.803 731.92ZM424.029 734V725.088H421.613V734H424.029ZM424.029 724.448V722.272H421.613V724.448H424.029ZM431.246 725.024C429.63 725.024 428.814 725.552 428.238 726.352H428.126V725.024H425.694V734H428.126V729.68C428.126 728.464 428.43 727.12 430.542 727.12C432.862 727.12 432.718 728.816 432.718 729.52V734H435.134V729.52C435.134 728.208 435.038 725.024 431.246 725.024ZM441.184 728.56L440.976 728.544C439.408 728.304 439.136 728.08 439.136 727.68C439.136 727.408 439.424 726.912 440.784 726.912C442.192 726.912 442.8 727.296 442.8 728V728.08H445.28V728C445.28 726.624 444.496 724.976 440.784 724.976C437.328 724.976 436.608 726.464 436.608 727.712C436.608 729.504 438.208 730.08 440.784 730.416C440.912 730.432 441.04 730.448 441.168 730.464C442.144 730.576 443.008 730.704 443.008 731.376C443.008 731.968 442.08 732.096 441.104 732.096C439.488 732.096 438.912 731.744 438.912 730.976V730.896H436.416V731.072C436.4 731.536 436.4 732.288 437.024 732.912C437.744 733.632 439.136 734 441.168 734C443.92 734 445.52 733.568 445.52 731.344C445.52 729.216 443.216 728.864 441.184 728.56ZM460.644 726.352C460.036 725.552 459.028 725.024 457.364 725.024C453.572 725.024 453.172 728.208 453.172 729.52C453.172 730.72 453.588 734 457.348 734C459.044 734 460.068 733.536 460.676 732.752H460.756V734H463.188V725.024H460.756V726.352H460.644ZM458.068 731.92C455.748 731.92 455.492 730.16 455.492 729.52C455.492 728.816 455.732 727.12 458.068 727.12C460.164 727.12 460.596 728.304 460.596 729.52C460.596 730.88 460.164 731.92 458.068 731.92ZM472.323 722.448V726.352H472.179C471.571 725.552 470.563 725.024 468.899 725.024C465.107 725.024 464.707 728.208 464.707 729.52C464.707 730.72 465.123 734 468.883 734C470.579 734 471.603 733.536 472.211 732.752H472.323V734H474.755V722.448H472.323ZM469.603 731.92C467.283 731.92 467.027 730.16 467.027 729.52C467.027 728.816 467.267 727.12 469.603 727.12C471.699 727.12 472.131 728.304 472.131 729.52C472.131 730.88 471.699 731.92 469.603 731.92ZM484.045 722.448V726.352H483.901C483.293 725.552 482.285 725.024 480.621 725.024C476.829 725.024 476.429 728.208 476.429 729.52C476.429 730.72 476.845 734 480.605 734C482.301 734 483.325 733.536 483.933 732.752H484.045V734H486.477V722.448H484.045ZM481.325 731.92C479.005 731.92 478.749 730.16 478.749 729.52C478.749 728.816 478.989 727.12 481.325 727.12C483.421 727.12 483.853 728.304 483.853 729.52C483.853 730.88 483.421 731.92 481.325 731.92ZM497.515 730.08H497.611C497.739 728.848 497.579 726.96 495.851 725.776V725.792C495.099 725.264 494.075 724.944 492.811 724.944C489.787 724.944 487.995 726.544 487.995 729.472C487.995 732.464 489.739 734 492.811 734C495.755 734 497.323 732.816 497.562 730.88H495.211C494.987 731.472 494.267 731.872 492.811 731.872C491.243 731.872 490.523 731.28 490.347 730.08H497.515ZM492.811 727.072C494.539 727.072 494.987 727.808 495.179 728.48H490.443C490.731 727.568 491.467 727.072 492.811 727.072ZM506.645 722.448V726.352H506.501C505.893 725.552 504.885 725.024 503.221 725.024C499.429 725.024 499.029 728.208 499.029 729.52C499.029 730.72 499.445 734 503.205 734C504.901 734 505.925 733.536 506.533 732.752H506.645V734H509.077V722.448H506.645ZM503.925 731.92C501.605 731.92 501.349 730.16 501.349 729.52C501.349 728.816 501.589 727.12 503.925 727.12C506.021 727.12 506.453 728.304 506.453 729.52C506.453 730.88 506.021 731.92 503.925 731.92ZM520.386 727.104H523.298V725.056H520.386V722.464H517.938V725.056H516.754V727.104H517.938V730.704C517.938 732 517.938 734 520.386 734C522.818 734 523.298 733.84 523.298 733.84V731.472C520.962 731.6 520.386 731.776 520.386 730.48V730.288V727.104ZM529.311 724.864C526.591 724.864 524.319 726.352 524.319 729.44C524.319 732.544 526.591 734 529.311 734C532.047 734 534.319 732.592 534.319 729.44C534.319 726.32 532.047 724.864 529.311 724.864ZM529.311 731.792C527.791 731.792 526.703 731.12 526.703 729.44C526.703 727.744 527.791 727.088 529.311 727.088C530.847 727.088 531.935 727.776 531.935 729.44C531.935 731.056 530.847 731.792 529.311 731.792ZM340.984 743.8V743.816H340.232L337.992 752.776H337.768L335.544 743.816H334.952V743.8H331.368V755H333.8V746.664H334.04L336.168 755H339.672L341.8 746.664H342.04V755H344.472V743.8H340.984ZM353.16 746.024V750.36C353.16 751.576 352.84 752.92 350.744 752.92C348.408 752.92 348.568 751.224 348.568 750.52V746.024H346.152V750.52C346.152 751.832 346.248 755 350.04 755C351.656 755 352.472 754.488 353.048 753.688H353.16V755H355.592V746.024H353.16ZM359.681 755V743.496H357.265V755H359.681ZM364.634 748.104H367.546V746.056H364.634V743.464H362.186V746.056H361.002V748.104H362.186V751.704C362.186 753 362.186 755 364.634 755C367.066 755 367.546 754.84 367.546 754.84V752.472C365.21 752.6 364.634 752.776 364.634 751.48V751.288V748.104ZM371.421 755V746.088H369.005V755H371.421ZM371.421 745.448V743.272H369.005V745.448H371.421ZM380.018 751.64C379.842 752.264 379.282 752.824 377.746 752.824C376.162 752.824 375.33 752.104 375.33 750.504C375.33 748.984 376.162 748.2 377.746 748.2C379.234 748.2 379.826 748.712 380.034 749.384H382.418C382.21 747.256 380.322 746.008 377.746 746.008C375.106 746.008 372.962 747.608 372.962 750.504C372.962 753.48 375.106 755 377.746 755C380.322 755 382.226 753.8 382.418 751.64H380.018ZM389.614 746.024C388.014 746.024 387.038 746.552 386.462 747.352H386.35V743.448H383.918V755H386.35V750.68C386.35 749.464 386.814 748.12 388.91 748.12C391.246 748.12 391.246 749.816 391.246 750.52V755H393.662V750.52C393.662 749.208 393.422 746.024 389.614 746.024ZM402.565 747.352C401.957 746.552 400.949 746.024 399.285 746.024C395.493 746.024 395.093 749.208 395.093 750.52C395.093 751.72 395.509 755 399.269 755C400.965 755 401.989 754.536 402.597 753.752H402.677V755H405.109V746.024H402.677V747.352H402.565ZM399.989 752.92C397.669 752.92 397.413 751.16 397.413 750.52C397.413 749.816 397.653 748.12 399.989 748.12C402.085 748.12 402.517 749.304 402.517 750.52C402.517 751.88 402.085 752.92 399.989 752.92ZM409.215 755V746.088H406.799V755H409.215ZM409.215 745.448V743.272H406.799V745.448H409.215ZM416.432 746.024C414.816 746.024 414 746.552 413.424 747.352H413.312V746.024H410.88V755H413.312V750.68C413.312 749.464 413.616 748.12 415.728 748.12C418.048 748.12 417.904 749.816 417.904 750.52V755H420.32V750.52C420.32 749.208 420.224 746.024 416.432 746.024ZM440.204 746.024C437.964 746.024 437.244 746.552 436.652 747.352H436.54C436.028 746.6 435.116 746.024 433.5 746.024C431.9 746.024 431.1 746.552 430.524 747.352H430.412V746.104H427.996V755H430.412V750.68C430.412 749.464 430.556 748.12 432.652 748.12C434.86 748.12 434.828 749.816 434.828 750.52V755H437.244V750.632L437.26 750.68C437.26 749.464 437.404 748.12 439.5 748.12C441.708 748.12 441.676 749.816 441.676 750.52V755H444.108V750.52C444.092 749.208 443.996 746.024 440.204 746.024ZM453.002 747.352C452.394 746.552 451.386 746.024 449.722 746.024C445.93 746.024 445.53 749.208 445.53 750.52C445.53 751.72 445.946 755 449.706 755C451.402 755 452.426 754.536 453.034 753.752H453.114V755H455.546V746.024H453.114V747.352H453.002ZM450.426 752.92C448.106 752.92 447.85 751.16 447.85 750.52C447.85 749.816 448.09 748.12 450.426 748.12C452.522 748.12 452.954 749.304 452.954 750.52C452.954 751.88 452.522 752.92 450.426 752.92ZM462.421 746.024C460.869 746.024 460.325 746.488 459.813 747.352H459.669V746.024H457.237V755H459.669V750.984C459.669 749.768 460.197 748.36 462.005 748.36C462.773 748.36 463.397 748.488 463.621 748.552L464.005 746.264C463.589 746.168 463.061 746.024 462.421 746.024ZM475.062 746.024H471.686L467.734 749.928V743.448H465.318V754.984H467.734V753.24L469.478 751.512L472.006 755H475.03L471.254 749.784L475.062 746.024ZM484.138 751.08H484.234C484.362 749.848 484.202 747.96 482.474 746.776V746.792C481.722 746.264 480.698 745.944 479.434 745.944C476.41 745.944 474.618 747.544 474.618 750.472C474.618 753.464 476.362 755 479.434 755C482.378 755 483.946 753.816 484.186 751.88H481.834C481.61 752.472 480.89 752.872 479.434 752.872C477.866 752.872 477.146 752.28 476.97 751.08H484.138ZM479.434 748.072C481.162 748.072 481.61 748.808 481.802 749.48H477.066C477.354 748.568 478.09 748.072 479.434 748.072ZM488.706 748.104H491.618V746.056H488.706V743.464H486.258V746.056H485.074V748.104H486.258V751.704C486.258 753 486.258 755 488.706 755C491.138 755 491.618 754.84 491.618 754.84V752.472C489.282 752.6 488.706 752.776 488.706 751.48V751.288V748.104ZM499.136 746.04C497.472 746.04 496.448 746.568 495.84 747.352H495.712V746.04H493.28V758.424H495.712V753.768H495.824C496.432 754.552 497.456 755.032 499.136 755.032C502.912 755.032 503.328 751.736 503.328 750.536C503.328 749.224 502.928 746.04 499.136 746.04ZM498.432 752.936C496.32 752.936 495.888 751.896 495.888 750.536C495.888 749.32 496.32 748.136 498.432 748.136C500.752 748.136 501.008 749.832 501.008 750.536C501.008 751.176 500.752 752.936 498.432 752.936ZM507.34 755V743.496H504.924V755H507.34ZM516.305 747.352C515.697 746.552 514.689 746.024 513.025 746.024C509.233 746.024 508.833 749.208 508.833 750.52C508.833 751.72 509.249 755 513.009 755C514.705 755 515.729 754.536 516.337 753.752H516.417V755H518.849V746.024H516.417V747.352H516.305ZM513.729 752.92C511.409 752.92 511.153 751.16 511.153 750.52C511.153 749.816 511.393 748.12 513.729 748.12C515.825 748.12 516.257 749.304 516.257 750.52C516.257 751.88 515.825 752.92 513.729 752.92ZM527.283 751.64C527.107 752.264 526.547 752.824 525.011 752.824C523.427 752.824 522.595 752.104 522.595 750.504C522.595 748.984 523.427 748.2 525.011 748.2C526.499 748.2 527.091 748.712 527.299 749.384H529.683C529.475 747.256 527.587 746.008 525.011 746.008C522.371 746.008 520.227 747.608 520.227 750.504C520.227 753.48 522.371 755 525.011 755C527.587 755 529.491 753.8 529.683 751.64H527.283ZM540.5 751.08H540.596C540.724 749.848 540.564 747.96 538.836 746.776V746.792C538.084 746.264 537.06 745.944 535.796 745.944C532.772 745.944 530.98 747.544 530.98 750.472C530.98 753.464 532.724 755 535.796 755C538.74 755 540.308 753.816 540.548 751.88H538.196C537.972 752.472 537.252 752.872 535.796 752.872C534.228 752.872 533.508 752.28 533.332 751.08H540.5ZM535.796 748.072C537.524 748.072 537.972 748.808 538.164 749.48H533.428C533.716 748.568 534.452 748.072 535.796 748.072Z" fill="#33FF00"/>
<path d="M198.505 517.216C196.633 516.912 195.977 516.688 195.977 516.096C195.977 515.552 196.409 514.88 198.297 514.88C200.617 514.88 200.953 516.032 200.953 516.8C201.817 516.8 203.513 516.8 203.513 516.8C203.513 515.104 202.649 512.672 198.297 512.672C194.633 512.672 193.465 514.496 193.465 516.08C193.465 518.128 194.969 518.816 198.329 519.312C200.521 519.632 201.289 519.776 201.289 520.528C201.289 521.392 200.521 521.824 198.681 521.824C197.225 521.824 195.737 521.552 195.737 519.872C194.361 519.872 193.737 519.872 193.241 519.872C193.241 520.944 193.225 524 198.745 524C202.025 524 203.881 523.312 203.881 520.528C203.881 518 201.017 517.632 198.505 517.216ZM208.83 517.104H211.742V515.056H208.83V512.464H206.382V515.056H205.198V517.104H206.382V520.704C206.382 522 206.382 524 208.83 524C211.262 524 211.742 523.84 211.742 523.84V521.472C209.406 521.6 208.83 521.776 208.83 520.48V520.288V517.104ZM218.432 515.024C216.88 515.024 216.336 515.488 215.824 516.352H215.68V515.024H213.248V524H215.68V519.984C215.68 518.768 216.208 517.36 218.016 517.36C218.784 517.36 219.408 517.488 219.632 517.552L220.016 515.264C219.6 515.168 219.072 515.024 218.432 515.024ZM228.238 516.352C227.63 515.552 226.622 515.024 224.958 515.024C221.166 515.024 220.766 518.208 220.766 519.52C220.766 520.72 221.182 524 224.942 524C226.638 524 227.662 523.536 228.27 522.752H228.35V524H230.782V515.024H228.35V516.352H228.238ZM225.662 521.92C223.342 521.92 223.086 520.16 223.086 519.52C223.086 518.816 223.326 517.12 225.662 517.12C227.758 517.12 228.19 518.304 228.19 519.52C228.19 520.88 227.758 521.92 225.662 521.92ZM235.792 517.104H238.704V515.056H235.792V512.464H233.344V515.056H232.16V517.104H233.344V520.704C233.344 522 233.344 524 235.792 524C238.224 524 238.704 523.84 238.704 523.84V521.472C236.368 521.6 235.792 521.776 235.792 520.48V520.288V517.104ZM249.277 520.08H249.373C249.501 518.848 249.341 516.96 247.613 515.776V515.792C246.861 515.264 245.837 514.944 244.573 514.944C241.549 514.944 239.757 516.544 239.757 519.472C239.757 522.464 241.501 524 244.573 524C247.517 524 249.085 522.816 249.325 520.88H246.973C246.749 521.472 246.029 521.872 244.573 521.872C243.005 521.872 242.285 521.28 242.109 520.08H249.277ZM244.573 517.072C246.301 517.072 246.749 517.808 246.941 518.48H242.205C242.493 517.568 243.229 517.072 244.573 517.072ZM258.329 515.12V516.448H258.185C257.577 515.648 256.569 515.12 254.905 515.12C251.113 515.12 250.713 518.304 250.713 519.616C250.713 520.832 251.129 524.112 254.889 524.112C256.585 524.112 257.609 523.632 258.217 522.864H258.329V523.504C258.329 525.152 257.593 526.224 255.945 526.224C254.041 526.224 253.625 525.296 253.561 524.816C253.161 524.816 251.785 524.816 251.145 524.816C251.145 526.144 251.929 528.32 255.961 528.32C260.425 528.32 260.761 524.992 260.761 523.136V515.12H258.329ZM255.609 522.016C253.289 522.016 253.033 520.272 253.033 519.616C253.033 518.912 253.273 517.216 255.609 517.216C257.705 517.216 258.137 518.4 258.137 519.616C258.137 520.976 257.705 522.016 255.609 522.016ZM264.851 524V515.088H262.435V524H264.851ZM264.851 514.448V512.272H262.435V514.448H264.851ZM273.447 520.64C273.271 521.264 272.711 521.824 271.175 521.824C269.591 521.824 268.759 521.104 268.759 519.504C268.759 517.984 269.591 517.2 271.175 517.2C272.663 517.2 273.255 517.712 273.463 518.384H275.847C275.639 516.256 273.751 515.008 271.175 515.008C268.535 515.008 266.391 516.608 266.391 519.504C266.391 522.48 268.535 524 271.175 524C273.751 524 275.655 522.8 275.847 520.64H273.447ZM289.363 515.04C287.699 515.04 286.675 515.568 286.067 516.352H285.939V515.04H283.507V527.424H285.939V522.768H286.051C286.659 523.552 287.683 524.032 289.363 524.032C293.139 524.032 293.555 520.736 293.555 519.536C293.555 518.224 293.155 515.04 289.363 515.04ZM288.659 521.936C286.547 521.936 286.115 520.896 286.115 519.536C286.115 518.32 286.547 517.136 288.659 517.136C290.979 517.136 291.235 518.832 291.235 519.536C291.235 520.176 290.979 521.936 288.659 521.936ZM302.279 516.352C301.671 515.552 300.663 515.024 298.999 515.024C295.207 515.024 294.807 518.208 294.807 519.52C294.807 520.72 295.223 524 298.983 524C300.679 524 301.703 523.536 302.311 522.752H302.391V524H304.823V515.024H302.391V516.352H302.279ZM299.703 521.92C297.383 521.92 297.127 520.16 297.127 519.52C297.127 518.816 297.367 517.12 299.703 517.12C301.799 517.12 302.231 518.304 302.231 519.52C302.231 520.88 301.799 521.92 299.703 521.92ZM311.697 515.024C310.145 515.024 309.601 515.488 309.089 516.352H308.945V515.024H306.513V524H308.945V519.984C308.945 518.768 309.473 517.36 311.281 517.36C312.049 517.36 312.673 517.488 312.897 517.552L313.281 515.264C312.865 515.168 312.337 515.024 311.697 515.024ZM318.18 517.104H321.092V515.056H318.18V512.464H315.732V515.056H314.548V517.104H315.732V520.704C315.732 522 315.732 524 318.18 524C320.612 524 321.092 523.84 321.092 523.84V521.472C318.756 521.6 318.18 521.776 318.18 520.48V520.288V517.104ZM328.134 515.024C326.518 515.024 325.702 515.552 325.126 516.352H325.014V515.024H322.582V524H325.014V519.68C325.014 518.464 325.318 517.12 327.43 517.12C329.75 517.12 329.606 518.816 329.606 519.52V524H332.022V519.52C332.022 518.208 331.926 515.024 328.134 515.024ZM342.933 520.08H343.029C343.157 518.848 342.997 516.96 341.269 515.776V515.792C340.517 515.264 339.493 514.944 338.229 514.944C335.205 514.944 333.413 516.544 333.413 519.472C333.413 522.464 335.157 524 338.229 524C341.173 524 342.741 522.816 342.981 520.88H340.629C340.405 521.472 339.685 521.872 338.229 521.872C336.661 521.872 335.941 521.28 335.765 520.08H342.933ZM338.229 517.072C339.957 517.072 340.405 517.808 340.597 518.48H335.861C336.149 517.568 336.885 517.072 338.229 517.072ZM347.502 517.104H350.414V515.056H347.502V512.464H345.054V515.056H343.87V517.104H345.054V520.704C345.054 522 345.054 524 347.502 524C349.934 524 350.414 523.84 350.414 523.84V521.472C348.078 521.6 347.502 521.776 347.502 520.48V520.288V517.104ZM356.359 518.56L356.151 518.544C354.583 518.304 354.311 518.08 354.311 517.68C354.311 517.408 354.599 516.912 355.959 516.912C357.367 516.912 357.975 517.296 357.975 518V518.08H360.455V518C360.455 516.624 359.671 514.976 355.959 514.976C352.503 514.976 351.783 516.464 351.783 517.712C351.783 519.504 353.383 520.08 355.959 520.416C356.087 520.432 356.215 520.448 356.343 520.464C357.319 520.576 358.183 520.704 358.183 521.376C358.183 521.968 357.255 522.096 356.279 522.096C354.663 522.096 354.087 521.744 354.087 520.976V520.896H351.591V521.072C351.575 521.536 351.575 522.288 352.199 522.912C352.919 523.632 354.311 524 356.343 524C359.095 524 360.695 523.568 360.695 521.344C360.695 519.216 358.391 518.864 356.359 518.56ZM367.697 515.024C366.097 515.024 365.121 515.552 364.545 516.352H364.433V512.448H362.001V524H364.433V519.68C364.433 518.464 364.897 517.12 366.993 517.12C369.329 517.12 369.329 518.816 369.329 519.52V524H371.745V519.52C371.745 518.208 371.505 515.024 367.697 515.024ZM375.998 524V515.088H373.582V524H375.998ZM375.998 514.448V512.272H373.582V514.448H375.998ZM383.519 515.04C381.855 515.04 380.831 515.568 380.223 516.352H380.095V515.04H377.663V527.424H380.095V522.768H380.207C380.815 523.552 381.839 524.032 383.519 524.032C387.295 524.032 387.711 520.736 387.711 519.536C387.711 518.224 387.311 515.04 383.519 515.04ZM382.815 521.936C380.703 521.936 380.271 520.896 380.271 519.536C380.271 518.32 380.703 517.136 382.815 517.136C385.135 517.136 385.391 518.832 385.391 519.536C385.391 520.176 385.135 521.936 382.815 521.936ZM393.622 518.56L393.414 518.544C391.846 518.304 391.574 518.08 391.574 517.68C391.574 517.408 391.862 516.912 393.222 516.912C394.63 516.912 395.238 517.296 395.238 518V518.08H397.718V518C397.718 516.624 396.934 514.976 393.222 514.976C389.766 514.976 389.046 516.464 389.046 517.712C389.046 519.504 390.646 520.08 393.222 520.416C393.35 520.432 393.478 520.448 393.606 520.464C394.582 520.576 395.446 520.704 395.446 521.376C395.446 521.968 394.518 522.096 393.542 522.096C391.926 522.096 391.35 521.744 391.35 520.976V520.896H388.854V521.072C388.838 521.536 388.838 522.288 389.462 522.912C390.182 523.632 391.574 524 393.606 524C396.358 524 397.958 523.568 397.958 521.344C397.958 519.216 395.654 518.864 393.622 518.56ZM254.055 537.352C253.447 536.552 252.439 536.024 250.775 536.024C246.983 536.024 246.583 539.208 246.583 540.52C246.583 541.72 246.999 545 250.759 545C252.455 545 253.479 544.536 254.087 543.752H254.167V545H256.599V536.024H254.167V537.352H254.055ZM251.479 542.92C249.159 542.92 248.903 541.16 248.903 540.52C248.903 539.816 249.143 538.12 251.479 538.12C253.575 538.12 254.007 539.304 254.007 540.52C254.007 541.88 253.575 542.92 251.479 542.92ZM263.842 536.024C262.226 536.024 261.41 536.552 260.834 537.352H260.722V536.024H258.29V545H260.722V540.68C260.722 539.464 261.026 538.12 263.138 538.12C265.458 538.12 265.314 539.816 265.314 540.52V545H267.73V540.52C267.73 539.208 267.634 536.024 263.842 536.024ZM274.954 536.024C273.338 536.024 272.522 536.552 271.946 537.352H271.834V536.024H269.402V545H271.834V540.68C271.834 539.464 272.138 538.12 274.25 538.12C276.57 538.12 276.426 539.816 276.426 540.52V545H278.842V540.52C278.842 539.208 278.746 536.024 274.954 536.024ZM285.147 535.864C282.427 535.864 280.155 537.352 280.155 540.44C280.155 543.544 282.427 545 285.147 545C287.883 545 290.155 543.592 290.155 540.44C290.155 537.32 287.883 535.864 285.147 535.864ZM285.147 542.792C283.627 542.792 282.539 542.12 282.539 540.44C282.539 538.744 283.627 538.088 285.147 538.088C286.683 538.088 287.771 538.776 287.771 540.44C287.771 542.056 286.683 542.792 285.147 542.792ZM298.62 536.024V540.36C298.62 541.576 298.3 542.92 296.204 542.92C293.868 542.92 294.028 541.224 294.028 540.52V536.024H291.612V540.52C291.612 541.832 291.708 545 295.5 545C297.116 545 297.932 544.488 298.508 543.688H298.62V545H301.052V536.024H298.62ZM308.276 536.024C306.66 536.024 305.844 536.552 305.268 537.352H305.156V536.024H302.724V545H305.156V540.68C305.156 539.464 305.46 538.12 307.572 538.12C309.892 538.12 309.748 539.816 309.748 540.52V545H312.164V540.52C312.164 539.208 312.068 536.024 308.276 536.024ZM320.611 541.64C320.435 542.264 319.875 542.824 318.339 542.824C316.755 542.824 315.923 542.104 315.923 540.504C315.923 538.984 316.755 538.2 318.339 538.2C319.827 538.2 320.419 538.712 320.627 539.384H323.011C322.803 537.256 320.915 536.008 318.339 536.008C315.699 536.008 313.555 537.608 313.555 540.504C313.555 543.48 315.699 545 318.339 545C320.915 545 322.819 543.8 323.011 541.64H320.611ZM333.829 541.08H333.925C334.053 539.848 333.893 537.96 332.165 536.776V536.792C331.413 536.264 330.389 535.944 329.125 535.944C326.101 535.944 324.309 537.544 324.309 540.472C324.309 543.464 326.053 545 329.125 545C332.069 545 333.637 543.816 333.877 541.88H331.525C331.301 542.472 330.581 542.872 329.125 542.872C327.557 542.872 326.837 542.28 326.661 541.08H333.829ZM329.125 538.072C330.853 538.072 331.301 538.808 331.493 539.48H326.757C327.045 538.568 327.781 538.072 329.125 538.072ZM342.959 533.448V537.352H342.815C342.207 536.552 341.199 536.024 339.535 536.024C335.743 536.024 335.343 539.208 335.343 540.52C335.343 541.72 335.759 545 339.519 545C341.215 545 342.239 544.536 342.847 543.752H342.959V545H345.391V533.448H342.959ZM340.239 542.92C337.919 542.92 337.663 541.16 337.663 540.52C337.663 539.816 337.903 538.12 340.239 538.12C342.335 538.12 342.767 539.304 342.767 540.52C342.767 541.88 342.335 542.92 340.239 542.92Z" fill="#33FF00"/>
<line x1="640.5" y1="1063.5" x2="553.5" y2="1063.5" stroke="#33FF00" stroke-opacity="0.5" stroke-width="19" stroke-linecap="round"/>
<line x1="9.5" y1="903.5" x2="9.5" y2="869.5" stroke="#33FF00" stroke-opacity="0.5" stroke-width="19" stroke-linecap="round"/>
<line y1="-0.5" x2="212" y2="-0.5" transform="matrix(-1 0 0 1 610 1073)" stroke="#33FF00" stroke-opacity="0.5"/>
<line y1="-0.5" x2="275" y2="-0.5" transform="matrix(-1 0 0 1 277 953)" stroke="#33FF00" stroke-opacity="0.5"/>
<line y1="-0.5" x2="53" y2="-0.5" transform="matrix(4.37113e-08 1 1 -4.37113e-08 2 900)" stroke="#33FF00" stroke-opacity="0.5"/>
<line y1="-0.5" x2="169.706" y2="-0.5" transform="matrix(-0.707107 -0.707107 -0.707107 0.707107 397 1073)" stroke="#33FF00" stroke-opacity="0.5"/>
<line x1="876.5" y1="1063.5" x2="787.5" y2="1063.5" stroke="#33FF00" stroke-opacity="0.5" stroke-width="19" stroke-linecap="round"/>
<line x1="1420.5" y1="903.5" x2="1420.5" y2="869.5" stroke="#33FF00" stroke-opacity="0.5" stroke-width="19" stroke-linecap="round"/>
<line x1="820" y1="1072.5" x2="1032" y2="1072.5" stroke="#33FF00" stroke-opacity="0.5"/>
<line x1="1153" y1="952.5" x2="1428" y2="952.5" stroke="#33FF00" stroke-opacity="0.5"/>
<line x1="1428.5" y1="900" x2="1428.5" y2="953" stroke="#33FF00" stroke-opacity="0.5"/>
<line x1="1032.65" y1="1072.65" x2="1152.65" y2="952.646" stroke="#33FF00" stroke-opacity="0.5"/>
<line x1="610" y1="154.5" x2="398" y2="154.5" stroke="#33FF00" stroke-opacity="0.5"/>
<line x1="277" y1="274.5" x2="2" y2="274.5" stroke="#33FF00" stroke-opacity="0.5"/>
<line x1="1.5" y1="327" x2="1.5" y2="274" stroke="#33FF00" stroke-opacity="0.5"/>
<line x1="9.5" y1="357.5" x2="9.5" y2="323.5" stroke="#33FF00" stroke-opacity="0.5" stroke-width="19" stroke-linecap="round"/>
<line x1="640.5" y1="163.5" x2="553.5" y2="163.5" stroke="#33FF00" stroke-opacity="0.5" stroke-width="19" stroke-linecap="round"/>
<line x1="397.354" y1="154.354" x2="277.354" y2="274.354" stroke="#33FF00" stroke-opacity="0.5"/>
<line x1="876.5" y1="163.5" x2="787.5" y2="163.5" stroke="#33FF00" stroke-opacity="0.5" stroke-width="19" stroke-linecap="round"/>
<line x1="1420.5" y1="359.5" x2="1420.5" y2="325.5" stroke="#33FF00" stroke-opacity="0.5" stroke-width="19" stroke-linecap="round"/>
<line x1="818" y1="155.5" x2="1032" y2="155.5" stroke="#33FF00" stroke-opacity="0.5"/>
<line y1="-0.5" x2="275" y2="-0.5" transform="matrix(1 0 0 -1 1153 276)" stroke="#33FF00" stroke-opacity="0.5"/>
<line y1="-0.5" x2="53" y2="-0.5" transform="matrix(-4.37113e-08 -1 -1 4.37113e-08 1428 329)" stroke="#33FF00" stroke-opacity="0.5"/>
<line y1="-0.5" x2="169.706" y2="-0.5" transform="matrix(0.707107 0.707107 0.707107 -0.707107 1033 156)" stroke="#33FF00" stroke-opacity="0.5"/>
<defs>
<filter id="filter0_f_374_1532" x="546.52" y="240.99" width="336.359" height="328.97" filterUnits="userSpaceOnUse" color-interpolation-filters="sRGB">
<feFlood flood-opacity="0" result="BackgroundImageFix"/>
<feBlend mode="normal" in="SourceGraphic" in2="BackgroundImageFix" result="shape"/>
<feGaussianBlur stdDeviation="5" result="effect1_foregroundBlur_374_1532"/>
</filter>
<filter id="filter1_d_374_1532" x="306.52" y="0.991699" width="816.359" height="808.97" filterUnits="userSpaceOnUse" color-interpolation-filters="sRGB">
<feFlood flood-opacity="0" result="BackgroundImageFix"/>
<feColorMatrix in="SourceAlpha" type="matrix" values="0 0 0 0 0 0 0 0 0 0 0 0 0 0 0 0 0 0 127 0" result="hardAlpha"/>
<feOffset/>
<feGaussianBlur stdDeviation="125"/>
<feComposite in2="hardAlpha" operator="out"/>
<feColorMatrix type="matrix" values="0 0 0 0 0.2 0 0 0 0 1 0 0 0 0 0 0 0 0 0.3 0"/>
<feBlend mode="normal" in2="BackgroundImageFix" result="effect1_dropShadow_374_1532"/>
<feBlend mode="normal" in="SourceGraphic" in2="effect1_dropShadow_374_1532" result="shape"/>
</filter>
<filter id="filter2_f_374_1532" x="512" y="728" width="419" height="215" filterUnits="userSpaceOnUse" color-interpolation-filters="sRGB">
<feFlood flood-opacity="0" result="BackgroundImageFix"/>
<feBlend mode="normal" in="SourceGraphic" in2="BackgroundImageFix" result="shape"/>
<feGaussianBlur stdDeviation="39.5" result="effect1_foregroundBlur_374_1532"/>
</filter>
<filter id="filter3_f_374_1532" x="483" y="299" width="464" height="215" filterUnits="userSpaceOnUse" color-interpolation-filters="sRGB">
<feFlood flood-opacity="0" result="BackgroundImageFix"/>
<feBlend mode="normal" in="SourceGraphic" in2="BackgroundImageFix" result="shape"/>
<feGaussianBlur stdDeviation="39.5" result="effect1_foregroundBlur_374_1532"/>
</filter>
<filter id="filter4_d_374_1532" x="577.953" y="393.2" width="277.016" height="37.9199" filterUnits="userSpaceOnUse" color-interpolation-filters="sRGB">
<feFlood flood-opacity="0" result="BackgroundImageFix"/>
<feColorMatrix in="SourceAlpha" type="matrix" values="0 0 0 0 0 0 0 0 0 0 0 0 0 0 0 0 0 0 127 0" result="hardAlpha"/>
<feOffset dy="4"/>
<feGaussianBlur stdDeviation="2"/>
<feComposite in2="hardAlpha" operator="out"/>
<feColorMatrix type="matrix" values="0 0 0 0 0 0 0 0 0 0 0 0 0 0 0 0 0 0 0.25 0"/>
<feBlend mode="normal" in2="BackgroundImageFix" result="effect1_dropShadow_374_1532"/>
<feBlend mode="normal" in="SourceGraphic" in2="effect1_dropShadow_374_1532" result="shape"/>
</filter>
<filter id="filter5_f_374_1532" x="780" y="617" width="440" height="227" filterUnits="userSpaceOnUse" color-interpolation-filters="sRGB">
<feFlood flood-opacity="0" result="BackgroundImageFix"/>
<feBlend mode="normal" in="SourceGraphic" in2="BackgroundImageFix" result="shape"/>
<feGaussianBlur stdDeviation="39.5" result="effect1_foregroundBlur_374_1532"/>
</filter>
<filter id="filter6_f_374_1532" x="931" y="420" width="393" height="215" filterUnits="userSpaceOnUse" color-interpolation-filters="sRGB">
<feFlood flood-opacity="0" result="BackgroundImageFix"/>
<feBlend mode="normal" in="SourceGraphic" in2="BackgroundImageFix" result="shape"/>
<feGaussianBlur stdDeviation="39.5" result="effect1_foregroundBlur_374_1532"/>
</filter>
<filter id="filter7_f_374_1532" x="206" y="629" width="464" height="215" filterUnits="userSpaceOnUse" color-interpolation-filters="sRGB">
<feFlood flood-opacity="0" result="BackgroundImageFix"/>
<feBlend mode="normal" in="SourceGraphic" in2="BackgroundImageFix" result="shape"/>
<feGaussianBlur stdDeviation="39.5" result="effect1_foregroundBlur_374_1532"/>
</filter>
<filter id="filter8_f_374_1532" x="109" y="419" width="396" height="215" filterUnits="userSpaceOnUse" color-interpolation-filters="sRGB">
<feFlood flood-opacity="0" result="BackgroundImageFix"/>
<feBlend mode="normal" in="SourceGraphic" in2="BackgroundImageFix" result="shape"/>
<feGaussianBlur stdDeviation="39.5" result="effect1_foregroundBlur_374_1532"/>
</filter>
</defs>
</svg>
