<svg width="1430" height="1060" viewBox="0 0 1430 1060" fill="none" xmlns="http://www.w3.org/2000/svg">
<g filter="url(#filter0_d_374_1533)">
<path d="M826.548 514.712C888.32 454.382 888.32 356.567 826.548 296.237C764.775 235.907 664.622 235.907 602.849 296.237C541.077 356.567 541.077 454.382 602.849 514.712C664.622 575.042 764.775 575.042 826.548 514.712Z" fill="#444444"/>
<path d="M825.475 297.285C886.654 357.037 886.654 453.913 825.475 513.664C764.295 573.415 665.102 573.415 603.922 513.664C542.742 453.913 542.742 357.037 603.922 297.285C665.102 237.534 764.295 237.534 825.475 297.285Z" stroke="#33FF00" stroke-width="3"/>
</g>
<g filter="url(#filter1_d_374_1533)">
<path d="M612.469 419.715L608.309 415.555C609.709 413.395 610.509 410.715 610.509 407.515C610.509 398.315 603.909 393.275 595.749 393.275C587.629 393.275 581.029 398.315 581.029 407.515C581.029 416.875 587.629 421.715 595.749 421.715C598.749 421.715 601.549 421.035 603.909 419.715L606.789 422.595L612.469 419.715ZM595.749 415.915C590.669 415.915 586.549 413.315 586.549 407.515C586.549 401.675 590.669 399.115 595.749 399.115C600.829 399.115 604.949 401.755 604.949 407.515C604.949 413.155 600.829 415.915 595.749 415.915ZM622.741 403.435C622.741 400.395 624.301 398.715 627.741 398.715C630.461 398.715 633.181 398.995 633.181 401.795C633.181 404.035 629.901 405.035 625.141 405.035C625.141 406.595 625.141 407.795 625.141 409.635C628.701 409.635 633.941 410.035 633.941 412.995C633.941 416.315 628.741 416.075 627.741 416.075C625.021 416.075 622.661 415.035 622.661 411.155C619.781 411.155 618.501 411.155 616.701 411.155C616.701 415.715 618.181 421.475 627.661 421.475C637.981 421.475 639.541 416.035 639.541 413.395C639.541 408.155 635.821 407.235 635.301 407.155C635.861 407.035 638.821 405.715 638.821 401.755C638.821 397.835 636.381 393.195 628.141 393.195C620.141 393.195 616.781 397.435 616.781 403.435C617.981 403.435 621.821 403.435 622.741 403.435ZM653.419 392.675L643.779 421.475H650.019L659.659 392.675H653.419ZM679.553 411.435V393.515H669.833L658.553 411.275V416.795H673.473V421.475H679.553V416.795H684.313V411.435H679.553ZM664.713 411.435L672.833 398.795H673.473V411.435H664.713ZM722.967 412.915V406.875H703.607V412.915H722.967ZM764.858 402.395C764.858 398.555 762.178 393.315 754.138 393.315C745.218 393.315 742.778 399.755 742.618 403.675C742.618 403.675 747.418 403.675 748.778 403.675C748.938 401.755 749.418 399.035 753.738 399.035C758.018 399.035 758.698 400.795 758.698 402.515C758.698 408.755 748.978 406.075 743.658 414.475C741.898 417.275 742.178 421.475 742.178 421.475H764.458V415.915H749.938C751.378 411.515 764.858 412.155 764.858 402.395ZM782.3 393.075C774.82 393.075 769.54 398.075 769.54 407.275C769.54 416.635 774.82 421.475 782.3 421.475C789.82 421.475 795.1 416.475 795.1 407.275C795.1 398.075 789.82 393.075 782.3 393.075ZM782.3 415.555C777.7 415.555 775.66 413.035 775.66 407.275C775.66 401.555 777.7 399.035 782.3 399.035C786.94 399.035 788.98 401.635 788.98 407.275C788.98 412.835 786.94 415.555 782.3 415.555ZM820.85 402.395C820.85 398.555 818.17 393.315 810.13 393.315C801.21 393.315 798.77 399.755 798.61 403.675C798.61 403.675 803.41 403.675 804.77 403.675C804.93 401.755 805.41 399.035 809.73 399.035C814.01 399.035 814.69 400.795 814.69 402.515C814.69 408.755 804.97 406.075 799.65 414.475C797.89 417.275 798.17 421.475 798.17 421.475H820.45V415.915H805.93C807.37 411.515 820.85 412.155 820.85 402.395ZM831.093 403.435C831.093 400.395 832.653 398.715 836.093 398.715C838.813 398.715 841.533 398.995 841.533 401.795C841.533 404.035 838.253 405.035 833.493 405.035C833.493 406.595 833.493 407.795 833.493 409.635C837.053 409.635 842.293 410.035 842.293 412.995C842.293 416.315 837.093 416.075 836.093 416.075C833.373 416.075 831.013 415.035 831.013 411.155C828.133 411.155 826.853 411.155 825.053 411.155C825.053 415.715 826.533 421.475 836.013 421.475C846.333 421.475 847.893 416.035 847.893 413.395C847.893 408.155 844.173 407.235 843.653 407.155C844.213 407.035 847.173 405.715 847.173 401.755C847.173 397.835 844.733 393.195 836.493 393.195C828.493 393.195 825.133 397.435 825.133 403.435C826.333 403.435 830.173 403.435 831.093 403.435Z" fill="#33FF00"/>
</g>
<g style="mix-blend-mode:screen" filter="url(#filter2_f_374_1533)">
<ellipse cx="715" cy="406.975" rx="153" ry="28.5" fill="#177100" fill-opacity="0.5"/>
</g>
<path d="M521.771 532.421C499.43 497.704 486.5 456.628 486.5 412.586" stroke="#00A651" stroke-width="2" stroke-miterlimit="10"/>
<path d="M624.185 618.911C581.851 600.665 546.189 570.352 521.777 532.422" stroke="#33FF00" stroke-width="5" stroke-miterlimit="10"/>
<path d="M811.67 618.349C782.865 630.977 750.907 637.988 717.292 637.988C683.678 637.988 652.663 631.179 624.18 618.888" stroke="#00A651" stroke-width="6" stroke-miterlimit="10"/>
<path d="M910.997 535.208C886.884 571.453 852.419 600.507 811.672 618.372" stroke="#33FF00" stroke-width="5" stroke-miterlimit="10"/>
<path d="M948.089 412.586C948.089 457.797 934.468 499.907 911 535.185" stroke="#00A651" stroke-width="5" stroke-miterlimit="10"/>
<path d="M956.608 406.718C956.608 411.066 953.014 414.571 948.554 414.571C944.095 414.571 940.5 411.066 940.5 406.718C940.5 402.371 944.095 398.866 948.554 398.866C953.014 398.866 956.608 402.371 956.608 406.718Z" fill="white" stroke="#00A651" stroke-miterlimit="10"/>
<path d="M492.411 412.653C492.411 415.911 489.696 418.563 486.36 418.563C483.023 418.563 480.309 415.911 480.309 412.653C480.309 409.395 483.023 406.743 486.36 406.743C489.696 406.743 492.411 409.395 492.411 412.653Z" fill="#00A651"/>
<path d="M919.282 535.229C919.282 539.678 915.601 543.273 911.045 543.273C906.49 543.273 902.809 539.678 902.809 535.229C902.809 530.78 906.49 527.185 911.045 527.185C915.601 527.185 919.282 530.78 919.282 535.229Z" fill="white" stroke="#33FF00" stroke-miterlimit="10"/>
<path d="M530.715 536.375C530.715 540.105 527.632 543.116 523.812 543.116C519.993 543.116 516.91 540.105 516.91 536.375C516.91 532.645 519.993 529.634 523.812 529.634C527.632 529.634 530.715 532.645 530.715 536.375Z" fill="white" stroke="#00A651" stroke-width="1.5" stroke-miterlimit="10"/>
<path d="M822.39 618.371C822.39 623.966 817.742 628.505 812.013 628.505C806.284 628.505 801.637 623.966 801.637 618.371C801.637 612.775 806.284 608.236 812.013 608.236C817.742 608.236 822.39 612.775 822.39 618.371Z" fill="white" stroke="#00A651" stroke-width="1.26" stroke-miterlimit="10"/>
<path d="M632.709 618.371C632.709 622.91 628.936 626.595 624.288 626.595C619.64 626.595 615.867 622.91 615.867 618.371C615.867 613.832 619.64 610.146 624.288 610.146C628.936 610.146 632.709 613.832 632.709 618.371Z" fill="white" stroke="#33FF00" stroke-width="1.62" stroke-miterlimit="10"/>
<g filter="url(#filter3_d_374_1533)">
<path d="M716.539 711.732C693.623 711.732 671.305 709.26 649.839 704.586C637.07 701.8 624.185 708.833 619.722 720.855L553.183 900.102C547.984 914.079 556.059 929.516 570.738 933.449C617.191 945.83 666.06 952.459 716.516 952.459C766.972 952.459 815.863 945.83 862.293 933.449C876.995 929.539 885.048 914.102 879.871 900.102L813.333 720.855C808.869 708.833 795.985 701.8 783.215 704.586C761.749 709.26 739.432 711.732 716.516 711.732H716.539Z" fill="#444444"/>
</g>
<g filter="url(#filter4_d_374_1533)">
<path d="M449.221 607.483L285.037 710.51C272.153 718.599 269.093 735.699 278.388 747.564C333.077 817.402 404.816 873.803 487.575 910.835C501.495 917.059 517.899 910.363 523.122 896.297L589.661 717.071C594.17 704.937 588.671 691.522 576.937 685.59C541.068 667.434 509.34 642.559 483.503 612.673C474.967 602.809 460.357 600.517 449.221 607.505V607.483Z" fill="#444444"/>
</g>
<g filter="url(#filter5_d_374_1533)">
<path d="M845.047 710.276L911.585 889.501C916.808 903.567 933.213 910.263 947.132 904.039C1029.87 867.008 1101.63 810.607 1156.32 740.768C1165.61 728.904 1162.55 711.804 1149.67 703.714L985.486 600.687C974.374 593.698 959.741 595.99 951.205 605.855C925.367 635.763 893.662 660.638 857.77 678.772C846.036 684.704 840.537 698.119 845.047 710.253V710.276Z" fill="#444444"/>
</g>
<g filter="url(#filter6_d_374_1533)">
<path d="M1020.7 451.818C1016.53 483.344 1007.35 513.343 993.937 541.004C988.277 552.689 992.188 566.665 1003.35 573.676L1167.55 676.704C1180.39 684.748 1197.56 680.456 1204.76 667.311C1239.57 603.742 1261.72 532.555 1267.91 456.964C1269.13 442.088 1257.1 429.348 1241.8 429.348H1046.67C1033.44 429.348 1022.4 438.988 1020.7 451.796V451.818Z" fill="#444444"/>
</g>
<g filter="url(#filter7_d_374_1533)">
<path d="M386.328 430.274H191.199C175.922 430.274 163.866 443.015 165.085 457.891C171.297 533.459 193.431 604.646 228.241 668.238C235.443 681.383 252.607 685.675 265.445 677.63L429.652 574.603C440.811 567.614 444.722 553.638 439.062 541.931C425.648 514.269 416.468 484.271 412.304 452.745C410.624 439.937 399.558 430.297 386.328 430.297V430.274Z" fill="#444444"/>
</g>
<g style="mix-blend-mode:screen" filter="url(#filter8_f_374_1533)">
<path d="M1112 722.975C1112 738.715 1059.62 751.475 995 751.475C930.383 751.475 878 738.715 878 722.975C878 707.234 930.383 694.475 995 694.475C1059.62 694.475 1112 707.234 1112 722.975Z" fill="#177100" fill-opacity="0.5"/>
</g>
<path d="M929.064 725.475V714.275H926.632V725.475H929.064ZM936.297 716.499C934.681 716.499 933.865 717.027 933.289 717.827H933.177V716.499H930.745V725.475H933.177V721.155C933.177 719.939 933.481 718.595 935.593 718.595C937.913 718.595 937.769 720.291 937.769 720.995V725.475H940.185V720.995C940.185 719.683 940.089 716.499 936.297 716.499ZM944.942 718.579H947.854V716.531H944.942V713.939H942.494V716.531H941.31V718.579H942.494V722.179C942.494 723.475 942.494 725.475 944.942 725.475C947.374 725.475 947.854 725.315 947.854 725.315V722.947C945.518 723.075 944.942 723.251 944.942 721.955V721.763V718.579ZM954.544 716.499C952.992 716.499 952.448 716.963 951.936 717.827H951.792V716.499H949.36V725.475H951.792V721.459C951.792 720.243 952.32 718.835 954.128 718.835C954.896 718.835 955.52 718.963 955.744 719.027L956.128 716.739C955.712 716.643 955.184 716.499 954.544 716.499ZM961.668 716.339C958.948 716.339 956.676 717.827 956.676 720.915C956.676 724.019 958.948 725.475 961.668 725.475C964.404 725.475 966.676 724.067 966.676 720.915C966.676 717.795 964.404 716.339 961.668 716.339ZM961.668 723.267C960.148 723.267 959.06 722.595 959.06 720.915C959.06 719.219 960.148 718.563 961.668 718.563C963.204 718.563 964.292 719.251 964.292 720.915C964.292 722.531 963.204 723.267 961.668 723.267ZM975.733 713.923V717.827H975.589C974.981 717.027 973.973 716.499 972.309 716.499C968.517 716.499 968.117 719.683 968.117 720.995C968.117 722.195 968.533 725.475 972.293 725.475C973.989 725.475 975.013 725.011 975.621 724.227H975.733V725.475H978.165V713.923H975.733ZM973.013 723.395C970.693 723.395 970.437 721.635 970.437 720.995C970.437 720.291 970.677 718.595 973.013 718.595C975.109 718.595 975.541 719.779 975.541 720.995C975.541 722.355 975.109 723.395 973.013 723.395ZM986.847 716.499V720.835C986.847 722.051 986.527 723.395 984.431 723.395C982.095 723.395 982.255 721.699 982.255 720.995V716.499H979.839V720.995C979.839 722.307 979.935 725.475 983.727 725.475C985.343 725.475 986.159 724.963 986.735 724.163H986.847V725.475H989.279V716.499H986.847ZM997.851 722.115C997.675 722.739 997.115 723.299 995.579 723.299C993.995 723.299 993.163 722.579 993.163 720.979C993.163 719.459 993.995 718.675 995.579 718.675C997.067 718.675 997.659 719.187 997.867 719.859H1000.25C1000.04 717.731 998.155 716.483 995.579 716.483C992.939 716.483 990.795 718.083 990.795 720.979C990.795 723.955 992.939 725.475 995.579 725.475C998.155 725.475 1000.06 724.275 1000.25 722.115H997.851ZM1011.07 721.555H1011.16C1011.29 720.323 1011.13 718.435 1009.4 717.251V717.267C1008.65 716.739 1007.63 716.419 1006.36 716.419C1003.34 716.419 1001.55 718.019 1001.55 720.947C1001.55 723.939 1003.29 725.475 1006.36 725.475C1009.31 725.475 1010.88 724.291 1011.12 722.355H1008.76C1008.54 722.947 1007.82 723.347 1006.36 723.347C1004.8 723.347 1004.08 722.755 1003.9 721.555H1011.07ZM1006.36 718.547C1008.09 718.547 1008.54 719.283 1008.73 719.955H1004C1004.28 719.043 1005.02 718.547 1006.36 718.547ZM1031.07 716.499C1028.83 716.499 1028.11 717.027 1027.52 717.827H1027.41C1026.9 717.075 1025.99 716.499 1024.37 716.499C1022.77 716.499 1021.97 717.027 1021.39 717.827H1021.28V716.579H1018.87V725.475H1021.28V721.155C1021.28 719.939 1021.43 718.595 1023.52 718.595C1025.73 718.595 1025.7 720.291 1025.7 720.995V725.475H1028.11V721.107L1028.13 721.155C1028.13 719.939 1028.27 718.595 1030.37 718.595C1032.58 718.595 1032.55 720.291 1032.55 720.995V725.475H1034.98V720.995C1034.96 719.683 1034.87 716.499 1031.07 716.499ZM1041.35 716.339C1038.63 716.339 1036.35 717.827 1036.35 720.915C1036.35 724.019 1038.63 725.475 1041.35 725.475C1044.08 725.475 1046.35 724.067 1046.35 720.915C1046.35 717.795 1044.08 716.339 1041.35 716.339ZM1041.35 723.267C1039.83 723.267 1038.74 722.595 1038.74 720.915C1038.74 719.219 1039.83 718.563 1041.35 718.563C1042.88 718.563 1043.97 719.251 1043.97 720.915C1043.97 722.531 1042.88 723.267 1041.35 723.267ZM1053.14 716.499C1051.58 716.499 1051.04 716.963 1050.53 717.827H1050.38V716.499H1047.95V725.475H1050.38V721.459C1050.38 720.243 1050.91 718.835 1052.72 718.835C1053.49 718.835 1054.11 718.963 1054.34 719.027L1054.72 716.739C1054.3 716.643 1053.78 716.499 1053.14 716.499ZM1064.83 721.555H1064.93C1065.06 720.323 1064.9 718.435 1063.17 717.251V717.267C1062.42 716.739 1061.39 716.419 1060.13 716.419C1057.11 716.419 1055.31 718.019 1055.31 720.947C1055.31 723.939 1057.06 725.475 1060.13 725.475C1063.07 725.475 1064.64 724.291 1064.88 722.355H1062.53C1062.31 722.947 1061.59 723.347 1060.13 723.347C1058.56 723.347 1057.84 722.755 1057.67 721.555H1064.83ZM1060.13 718.547C1061.86 718.547 1062.31 719.283 1062.5 719.955H1057.76C1058.05 719.043 1058.79 718.547 1060.13 718.547ZM928.01 737.515C926.346 737.515 925.322 738.043 924.714 738.827H924.586V737.515H922.154V749.899H924.586V745.243H924.698C925.306 746.027 926.33 746.507 928.01 746.507C931.786 746.507 932.202 743.211 932.202 742.011C932.202 740.699 931.802 737.515 928.01 737.515ZM927.306 744.411C925.194 744.411 924.762 743.371 924.762 742.011C924.762 740.795 925.194 739.611 927.306 739.611C929.626 739.611 929.882 741.307 929.882 742.011C929.882 742.651 929.626 744.411 927.306 744.411ZM938.556 737.339C935.836 737.339 933.564 738.827 933.564 741.915C933.564 745.019 935.836 746.475 938.556 746.475C941.292 746.475 943.564 745.067 943.564 741.915C943.564 738.795 941.292 737.339 938.556 737.339ZM938.556 744.267C937.036 744.267 935.948 743.595 935.948 741.915C935.948 740.219 937.036 739.563 938.556 739.563C940.092 739.563 941.18 740.251 941.18 741.915C941.18 743.531 940.092 744.267 938.556 744.267ZM952.62 734.923V738.827H952.476C951.868 738.027 950.86 737.499 949.196 737.499C945.404 737.499 945.004 740.683 945.004 741.995C945.004 743.195 945.42 746.475 949.18 746.475C950.876 746.475 951.9 746.011 952.508 745.227H952.62V746.475H955.052V734.923H952.62ZM949.9 744.395C947.58 744.395 947.324 742.635 947.324 741.995C947.324 741.291 947.564 739.595 949.9 739.595C951.996 739.595 952.428 740.779 952.428 741.995C952.428 743.355 951.996 744.395 949.9 744.395ZM963.704 743.115C963.528 743.739 962.968 744.299 961.432 744.299C959.848 744.299 959.016 743.579 959.016 741.979C959.016 740.459 959.848 739.675 961.432 739.675C962.92 739.675 963.512 740.187 963.72 740.859H966.104C965.896 738.731 964.008 737.483 961.432 737.483C958.792 737.483 956.648 739.083 956.648 741.979C956.648 744.955 958.792 746.475 961.432 746.475C964.008 746.475 965.912 745.275 966.104 743.115H963.704ZM974.873 738.827C974.265 738.027 973.257 737.499 971.593 737.499C967.801 737.499 967.401 740.683 967.401 741.995C967.401 743.195 967.817 746.475 971.577 746.475C973.273 746.475 974.297 746.011 974.905 745.227H974.985V746.475H977.417V737.499H974.985V738.827H974.873ZM972.297 744.395C969.977 744.395 969.721 742.635 969.721 741.995C969.721 741.291 969.961 739.595 972.297 739.595C974.393 739.595 974.825 740.779 974.825 741.995C974.825 743.355 974.393 744.395 972.297 744.395ZM983.5 741.035L983.292 741.019C981.724 740.779 981.452 740.555 981.452 740.155C981.452 739.883 981.74 739.387 983.1 739.387C984.508 739.387 985.116 739.771 985.116 740.475V740.555H987.596V740.475C987.596 739.099 986.812 737.451 983.1 737.451C979.644 737.451 978.924 738.939 978.924 740.187C978.924 741.979 980.524 742.555 983.1 742.891C983.228 742.907 983.356 742.923 983.484 742.939C984.46 743.051 985.324 743.179 985.324 743.851C985.324 744.443 984.396 744.571 983.42 744.571C981.804 744.571 981.228 744.219 981.228 743.451V743.371H978.732V743.547C978.716 744.011 978.716 744.763 979.34 745.387C980.06 746.107 981.452 746.475 983.484 746.475C986.236 746.475 987.836 746.043 987.836 743.819C987.836 741.691 985.532 741.339 983.5 741.035ZM992.43 739.579H995.342V737.531H992.43V734.939H989.982V737.531H988.798V739.579H989.982V743.179C989.982 744.475 989.982 746.475 992.43 746.475C994.862 746.475 995.342 746.315 995.342 746.315V743.947C993.006 744.075 992.43 744.251 992.43 742.955V742.763V739.579ZM1001.29 741.035L1001.08 741.019C999.512 740.779 999.24 740.555 999.24 740.155C999.24 739.883 999.528 739.387 1000.89 739.387C1002.3 739.387 1002.9 739.771 1002.9 740.475V740.555H1005.38V740.475C1005.38 739.099 1004.6 737.451 1000.89 737.451C997.432 737.451 996.712 738.939 996.712 740.187C996.712 741.979 998.312 742.555 1000.89 742.891C1001.02 742.907 1001.14 742.923 1001.27 742.939C1002.25 743.051 1003.11 743.179 1003.11 743.851C1003.11 744.443 1002.18 744.571 1001.21 744.571C999.592 744.571 999.016 744.219 999.016 743.451V743.371H996.52V743.547C996.504 744.011 996.504 744.763 997.128 745.387C997.848 746.107 999.24 746.475 1001.27 746.475C1004.02 746.475 1005.62 746.043 1005.62 743.819C1005.62 741.691 1003.32 741.339 1001.29 741.035ZM1016.92 739.579H1019.84V737.531H1016.92V734.939H1014.48V737.531H1013.29V739.579H1014.48V743.179C1014.48 744.475 1014.48 746.475 1016.92 746.475C1019.36 746.475 1019.84 746.315 1019.84 746.315V743.947C1017.5 744.075 1016.92 744.251 1016.92 742.955V742.763V739.579ZM1025.85 737.339C1023.13 737.339 1020.86 738.827 1020.86 741.915C1020.86 745.019 1023.13 746.475 1025.85 746.475C1028.59 746.475 1030.86 745.067 1030.86 741.915C1030.86 738.795 1028.59 737.339 1025.85 737.339ZM1025.85 744.267C1024.33 744.267 1023.24 743.595 1023.24 741.915C1023.24 740.219 1024.33 739.563 1025.85 739.563C1027.39 739.563 1028.47 740.251 1028.47 741.915C1028.47 743.531 1027.39 744.267 1025.85 744.267ZM1040.97 735.275H1038.54V746.475H1047.74V744.283H1040.97V735.275ZM1051.86 735.275H1049.43V746.475H1058.63V744.283H1051.86V735.275ZM1060.21 735.275V746.475H1062.65H1069.41V744.251H1062.65V741.979H1069.41V739.787H1062.65V737.483H1069.41V735.275H1060.21ZM968.585 762.035L968.377 762.019C966.809 761.779 966.537 761.555 966.537 761.155C966.537 760.883 966.825 760.387 968.185 760.387C969.593 760.387 970.201 760.771 970.201 761.475V761.555H972.681V761.475C972.681 760.099 971.897 758.451 968.185 758.451C964.729 758.451 964.009 759.939 964.009 761.187C964.009 762.979 965.609 763.555 968.185 763.891C968.313 763.907 968.441 763.923 968.569 763.939C969.545 764.051 970.409 764.179 970.409 764.851C970.409 765.443 969.481 765.571 968.505 765.571C966.889 765.571 966.313 765.219 966.313 764.451V764.371H963.817V764.547C963.801 765.011 963.801 765.763 964.425 766.387C965.145 767.107 966.537 767.475 968.569 767.475C971.321 767.475 972.921 767.043 972.921 764.819C972.921 762.691 970.617 762.339 968.585 762.035ZM983.746 763.555H983.842C983.97 762.323 983.81 760.435 982.082 759.251V759.267C981.33 758.739 980.306 758.419 979.042 758.419C976.018 758.419 974.226 760.019 974.226 762.947C974.226 765.939 975.97 767.475 979.042 767.475C981.986 767.475 983.554 766.291 983.794 764.355H981.442C981.218 764.947 980.498 765.347 979.042 765.347C977.474 765.347 976.754 764.755 976.578 763.555H983.746ZM979.042 760.547C980.77 760.547 981.218 761.283 981.41 761.955H976.674C976.962 761.043 977.698 760.547 979.042 760.547ZM992.363 764.115C992.187 764.739 991.627 765.299 990.091 765.299C988.507 765.299 987.675 764.579 987.675 762.979C987.675 761.459 988.507 760.675 990.091 760.675C991.579 760.675 992.171 761.187 992.379 761.859H994.763C994.555 759.731 992.667 758.483 990.091 758.483C987.451 758.483 985.307 760.083 985.307 762.979C985.307 765.955 987.451 767.475 990.091 767.475C992.667 767.475 994.571 766.275 994.763 764.115H992.363ZM999.364 760.579H1002.28V758.531H999.364V755.939H996.916V758.531H995.732V760.579H996.916V764.179C996.916 765.475 996.916 767.475 999.364 767.475C1001.8 767.475 1002.28 767.315 1002.28 767.315V764.947C999.94 765.075 999.364 765.251 999.364 763.955V763.763V760.579ZM1006.15 767.475V758.563H1003.74V767.475H1006.15ZM1006.15 757.923V755.747H1003.74V757.923H1006.15ZM1012.65 758.339C1009.93 758.339 1007.66 759.827 1007.66 762.915C1007.66 766.019 1009.93 767.475 1012.65 767.475C1015.39 767.475 1017.66 766.067 1017.66 762.915C1017.66 759.795 1015.39 758.339 1012.65 758.339ZM1012.65 765.267C1011.13 765.267 1010.04 764.595 1010.04 762.915C1010.04 761.219 1011.13 760.563 1012.65 760.563C1014.19 760.563 1015.28 761.251 1015.28 762.915C1015.28 764.531 1014.19 765.267 1012.65 765.267ZM1024.68 758.499C1023.07 758.499 1022.25 759.027 1021.68 759.827H1021.56V758.499H1019.13V767.475H1021.56V763.155C1021.56 761.939 1021.87 760.595 1023.98 760.595C1026.3 760.595 1026.16 762.291 1026.16 762.995V767.475H1028.57V762.995C1028.57 761.683 1028.48 758.499 1024.68 758.499Z" fill="#33FF00"/>
<g style="mix-blend-mode:screen" filter="url(#filter9_f_374_1533)">
<path d="M426 543.975C426 559.715 373.617 572.475 309 572.475C244.383 572.475 192 559.715 192 543.975C192 528.234 244.383 515.475 309 515.475C373.617 515.475 426 528.234 426 543.975Z" fill="#177100" fill-opacity="0.5"/>
</g>
<path d="M235.791 520.975V520.99H235.086L232.986 529.39H232.776L230.691 520.99H230.136V520.975H226.776V531.475H229.056V523.66H229.281L231.276 531.475H234.561L236.556 523.66H236.781V531.475H239.061V520.975H235.791ZM242.901 531.475V523.12H240.636V531.475H242.901ZM242.901 522.52V520.48H240.636V522.52H242.901ZM249.668 523.06C248.153 523.06 247.388 523.555 246.848 524.305H246.743V523.06H244.463V531.475H246.743V527.425C246.743 526.285 247.028 525.025 249.008 525.025C251.183 525.025 251.048 526.615 251.048 527.275V531.475H253.313V527.275C253.313 526.045 253.223 523.06 249.668 523.06ZM261.801 520.645V524.305H261.666C261.096 523.555 260.151 523.06 258.591 523.06C255.036 523.06 254.661 526.045 254.661 527.275C254.661 528.4 255.051 531.475 258.576 531.475C260.166 531.475 261.126 531.04 261.696 530.305H261.801V531.475H264.081V520.645H261.801ZM259.251 529.525C257.076 529.525 256.836 527.875 256.836 527.275C256.836 526.615 257.061 525.025 259.251 525.025C261.216 525.025 261.621 526.135 261.621 527.275C261.621 528.55 261.216 529.525 259.251 529.525ZM278.418 520.645V524.305H278.283C277.713 523.555 276.768 523.06 275.208 523.06C271.653 523.06 271.278 526.045 271.278 527.275C271.278 528.4 271.668 531.475 275.193 531.475C276.783 531.475 277.743 531.04 278.313 530.305H278.418V531.475H280.698V520.645H278.418ZM275.868 529.525C273.693 529.525 273.453 527.875 273.453 527.275C273.453 526.615 273.678 525.025 275.868 525.025C277.833 525.025 278.238 526.135 278.238 527.275C278.238 528.55 277.833 529.525 275.868 529.525ZM291.046 527.8H291.136C291.256 526.645 291.106 524.875 289.486 523.765V523.78C288.781 523.285 287.821 522.985 286.636 522.985C283.801 522.985 282.121 524.485 282.121 527.23C282.121 530.035 283.756 531.475 286.636 531.475C289.396 531.475 290.866 530.365 291.091 528.55H288.886C288.676 529.105 288.001 529.48 286.636 529.48C285.166 529.48 284.491 528.925 284.326 527.8H291.046ZM286.636 524.98C288.256 524.98 288.676 525.67 288.856 526.3H284.416C284.686 525.445 285.376 524.98 286.636 524.98ZM298.809 523.12L296.349 529.45H296.124L293.664 523.12H291.264L294.504 531.475H297.984L301.224 523.12H298.809ZM310.388 527.8H310.478C310.598 526.645 310.448 524.875 308.828 523.765V523.78C308.123 523.285 307.163 522.985 305.978 522.985C303.143 522.985 301.463 524.485 301.463 527.23C301.463 530.035 303.098 531.475 305.978 531.475C308.738 531.475 310.208 530.365 310.433 528.55H308.228C308.018 529.105 307.343 529.48 305.978 529.48C304.508 529.48 303.833 528.925 303.668 527.8H310.388ZM305.978 524.98C307.598 524.98 308.018 525.67 308.198 526.3H303.758C304.028 525.445 304.718 524.98 305.978 524.98ZM314.189 531.475V520.69H311.924V531.475H314.189ZM320.328 522.91C317.778 522.91 315.648 524.305 315.648 527.2C315.648 530.11 317.778 531.475 320.328 531.475C322.893 531.475 325.023 530.155 325.023 527.2C325.023 524.275 322.893 522.91 320.328 522.91ZM320.328 529.405C318.903 529.405 317.883 528.775 317.883 527.2C317.883 525.61 318.903 524.995 320.328 524.995C321.768 524.995 322.788 525.64 322.788 527.2C322.788 528.715 321.768 529.405 320.328 529.405ZM331.922 523.075C330.362 523.075 329.402 523.57 328.832 524.305H328.712V523.075H326.432V534.685H328.712V530.32H328.817C329.387 531.055 330.347 531.505 331.922 531.505C335.462 531.505 335.852 528.415 335.852 527.29C335.852 526.06 335.477 523.075 331.922 523.075ZM331.262 529.54C329.282 529.54 328.877 528.565 328.877 527.29C328.877 526.15 329.282 525.04 331.262 525.04C333.437 525.04 333.677 526.63 333.677 527.29C333.677 527.89 333.437 529.54 331.262 529.54ZM348.647 523.06C346.547 523.06 345.872 523.555 345.317 524.305H345.212C344.732 523.6 343.877 523.06 342.362 523.06C340.862 523.06 340.112 523.555 339.572 524.305H339.467V523.135H337.202V531.475H339.467V527.425C339.467 526.285 339.602 525.025 341.567 525.025C343.637 525.025 343.607 526.615 343.607 527.275V531.475H345.872V527.38L345.887 527.425C345.887 526.285 346.022 525.025 347.987 525.025C350.057 525.025 350.027 526.615 350.027 527.275V531.475H352.307V527.275C352.292 526.045 352.202 523.06 348.647 523.06ZM362.712 527.8H362.802C362.922 526.645 362.772 524.875 361.152 523.765V523.78C360.447 523.285 359.487 522.985 358.302 522.985C355.467 522.985 353.787 524.485 353.787 527.23C353.787 530.035 355.422 531.475 358.302 531.475C361.062 531.475 362.532 530.365 362.757 528.55H360.552C360.342 529.105 359.667 529.48 358.302 529.48C356.832 529.48 356.157 528.925 355.992 527.8H362.712ZM358.302 524.98C359.922 524.98 360.342 525.67 360.522 526.3H356.082C356.352 525.445 357.042 524.98 358.302 524.98ZM369.351 523.06C367.836 523.06 367.071 523.555 366.531 524.305H366.426V523.06H364.146V531.475H366.426V527.425C366.426 526.285 366.711 525.025 368.691 525.025C370.866 525.025 370.731 526.615 370.731 527.275V531.475H372.996V527.275C372.996 526.045 372.906 523.06 369.351 523.06ZM377.456 525.01H380.186V523.09H377.456V520.66H375.161V523.09H374.051V525.01H375.161V528.385C375.161 529.6 375.161 531.475 377.456 531.475C379.736 531.475 380.186 531.325 380.186 531.325V529.105C377.996 529.225 377.456 529.39 377.456 528.175V527.995V525.01ZM203.916 542.13C204.786 542.13 206.001 542.235 206.001 542.235V540.3C206.001 540.3 204.546 540.09 203.106 540.09C201.396 540.09 200.691 540.645 200.556 543.06H199.386V544.935H200.526V551.475H202.806V544.935H205.851V543.06H202.836C202.896 542.31 203.121 542.13 203.916 542.13ZM215.551 547.8H215.641C215.761 546.645 215.611 544.875 213.991 543.765V543.78C213.286 543.285 212.326 542.985 211.141 542.985C208.306 542.985 206.626 544.485 206.626 547.23C206.626 550.035 208.261 551.475 211.141 551.475C213.901 551.475 215.371 550.365 215.596 548.55H213.391C213.181 549.105 212.506 549.48 211.141 549.48C209.671 549.48 208.996 548.925 208.831 547.8H215.551ZM211.141 544.98C212.761 544.98 213.181 545.67 213.361 546.3H208.921C209.191 545.445 209.881 544.98 211.141 544.98ZM223.96 544.305C223.39 543.555 222.445 543.06 220.885 543.06C217.33 543.06 216.955 546.045 216.955 547.275C216.955 548.4 217.345 551.475 220.87 551.475C222.46 551.475 223.42 551.04 223.99 550.305H224.065V551.475H226.345V543.06H224.065V544.305H223.96ZM221.545 549.525C219.37 549.525 219.13 547.875 219.13 547.275C219.13 546.615 219.355 545.025 221.545 545.025C223.51 545.025 223.915 546.135 223.915 547.275C223.915 548.55 223.51 549.525 221.545 549.525ZM231.042 545.01H233.772V543.09H231.042V540.66H228.747V543.09H227.637V545.01H228.747V548.385C228.747 549.6 228.747 551.475 231.042 551.475C233.322 551.475 233.772 551.325 233.772 551.325V549.105C231.582 549.225 231.042 549.39 231.042 548.175V547.995V545.01ZM241.549 543.06V547.125C241.549 548.265 241.249 549.525 239.284 549.525C237.094 549.525 237.244 547.935 237.244 547.275V543.06H234.979V547.275C234.979 548.505 235.069 551.475 238.624 551.475C240.139 551.475 240.904 550.995 241.444 550.245H241.549V551.475H243.829V543.06H241.549ZM250.257 543.06C248.802 543.06 248.292 543.495 247.812 544.305H247.677V543.06H245.397V551.475H247.677V547.71C247.677 546.57 248.172 545.25 249.867 545.25C250.587 545.25 251.172 545.37 251.382 545.43L251.742 543.285C251.352 543.195 250.857 543.06 250.257 543.06ZM261.224 547.8H261.314C261.434 546.645 261.284 544.875 259.664 543.765V543.78C258.959 543.285 257.999 542.985 256.814 542.985C253.979 542.985 252.299 544.485 252.299 547.23C252.299 550.035 253.934 551.475 256.814 551.475C259.574 551.475 261.044 550.365 261.269 548.55H259.064C258.854 549.105 258.179 549.48 256.814 549.48C255.344 549.48 254.669 548.925 254.504 547.8H261.224ZM256.814 544.98C258.434 544.98 258.854 545.67 259.034 546.3H254.594C254.864 545.445 255.554 544.98 256.814 544.98ZM266.88 546.375L266.685 546.36C265.215 546.135 264.96 545.925 264.96 545.55C264.96 545.295 265.23 544.83 266.505 544.83C267.825 544.83 268.395 545.19 268.395 545.85V545.925H270.72V545.85C270.72 544.56 269.985 543.015 266.505 543.015C263.265 543.015 262.59 544.41 262.59 545.58C262.59 547.26 264.09 547.8 266.505 548.115C266.625 548.13 266.745 548.145 266.865 548.16C267.78 548.265 268.59 548.385 268.59 549.015C268.59 549.57 267.72 549.69 266.805 549.69C265.29 549.69 264.75 549.36 264.75 548.64V548.565H262.41V548.73C262.395 549.165 262.395 549.87 262.98 550.455C263.655 551.13 264.96 551.475 266.865 551.475C269.445 551.475 270.945 551.07 270.945 548.985C270.945 546.99 268.785 546.66 266.88 546.375ZM281.538 545.01H284.268V543.09H281.538V540.66H279.243V543.09H278.133V545.01H279.243V548.385C279.243 549.6 279.243 551.475 281.538 551.475C283.818 551.475 284.268 551.325 284.268 551.325V549.105C282.078 549.225 281.538 549.39 281.538 548.175V547.995V545.01ZM289.906 542.91C287.356 542.91 285.226 544.305 285.226 547.2C285.226 550.11 287.356 551.475 289.906 551.475C292.471 551.475 294.601 550.155 294.601 547.2C294.601 544.275 292.471 542.91 289.906 542.91ZM289.906 549.405C288.481 549.405 287.461 548.775 287.461 547.2C287.461 545.61 288.481 544.995 289.906 544.995C291.346 544.995 292.366 545.64 292.366 547.2C292.366 548.715 291.346 549.405 289.906 549.405ZM308.939 543.15V544.395H308.804C308.234 543.645 307.289 543.15 305.729 543.15C302.174 543.15 301.799 546.135 301.799 547.365C301.799 548.505 302.189 551.58 305.714 551.58C307.304 551.58 308.264 551.13 308.834 550.41H308.939V551.01C308.939 552.555 308.249 553.56 306.704 553.56C304.919 553.56 304.529 552.69 304.469 552.24C304.094 552.24 302.804 552.24 302.204 552.24C302.204 553.485 302.939 555.525 306.719 555.525C310.904 555.525 311.219 552.405 311.219 550.665V543.15H308.939ZM306.389 549.615C304.214 549.615 303.974 547.98 303.974 547.365C303.974 546.705 304.199 545.115 306.389 545.115C308.354 545.115 308.759 546.225 308.759 547.365C308.759 548.64 308.354 549.615 306.389 549.615ZM319.705 544.305C319.135 543.555 318.19 543.06 316.63 543.06C313.075 543.06 312.7 546.045 312.7 547.275C312.7 548.4 313.09 551.475 316.615 551.475C318.205 551.475 319.165 551.04 319.735 550.305H319.81V551.475H322.09V543.06H319.81V544.305H319.705ZM317.29 549.525C315.115 549.525 314.875 547.875 314.875 547.275C314.875 546.615 315.1 545.025 317.29 545.025C319.255 545.025 319.66 546.135 319.66 547.275C319.66 548.55 319.255 549.525 317.29 549.525ZM335.194 543.06C333.094 543.06 332.419 543.555 331.864 544.305H331.759C331.279 543.6 330.424 543.06 328.909 543.06C327.409 543.06 326.659 543.555 326.119 544.305H326.014V543.135H323.749V551.475H326.014V547.425C326.014 546.285 326.149 545.025 328.114 545.025C330.184 545.025 330.154 546.615 330.154 547.275V551.475H332.419V547.38L332.434 547.425C332.434 546.285 332.569 545.025 334.534 545.025C336.604 545.025 336.574 546.615 336.574 547.275V551.475H338.854V547.275C338.839 546.045 338.749 543.06 335.194 543.06ZM342.672 551.475V543.12H340.407V551.475H342.672ZM342.672 542.52V540.48H340.407V542.52H342.672ZM348.763 542.13C349.633 542.13 350.848 542.235 350.848 542.235V540.3C350.848 540.3 349.393 540.09 347.953 540.09C346.243 540.09 345.538 540.645 345.403 543.06H344.233V544.935H345.373V551.475H347.653V544.935H350.698V543.06H347.683C347.743 542.31 347.968 542.13 348.763 542.13ZM354.572 551.475V543.12H352.307V551.475H354.572ZM354.572 542.52V540.48H352.307V542.52H354.572ZM362.631 548.325C362.466 548.91 361.941 549.435 360.501 549.435C359.016 549.435 358.236 548.76 358.236 547.26C358.236 545.835 359.016 545.1 360.501 545.1C361.896 545.1 362.451 545.58 362.646 546.21H364.881C364.686 544.215 362.916 543.045 360.501 543.045C358.026 543.045 356.016 544.545 356.016 547.26C356.016 550.05 358.026 551.475 360.501 551.475C362.916 551.475 364.701 550.35 364.881 548.325H362.631ZM373.102 544.305C372.532 543.555 371.587 543.06 370.027 543.06C366.472 543.06 366.097 546.045 366.097 547.275C366.097 548.4 366.487 551.475 370.012 551.475C371.602 551.475 372.562 551.04 373.132 550.305H373.207V551.475H375.487V543.06H373.207V544.305H373.102ZM370.687 549.525C368.512 549.525 368.272 547.875 368.272 547.275C368.272 546.615 368.497 545.025 370.687 545.025C372.652 545.025 373.057 546.135 373.057 547.275C373.057 548.55 372.652 549.525 370.687 549.525ZM380.184 545.01H382.914V543.09H380.184V540.66H377.889V543.09H376.779V545.01H377.889V548.385C377.889 549.6 377.889 551.475 380.184 551.475C382.464 551.475 382.914 551.325 382.914 551.325V549.105C380.724 549.225 380.184 549.39 380.184 548.175V547.995V545.01ZM386.547 551.475V543.12H384.282V551.475H386.547ZM386.547 542.52V540.48H384.282V542.52H386.547ZM392.642 542.91C390.092 542.91 387.962 544.305 387.962 547.2C387.962 550.11 390.092 551.475 392.642 551.475C395.207 551.475 397.337 550.155 397.337 547.2C397.337 544.275 395.207 542.91 392.642 542.91ZM392.642 549.405C391.217 549.405 390.197 548.775 390.197 547.2C390.197 545.61 391.217 544.995 392.642 544.995C394.082 544.995 395.102 545.64 395.102 547.2C395.102 548.715 394.082 549.405 392.642 549.405ZM403.921 543.06C402.406 543.06 401.641 543.555 401.101 544.305H400.996V543.06H398.716V551.475H400.996V547.425C400.996 546.285 401.281 545.025 403.261 545.025C405.436 545.025 405.301 546.615 405.301 547.275V551.475H407.566V547.275C407.566 546.045 407.476 543.06 403.921 543.06ZM277.967 566.375L277.772 566.36C276.302 566.135 276.047 565.925 276.047 565.55C276.047 565.295 276.317 564.83 277.592 564.83C278.912 564.83 279.482 565.19 279.482 565.85V565.925H281.807V565.85C281.807 564.56 281.072 563.015 277.592 563.015C274.352 563.015 273.677 564.41 273.677 565.58C273.677 567.26 275.177 567.8 277.592 568.115C277.712 568.13 277.832 568.145 277.952 568.16C278.867 568.265 279.677 568.385 279.677 569.015C279.677 569.57 278.807 569.69 277.892 569.69C276.377 569.69 275.837 569.36 275.837 568.64V568.565H273.497V568.73C273.482 569.165 273.482 569.87 274.067 570.455C274.742 571.13 276.047 571.475 277.952 571.475C280.532 571.475 282.032 571.07 282.032 568.985C282.032 566.99 279.872 566.66 277.967 566.375ZM292.181 567.8H292.271C292.391 566.645 292.241 564.875 290.621 563.765V563.78C289.916 563.285 288.956 562.985 287.771 562.985C284.936 562.985 283.256 564.485 283.256 567.23C283.256 570.035 284.891 571.475 287.771 571.475C290.531 571.475 292.001 570.365 292.226 568.55H290.021C289.811 569.105 289.136 569.48 287.771 569.48C286.301 569.48 285.626 568.925 285.461 567.8H292.181ZM287.771 564.98C289.391 564.98 289.811 565.67 289.991 566.3H285.551C285.821 565.445 286.511 564.98 287.771 564.98ZM300.26 568.325C300.095 568.91 299.57 569.435 298.13 569.435C296.645 569.435 295.865 568.76 295.865 567.26C295.865 565.835 296.645 565.1 298.13 565.1C299.525 565.1 300.08 565.58 300.275 566.21H302.51C302.315 564.215 300.545 563.045 298.13 563.045C295.655 563.045 293.645 564.545 293.645 567.26C293.645 570.05 295.655 571.475 298.13 571.475C300.545 571.475 302.33 570.35 302.51 568.325H300.26ZM306.823 565.01H309.553V563.09H306.823V560.66H304.528V563.09H303.418V565.01H304.528V568.385C304.528 569.6 304.528 571.475 306.823 571.475C309.103 571.475 309.553 571.325 309.553 571.325V569.105C307.363 569.225 306.823 569.39 306.823 568.175V567.995V565.01ZM313.186 571.475V563.12H310.921V571.475H313.186ZM313.186 562.52V560.48H310.921V562.52H313.186ZM319.281 562.91C316.731 562.91 314.601 564.305 314.601 567.2C314.601 570.11 316.731 571.475 319.281 571.475C321.846 571.475 323.976 570.155 323.976 567.2C323.976 564.275 321.846 562.91 319.281 562.91ZM319.281 569.405C317.856 569.405 316.836 568.775 316.836 567.2C316.836 565.61 317.856 564.995 319.281 564.995C320.721 564.995 321.741 565.64 321.741 567.2C321.741 568.715 320.721 569.405 319.281 569.405ZM330.561 563.06C329.046 563.06 328.281 563.555 327.741 564.305H327.636V563.06H325.356V571.475H327.636V567.425C327.636 566.285 327.921 565.025 329.901 565.025C332.076 565.025 331.941 566.615 331.941 567.275V571.475H334.206V567.275C334.206 566.045 334.116 563.06 330.561 563.06Z" fill="#33FF00"/>
<g style="mix-blend-mode:screen" filter="url(#filter10_f_374_1533)">
<ellipse cx="716" cy="826.975" rx="117" ry="28.5" fill="#177100" fill-opacity="0.5"/>
</g>
<path d="M620.989 824.275H618.557V835.475H627.757V833.283H620.989V824.275ZM636.266 827.827C635.658 827.027 634.65 826.499 632.986 826.499C629.194 826.499 628.794 829.683 628.794 830.995C628.794 832.195 629.21 835.475 632.97 835.475C634.666 835.475 635.69 835.011 636.298 834.227H636.378V835.475H638.81V826.499H636.378V827.827H636.266ZM633.69 833.395C631.37 833.395 631.114 831.635 631.114 830.995C631.114 830.291 631.354 828.595 633.69 828.595C635.786 828.595 636.218 829.779 636.218 830.995C636.218 832.355 635.786 833.395 633.69 833.395ZM647.477 826.499V830.835C647.477 832.051 647.157 833.395 645.061 833.395C642.725 833.395 642.885 831.699 642.885 830.995V826.499H640.469V830.995C640.469 832.307 640.565 835.475 644.357 835.475C645.973 835.475 646.789 834.963 647.365 834.163H647.477V835.475H649.909V826.499H647.477ZM658.482 832.115C658.306 832.739 657.746 833.299 656.21 833.299C654.626 833.299 653.794 832.579 653.794 830.979C653.794 829.459 654.626 828.675 656.21 828.675C657.698 828.675 658.29 829.187 658.498 829.859H660.882C660.674 827.731 658.786 826.483 656.21 826.483C653.57 826.483 651.426 828.083 651.426 830.979C651.426 833.955 653.57 835.475 656.21 835.475C658.786 835.475 660.69 834.275 660.882 832.115H658.482ZM668.078 826.499C666.478 826.499 665.502 827.027 664.926 827.827H664.814V823.923H662.382V835.475H664.814V831.155C664.814 829.939 665.278 828.595 667.374 828.595C669.71 828.595 669.71 830.291 669.71 830.995V835.475H672.126V830.995C672.126 829.683 671.886 826.499 668.078 826.499ZM679.663 826.515C677.999 826.515 676.975 827.043 676.367 827.827H676.239V826.515H673.807V838.899H676.239V834.243H676.351C676.959 835.027 677.983 835.507 679.663 835.507C683.439 835.507 683.855 832.211 683.855 831.011C683.855 829.699 683.455 826.515 679.663 826.515ZM678.959 833.411C676.847 833.411 676.415 832.371 676.415 831.011C676.415 829.795 676.847 828.611 678.959 828.611C681.279 828.611 681.535 830.307 681.535 831.011C681.535 831.651 681.279 833.411 678.959 833.411ZM692.578 827.827C691.97 827.027 690.962 826.499 689.298 826.499C685.506 826.499 685.106 829.683 685.106 830.995C685.106 832.195 685.522 835.475 689.282 835.475C690.978 835.475 692.002 835.011 692.61 834.227H692.69V835.475H695.122V826.499H692.69V827.827H692.578ZM690.002 833.395C687.682 833.395 687.426 831.635 687.426 830.995C687.426 830.291 687.666 828.595 690.002 828.595C692.098 828.595 692.53 829.779 692.53 830.995C692.53 832.355 692.098 833.395 690.002 833.395ZM704.257 823.923V827.827H704.113C703.505 827.027 702.497 826.499 700.833 826.499C697.041 826.499 696.641 829.683 696.641 830.995C696.641 832.195 697.057 835.475 700.817 835.475C702.513 835.475 703.537 835.011 704.145 834.227H704.257V835.475H706.689V823.923H704.257ZM701.537 833.395C699.217 833.395 698.961 831.635 698.961 830.995C698.961 830.291 699.201 828.595 701.537 828.595C703.633 828.595 704.065 829.779 704.065 830.995C704.065 832.355 703.633 833.395 701.537 833.395ZM720.222 826.499C718.558 826.499 717.534 827.027 716.926 827.827H716.798V823.923H714.366V835.475H716.798V834.227H716.91C717.518 835.011 718.542 835.475 720.222 835.475C723.998 835.475 724.414 832.195 724.414 830.995C724.414 829.683 724.014 826.499 720.222 826.499ZM719.518 833.395C717.406 833.395 716.974 832.355 716.974 830.995C716.974 829.779 717.406 828.595 719.518 828.595C721.838 828.595 722.094 830.291 722.094 830.995C722.094 831.635 721.838 833.395 719.518 833.395ZM735.327 831.555H735.423C735.551 830.323 735.391 828.435 733.663 827.251V827.267C732.911 826.739 731.887 826.419 730.623 826.419C727.599 826.419 725.807 828.019 725.807 830.947C725.807 833.939 727.551 835.475 730.623 835.475C733.567 835.475 735.135 834.291 735.375 832.355H733.023C732.799 832.947 732.079 833.347 730.623 833.347C729.055 833.347 728.335 832.755 728.159 831.555H735.327ZM730.623 828.547C732.351 828.547 732.799 829.283 732.991 829.955H728.255C728.543 829.043 729.279 828.547 730.623 828.547ZM739.895 828.579H742.807V826.531H739.895V823.939H737.447V826.531H736.263V828.579H737.447V832.179C737.447 833.475 737.447 835.475 739.895 835.475C742.327 835.475 742.807 835.315 742.807 835.315V832.947C740.471 833.075 739.895 833.251 739.895 831.955V831.763V828.579ZM751.238 827.827C750.63 827.027 749.622 826.499 747.958 826.499C744.166 826.499 743.766 829.683 743.766 830.995C743.766 832.195 744.182 835.475 747.942 835.475C749.638 835.475 750.662 835.011 751.27 834.227H751.35V835.475H753.782V826.499H751.35V827.827H751.238ZM748.662 833.395C746.342 833.395 746.086 831.635 746.086 830.995C746.086 830.291 746.326 828.595 748.662 828.595C750.758 828.595 751.19 829.779 751.19 830.995C751.19 832.355 750.758 833.395 748.662 833.395ZM766.66 826.499C765.108 826.499 764.564 826.963 764.052 827.827H763.908V826.499H761.476V835.475H763.908V831.459C763.908 830.243 764.436 828.835 766.244 828.835C767.012 828.835 767.636 828.963 767.86 829.027L768.244 826.739C767.828 826.643 767.3 826.499 766.66 826.499ZM773.783 826.339C771.063 826.339 768.791 827.827 768.791 830.915C768.791 834.019 771.063 835.475 773.783 835.475C776.519 835.475 778.791 834.067 778.791 830.915C778.791 827.795 776.519 826.339 773.783 826.339ZM773.783 833.267C772.263 833.267 771.175 832.595 771.175 830.915C771.175 829.219 772.263 828.563 773.783 828.563C775.319 828.563 776.407 829.251 776.407 830.915C776.407 832.531 775.319 833.267 773.783 833.267ZM782.773 835.475V823.971H780.357V835.475H782.773ZM786.932 835.475V823.971H784.516V835.475H786.932ZM793.48 826.339C790.76 826.339 788.488 827.827 788.488 830.915C788.488 834.019 790.76 835.475 793.48 835.475C796.216 835.475 798.488 834.067 798.488 830.915C798.488 827.795 796.216 826.339 793.48 826.339ZM793.48 833.267C791.96 833.267 790.872 832.595 790.872 830.915C790.872 829.219 791.96 828.563 793.48 828.563C795.016 828.563 796.104 829.251 796.104 830.915C796.104 832.531 795.016 833.267 793.48 833.267ZM806.952 826.499V830.835C806.952 832.051 806.632 833.395 804.536 833.395C802.2 833.395 802.36 831.699 802.36 830.995V826.499H799.944V830.995C799.944 832.307 800.04 835.475 803.832 835.475C805.448 835.475 806.264 834.963 806.84 834.163H806.952V835.475H809.384V826.499H806.952ZM814.376 828.579H817.288V826.531H814.376V823.939H811.928V826.531H810.744V828.579H811.928V832.179C811.928 833.475 811.928 835.475 814.376 835.475C816.808 835.475 817.288 835.315 817.288 835.315V832.947C814.952 833.075 814.376 833.251 814.376 831.955V831.763V828.579ZM684.103 854.251H683.863L680.807 845.275H677.991L682.023 856.475H685.943L689.991 845.275H687.159L684.103 854.251ZM694.689 847.339C691.969 847.339 689.697 848.827 689.697 851.915C689.697 855.019 691.969 856.475 694.689 856.475C697.425 856.475 699.697 855.067 699.697 851.915C699.697 848.795 697.425 847.339 694.689 847.339ZM694.689 854.267C693.169 854.267 692.081 853.595 692.081 851.915C692.081 850.219 693.169 849.563 694.689 849.563C696.225 849.563 697.313 850.251 697.313 851.915C697.313 853.531 696.225 854.267 694.689 854.267ZM704.208 849.579H707.12V847.531H704.208V844.939H701.76V847.531H700.576V849.579H701.76V853.179C701.76 854.475 701.76 856.475 704.208 856.475C706.64 856.475 707.12 856.315 707.12 856.315V853.947C704.784 854.075 704.208 854.251 704.208 852.955V852.763V849.579ZM717.692 852.555H717.788C717.916 851.323 717.756 849.435 716.028 848.251V848.267C715.276 847.739 714.252 847.419 712.988 847.419C709.964 847.419 708.172 849.019 708.172 851.947C708.172 854.939 709.916 856.475 712.988 856.475C715.932 856.475 717.5 855.291 717.74 853.355H715.388C715.164 853.947 714.444 854.347 712.988 854.347C711.42 854.347 710.7 853.755 710.524 852.555H717.692ZM712.988 849.547C714.716 849.547 715.164 850.283 715.356 850.955H710.62C710.908 850.043 711.644 849.547 712.988 849.547ZM726.823 844.923V848.827H726.679C726.071 848.027 725.063 847.499 723.399 847.499C719.607 847.499 719.207 850.683 719.207 851.995C719.207 853.195 719.623 856.475 723.383 856.475C725.079 856.475 726.103 856.011 726.711 855.227H726.823V856.475H729.255V844.923H726.823ZM724.103 854.395C721.783 854.395 721.527 852.635 721.527 851.995C721.527 851.291 721.767 849.595 724.103 849.595C726.199 849.595 726.631 850.779 726.631 851.995C726.631 853.355 726.199 854.395 724.103 854.395ZM741.924 847.339C739.204 847.339 736.932 848.827 736.932 851.915C736.932 855.019 739.204 856.475 741.924 856.475C744.66 856.475 746.932 855.067 746.932 851.915C746.932 848.795 744.66 847.339 741.924 847.339ZM741.924 854.267C740.404 854.267 739.316 853.595 739.316 851.915C739.316 850.219 740.404 849.563 741.924 849.563C743.46 849.563 744.548 850.251 744.548 851.915C744.548 853.531 743.46 854.267 741.924 854.267ZM753.956 847.499C752.34 847.499 751.524 848.027 750.948 848.827H750.836V847.499H748.404V856.475H750.836V852.155C750.836 850.939 751.14 849.595 753.252 849.595C755.572 849.595 755.428 851.291 755.428 851.995V856.475H757.844V851.995C757.844 850.683 757.748 847.499 753.956 847.499Z" fill="#33FF00"/>
<path d="M376.067 721.099C372.803 721.099 370.323 723.115 370.323 726.795C370.323 730.539 372.803 732.475 376.067 732.475C379.331 732.475 381.811 730.475 381.811 726.795C381.811 723.115 379.331 721.099 376.067 721.099ZM376.067 729.995C374.131 729.995 372.707 729.019 372.707 726.795C372.707 724.571 374.131 723.579 376.067 723.579C378.003 723.579 379.427 724.603 379.427 726.795C379.427 728.939 378.003 729.995 376.067 729.995ZM388.909 723.499C387.293 723.499 386.477 724.027 385.901 724.827H385.789V723.499H383.357V732.475H385.789V728.155C385.789 726.939 386.093 725.595 388.205 725.595C390.525 725.595 390.381 727.291 390.381 727.995V732.475H392.797V727.995C392.797 726.683 392.701 723.499 388.909 723.499ZM407.529 729.115C407.353 729.739 406.793 730.299 405.257 730.299C403.673 730.299 402.841 729.579 402.841 727.979C402.841 726.459 403.673 725.675 405.257 725.675C406.745 725.675 407.337 726.187 407.545 726.859H409.929C409.721 724.731 407.833 723.483 405.257 723.483C402.617 723.483 400.473 725.083 400.473 727.979C400.473 730.955 402.617 732.475 405.257 732.475C407.833 732.475 409.737 731.275 409.929 729.115H407.529ZM417.125 723.499C415.525 723.499 414.549 724.027 413.973 724.827H413.861V720.923H411.429V732.475H413.861V728.155C413.861 726.939 414.325 725.595 416.421 725.595C418.757 725.595 418.757 727.291 418.757 727.995V732.475H421.173V727.995C421.173 726.683 420.933 723.499 417.125 723.499ZM430.076 724.827C429.468 724.027 428.46 723.499 426.796 723.499C423.004 723.499 422.604 726.683 422.604 727.995C422.604 729.195 423.02 732.475 426.78 732.475C428.476 732.475 429.5 732.011 430.108 731.227H430.188V732.475H432.62V723.499H430.188V724.827H430.076ZM427.5 730.395C425.18 730.395 424.924 728.635 424.924 727.995C424.924 727.291 425.164 725.595 427.5 725.595C429.596 725.595 430.028 726.779 430.028 727.995C430.028 729.355 429.596 730.395 427.5 730.395ZM436.726 732.475V723.563H434.31V732.475H436.726ZM436.726 722.923V720.747H434.31V722.923H436.726ZM443.943 723.499C442.327 723.499 441.511 724.027 440.935 724.827H440.823V723.499H438.391V732.475H440.823V728.155C440.823 726.939 441.127 725.595 443.239 725.595C445.559 725.595 445.415 727.291 445.415 727.995V732.475H447.831V727.995C447.831 726.683 447.735 723.499 443.943 723.499ZM463.123 720.923V724.827H462.979C462.371 724.027 461.363 723.499 459.699 723.499C455.907 723.499 455.507 726.683 455.507 727.995C455.507 729.195 455.923 732.475 459.683 732.475C461.379 732.475 462.403 732.011 463.011 731.227H463.123V732.475H465.555V720.923H463.123ZM460.403 730.395C458.083 730.395 457.827 728.635 457.827 727.995C457.827 727.291 458.067 725.595 460.403 725.595C462.499 725.595 462.931 726.779 462.931 727.995C462.931 729.355 462.499 730.395 460.403 730.395ZM474.747 724.827C474.139 724.027 473.131 723.499 471.467 723.499C467.675 723.499 467.275 726.683 467.275 727.995C467.275 729.195 467.691 732.475 471.451 732.475C473.147 732.475 474.171 732.011 474.779 731.227H474.859V732.475H477.291V723.499H474.859V724.827H474.747ZM472.171 730.395C469.851 730.395 469.595 728.635 469.595 727.995C469.595 727.291 469.835 725.595 472.171 725.595C474.267 725.595 474.699 726.779 474.699 727.995C474.699 729.355 474.267 730.395 472.171 730.395ZM483.615 723.339C480.895 723.339 478.623 724.827 478.623 727.915C478.623 731.019 480.895 732.475 483.615 732.475C486.351 732.475 488.623 731.067 488.623 727.915C488.623 724.795 486.351 723.339 483.615 723.339ZM483.615 730.267C482.095 730.267 481.007 729.595 481.007 727.915C481.007 726.219 482.095 725.563 483.615 725.563C485.151 725.563 486.239 726.251 486.239 727.915C486.239 729.531 485.151 730.267 483.615 730.267ZM499.933 725.579H502.845V723.531H499.933V720.939H497.485V723.531H496.301V725.579H497.485V729.179C497.485 730.475 497.485 732.475 499.933 732.475C502.365 732.475 502.845 732.315 502.845 732.315V729.947C500.509 730.075 499.933 730.251 499.933 728.955V728.763V725.579ZM508.858 723.339C506.138 723.339 503.866 724.827 503.866 727.915C503.866 731.019 506.138 732.475 508.858 732.475C511.594 732.475 513.866 731.067 513.866 727.915C513.866 724.795 511.594 723.339 508.858 723.339ZM508.858 730.267C507.338 730.267 506.25 729.595 506.25 727.915C506.25 726.219 507.338 725.563 508.858 725.563C510.394 725.563 511.482 726.251 511.482 727.915C511.482 729.531 510.394 730.267 508.858 730.267ZM369.427 744.499C367.763 744.499 366.739 745.027 366.131 745.827H366.003V741.923H363.571V753.475H366.003V752.227H366.115C366.723 753.011 367.747 753.475 369.427 753.475C373.203 753.475 373.619 750.195 373.619 748.995C373.619 747.683 373.219 744.499 369.427 744.499ZM368.723 751.395C366.611 751.395 366.179 750.355 366.179 748.995C366.179 747.779 366.611 746.595 368.723 746.595C371.043 746.595 371.299 748.291 371.299 748.995C371.299 749.635 371.043 751.395 368.723 751.395ZM384.532 749.555H384.628C384.756 748.323 384.596 746.435 382.868 745.251V745.267C382.116 744.739 381.092 744.419 379.828 744.419C376.804 744.419 375.012 746.019 375.012 748.947C375.012 751.939 376.756 753.475 379.828 753.475C382.772 753.475 384.34 752.291 384.58 750.355H382.228C382.004 750.947 381.284 751.347 379.828 751.347C378.26 751.347 377.54 750.755 377.364 749.555H384.532ZM379.828 746.547C381.556 746.547 382.004 747.283 382.196 747.955H377.46C377.748 747.043 378.484 746.547 379.828 746.547ZM399.386 750.115C399.21 750.739 398.65 751.299 397.114 751.299C395.53 751.299 394.698 750.579 394.698 748.979C394.698 747.459 395.53 746.675 397.114 746.675C398.602 746.675 399.194 747.187 399.402 747.859H401.786C401.578 745.731 399.69 744.483 397.114 744.483C394.474 744.483 392.33 746.083 392.33 748.979C392.33 751.955 394.474 753.475 397.114 753.475C399.69 753.475 401.594 752.275 401.786 750.115H399.386ZM407.951 744.339C405.231 744.339 402.959 745.827 402.959 748.915C402.959 752.019 405.231 753.475 407.951 753.475C410.687 753.475 412.959 752.067 412.959 748.915C412.959 745.795 410.687 744.339 407.951 744.339ZM407.951 751.267C406.431 751.267 405.343 750.595 405.343 748.915C405.343 747.219 406.431 746.563 407.951 746.563C409.487 746.563 410.575 747.251 410.575 748.915C410.575 750.531 409.487 751.267 407.951 751.267ZM426.545 744.499C424.305 744.499 423.585 745.027 422.993 745.827H422.881C422.369 745.075 421.457 744.499 419.841 744.499C418.241 744.499 417.441 745.027 416.865 745.827H416.753V744.579H414.337V753.475H416.753V749.155C416.753 747.939 416.897 746.595 418.993 746.595C421.201 746.595 421.169 748.291 421.169 748.995V753.475H423.585V749.107L423.601 749.155C423.601 747.939 423.745 746.595 425.841 746.595C428.049 746.595 428.017 748.291 428.017 748.995V753.475H430.449V748.995C430.433 747.683 430.337 744.499 426.545 744.499ZM437.961 744.515C436.297 744.515 435.273 745.043 434.665 745.827H434.537V744.515H432.105V756.899H434.537V752.243H434.649C435.257 753.027 436.281 753.507 437.961 753.507C441.737 753.507 442.153 750.211 442.153 749.011C442.153 747.699 441.753 744.515 437.961 744.515ZM437.257 751.411C435.145 751.411 434.713 750.371 434.713 749.011C434.713 747.795 435.145 746.611 437.257 746.611C439.577 746.611 439.833 748.307 439.833 749.011C439.833 749.651 439.577 751.411 437.257 751.411ZM446.165 753.475V741.971H443.749V753.475H446.165ZM457.179 749.555H457.275C457.403 748.323 457.243 746.435 455.515 745.251V745.267C454.763 744.739 453.739 744.419 452.475 744.419C449.451 744.419 447.659 746.019 447.659 748.947C447.659 751.939 449.403 753.475 452.475 753.475C455.419 753.475 456.987 752.291 457.227 750.355H454.875C454.651 750.947 453.931 751.347 452.475 751.347C450.907 751.347 450.187 750.755 450.011 749.555H457.179ZM452.475 746.547C454.203 746.547 454.651 747.283 454.843 747.955H450.107C450.395 747.043 451.131 746.547 452.475 746.547ZM461.747 746.579H464.659V744.531H461.747V741.939H459.299V744.531H458.115V746.579H459.299V750.179C459.299 751.475 459.299 753.475 461.747 753.475C464.179 753.475 464.659 753.315 464.659 753.315V750.947C462.323 751.075 461.747 751.251 461.747 749.955V749.763V746.579ZM475.232 749.555H475.328C475.456 748.323 475.296 746.435 473.568 745.251V745.267C472.816 744.739 471.792 744.419 470.528 744.419C467.504 744.419 465.712 746.019 465.712 748.947C465.712 751.939 467.456 753.475 470.528 753.475C473.472 753.475 475.04 752.291 475.28 750.355H472.928C472.704 750.947 471.984 751.347 470.528 751.347C468.96 751.347 468.24 750.755 468.064 749.555H475.232ZM470.528 746.547C472.256 746.547 472.704 747.283 472.896 747.955H468.16C468.448 747.043 469.184 746.547 470.528 746.547ZM484.362 741.923V745.827H484.218C483.61 745.027 482.602 744.499 480.938 744.499C477.146 744.499 476.746 747.683 476.746 748.995C476.746 750.195 477.162 753.475 480.922 753.475C482.618 753.475 483.642 753.011 484.25 752.227H484.362V753.475H486.794V741.923H484.362ZM481.642 751.395C479.322 751.395 479.066 749.635 479.066 748.995C479.066 748.291 479.306 746.595 481.642 746.595C483.738 746.595 484.17 747.779 484.17 748.995C484.17 750.355 483.738 751.395 481.642 751.395ZM499.303 743.507C500.231 743.507 501.527 743.619 501.527 743.619V741.555C501.527 741.555 499.975 741.331 498.439 741.331C496.615 741.331 495.863 741.923 495.719 744.499H494.471V746.499H495.687V753.475H498.119V746.499H501.367V744.499H498.151C498.215 743.699 498.455 743.507 499.303 743.507ZM507.247 744.339C504.527 744.339 502.255 745.827 502.255 748.915C502.255 752.019 504.527 753.475 507.247 753.475C509.983 753.475 512.255 752.067 512.255 748.915C512.255 745.795 509.983 744.339 507.247 744.339ZM507.247 751.267C505.727 751.267 504.639 750.595 504.639 748.915C504.639 747.219 505.727 746.563 507.247 746.563C508.783 746.563 509.871 747.251 509.871 748.915C509.871 750.531 508.783 751.267 507.247 751.267ZM519.036 744.499C517.484 744.499 516.94 744.963 516.428 745.827H516.284V744.499H513.852V753.475H516.284V749.459C516.284 748.243 516.812 746.835 518.62 746.835C519.388 746.835 520.012 746.963 520.236 747.027L520.62 744.739C520.204 744.643 519.676 744.499 519.036 744.499ZM387.714 767.019C387.714 763.275 384.722 763.275 383.378 763.275C382.722 763.275 380.946 763.291 380.354 763.291V763.275H377.922V774.475H380.354V770.747C380.85 770.747 382.514 770.747 382.93 770.747C383.074 770.747 383.282 770.747 383.522 770.747L385.346 774.475H387.986L385.842 770.187C386.85 769.659 387.714 768.955 387.714 767.019ZM383.186 768.571C382.978 768.571 380.882 768.571 380.354 768.571V765.467C380.994 765.467 382.786 765.467 383.234 765.467C383.986 765.467 385.458 765.467 385.458 767.019C385.458 768.587 383.89 768.571 383.186 768.571ZM392.107 774.475V765.563H389.691V774.475H392.107ZM392.107 764.923V762.747H389.691V764.923H392.107ZM393.773 765.515V767.739H399.517L393.773 772.187V774.475H402.797V772.267H397.069L402.797 767.803V765.515H393.773ZM413.358 770.555H413.454C413.582 769.323 413.422 767.435 411.694 766.251V766.267C410.942 765.739 409.918 765.419 408.654 765.419C405.63 765.419 403.838 767.019 403.838 769.947C403.838 772.939 405.582 774.475 408.654 774.475C411.598 774.475 413.166 773.291 413.406 771.355H411.054C410.83 771.947 410.11 772.347 408.654 772.347C407.086 772.347 406.366 771.755 406.19 770.555H413.358ZM408.654 767.547C410.382 767.547 410.83 768.283 411.022 768.955H406.286C406.574 768.043 407.31 767.547 408.654 767.547ZM433.365 765.499C431.125 765.499 430.405 766.027 429.813 766.827H429.701C429.189 766.075 428.277 765.499 426.661 765.499C425.061 765.499 424.261 766.027 423.685 766.827H423.573V765.579H421.157V774.475H423.573V770.155C423.573 768.939 423.717 767.595 425.813 767.595C428.021 767.595 427.989 769.291 427.989 769.995V774.475H430.405V770.107L430.421 770.155C430.421 768.939 430.565 767.595 432.661 767.595C434.869 767.595 434.837 769.291 434.837 769.995V774.475H437.269V769.995C437.253 768.683 437.157 765.499 433.365 765.499ZM448.368 770.555H448.464C448.592 769.323 448.432 767.435 446.704 766.251V766.267C445.952 765.739 444.928 765.419 443.664 765.419C440.64 765.419 438.848 767.019 438.848 769.947C438.848 772.939 440.592 774.475 443.664 774.475C446.608 774.475 448.176 773.291 448.416 771.355H446.064C445.84 771.947 445.12 772.347 443.664 772.347C442.096 772.347 441.376 771.755 441.2 770.555H448.368ZM443.664 767.547C445.392 767.547 445.84 768.283 446.032 768.955H441.296C441.584 768.043 442.32 767.547 443.664 767.547ZM462.324 765.499C460.084 765.499 459.364 766.027 458.772 766.827H458.66C458.148 766.075 457.236 765.499 455.62 765.499C454.02 765.499 453.22 766.027 452.644 766.827H452.532V765.579H450.116V774.475H452.532V770.155C452.532 768.939 452.676 767.595 454.772 767.595C456.98 767.595 456.948 769.291 456.948 769.995V774.475H459.364V770.107L459.38 770.155C459.38 768.939 459.524 767.595 461.62 767.595C463.828 767.595 463.796 769.291 463.796 769.995V774.475H466.228V769.995C466.212 768.683 466.116 765.499 462.324 765.499ZM473.741 765.499C472.077 765.499 471.053 766.027 470.445 766.827H470.317V762.923H467.885V774.475H470.317V773.227H470.429C471.037 774.011 472.061 774.475 473.741 774.475C477.517 774.475 477.933 771.195 477.933 769.995C477.933 768.683 477.533 765.499 473.741 765.499ZM473.037 772.395C470.925 772.395 470.493 771.355 470.493 769.995C470.493 768.779 470.925 767.595 473.037 767.595C475.357 767.595 475.613 769.291 475.613 769.995C475.613 770.635 475.357 772.395 473.037 772.395ZM488.846 770.555H488.942C489.07 769.323 488.91 767.435 487.182 766.251V766.267C486.43 765.739 485.406 765.419 484.142 765.419C481.118 765.419 479.326 767.019 479.326 769.947C479.326 772.939 481.07 774.475 484.142 774.475C487.086 774.475 488.654 773.291 488.894 771.355H486.542C486.318 771.947 485.598 772.347 484.142 772.347C482.574 772.347 481.854 771.755 481.678 770.555H488.846ZM484.142 767.547C485.87 767.547 486.318 768.283 486.51 768.955H481.774C482.062 768.043 482.798 767.547 484.142 767.547ZM495.654 765.499C494.102 765.499 493.558 765.963 493.046 766.827H492.902V765.499H490.47V774.475H492.902V770.459C492.902 769.243 493.43 767.835 495.238 767.835C496.006 767.835 496.63 767.963 496.854 768.027L497.238 765.739C496.822 765.643 496.294 765.499 495.654 765.499ZM502.709 769.035L502.501 769.019C500.933 768.779 500.661 768.555 500.661 768.155C500.661 767.883 500.949 767.387 502.309 767.387C503.717 767.387 504.325 767.771 504.325 768.475V768.555H506.805V768.475C506.805 767.099 506.021 765.451 502.309 765.451C498.853 765.451 498.133 766.939 498.133 768.187C498.133 769.979 499.733 770.555 502.309 770.891C502.437 770.907 502.565 770.923 502.693 770.939C503.669 771.051 504.533 771.179 504.533 771.851C504.533 772.443 503.605 772.571 502.629 772.571C501.013 772.571 500.437 772.219 500.437 771.451V771.371H497.941V771.547C497.925 772.011 497.925 772.763 498.549 773.387C499.269 774.107 500.661 774.475 502.693 774.475C505.445 774.475 507.045 774.043 507.045 771.819C507.045 769.691 504.741 769.339 502.709 769.035Z" fill="#33FF00"/>
<g style="mix-blend-mode:screen" filter="url(#filter11_f_374_1533)">
<path d="M560 747.975C560 763.715 507.617 776.475 443 776.475C378.383 776.475 326 763.715 326 747.975C326 732.234 378.383 719.475 443 719.475C507.617 719.475 560 732.234 560 747.975Z" fill="#177100" fill-opacity="0.5"/>
</g>
<path d="M1050.04 505.975V505.99H1049.34L1047.24 514.39H1047.03L1044.94 505.99H1044.39V505.975H1041.03V516.475H1043.31V508.66H1043.53L1045.53 516.475H1048.81L1050.81 508.66H1051.03V516.475H1053.31V505.975H1050.04ZM1059.42 507.91C1056.87 507.91 1054.74 509.305 1054.74 512.2C1054.74 515.11 1056.87 516.475 1059.42 516.475C1061.98 516.475 1064.11 515.155 1064.11 512.2C1064.11 509.275 1061.98 507.91 1059.42 507.91ZM1059.42 514.405C1057.99 514.405 1056.97 513.775 1056.97 512.2C1056.97 510.61 1057.99 509.995 1059.42 509.995C1060.86 509.995 1061.88 510.64 1061.88 512.2C1061.88 513.715 1060.86 514.405 1059.42 514.405ZM1070.47 508.06C1069.02 508.06 1068.51 508.495 1068.03 509.305H1067.89V508.06H1065.61V516.475H1067.89V512.71C1067.89 511.57 1068.39 510.25 1070.08 510.25C1070.8 510.25 1071.39 510.37 1071.6 510.43L1071.96 508.285C1071.57 508.195 1071.07 508.06 1070.47 508.06ZM1081.44 512.8H1081.53C1081.65 511.645 1081.5 509.875 1079.88 508.765V508.78C1079.17 508.285 1078.21 507.985 1077.03 507.985C1074.19 507.985 1072.51 509.485 1072.51 512.23C1072.51 515.035 1074.15 516.475 1077.03 516.475C1079.79 516.475 1081.26 515.365 1081.48 513.55H1079.28C1079.07 514.105 1078.39 514.48 1077.03 514.48C1075.56 514.48 1074.88 513.925 1074.72 512.8H1081.44ZM1077.03 509.98C1078.65 509.98 1079.07 510.67 1079.25 511.3H1074.81C1075.08 510.445 1075.77 509.98 1077.03 509.98ZM1091.02 516.475V508.12H1088.75V516.475H1091.02ZM1091.02 507.52V505.48H1088.75V507.52H1091.02ZM1097.78 508.06C1096.27 508.06 1095.5 508.555 1094.96 509.305H1094.86V508.06H1092.58V516.475H1094.86V512.425C1094.86 511.285 1095.14 510.025 1097.12 510.025C1099.3 510.025 1099.16 511.615 1099.16 512.275V516.475H1101.43V512.275C1101.43 511.045 1101.34 508.06 1097.78 508.06ZM1106.92 507.13C1107.79 507.13 1109.01 507.235 1109.01 507.235V505.3C1109.01 505.3 1107.55 505.09 1106.11 505.09C1104.4 505.09 1103.7 505.645 1103.56 508.06H1102.39V509.935H1103.53V516.475H1105.81V509.935H1108.86V508.06H1105.84C1105.9 507.31 1106.13 507.13 1106.92 507.13ZM1114.37 507.91C1111.82 507.91 1109.69 509.305 1109.69 512.2C1109.69 515.11 1111.82 516.475 1114.37 516.475C1116.94 516.475 1119.07 515.155 1119.07 512.2C1119.07 509.275 1116.94 507.91 1114.37 507.91ZM1114.37 514.405C1112.95 514.405 1111.93 513.775 1111.93 512.2C1111.93 510.61 1112.95 509.995 1114.37 509.995C1115.81 509.995 1116.83 510.64 1116.83 512.2C1116.83 513.715 1115.81 514.405 1114.37 514.405ZM1130.95 507.91C1128.4 507.91 1126.27 509.305 1126.27 512.2C1126.27 515.11 1128.4 516.475 1130.95 516.475C1133.51 516.475 1135.64 515.155 1135.64 512.2C1135.64 509.275 1133.51 507.91 1130.95 507.91ZM1130.95 514.405C1129.52 514.405 1128.5 513.775 1128.5 512.2C1128.5 510.61 1129.52 509.995 1130.95 509.995C1132.39 509.995 1133.41 510.64 1133.41 512.2C1133.41 513.715 1132.39 514.405 1130.95 514.405ZM1142.23 508.06C1140.71 508.06 1139.95 508.555 1139.41 509.305H1139.3V508.06H1137.02V516.475H1139.3V512.425C1139.3 511.285 1139.59 510.025 1141.57 510.025C1143.74 510.025 1143.61 511.615 1143.61 512.275V516.475H1145.87V512.275C1145.87 511.045 1145.78 508.06 1142.23 508.06ZM1162.22 509.485C1162.22 505.975 1159.41 505.975 1158.15 505.975C1157.54 505.975 1155.87 505.99 1155.32 505.99V505.975H1153.04V516.475H1155.32V512.98C1155.78 512.98 1157.34 512.98 1157.73 512.98C1157.87 512.98 1158.06 512.98 1158.29 512.98L1160 516.475H1162.47L1160.46 512.455C1161.41 511.96 1162.22 511.3 1162.22 509.485ZM1157.97 510.94C1157.78 510.94 1155.81 510.94 1155.32 510.94V508.03C1155.92 508.03 1157.6 508.03 1158.02 508.03C1158.72 508.03 1160.1 508.03 1160.1 509.485C1160.1 510.955 1158.63 510.94 1157.97 510.94ZM1166.33 516.475V508.12H1164.07V516.475H1166.33ZM1166.33 507.52V505.48H1164.07V507.52H1166.33ZM1167.9 508.075V510.16H1173.28L1167.9 514.33V516.475H1176.36V514.405H1170.99L1176.36 510.22V508.075H1167.9ZM1186.26 512.8H1186.35C1186.47 511.645 1186.32 509.875 1184.7 508.765V508.78C1183.99 508.285 1183.03 507.985 1181.85 507.985C1179.01 507.985 1177.33 509.485 1177.33 512.23C1177.33 515.035 1178.97 516.475 1181.85 516.475C1184.61 516.475 1186.08 515.365 1186.3 513.55H1184.1C1183.89 514.105 1183.21 514.48 1181.85 514.48C1180.38 514.48 1179.7 513.925 1179.54 512.8H1186.26ZM1181.85 509.98C1183.47 509.98 1183.89 510.67 1184.07 511.3H1179.63C1179.9 510.445 1180.59 509.98 1181.85 509.98ZM1191.91 511.375L1191.72 511.36C1190.25 511.135 1189.99 510.925 1189.99 510.55C1189.99 510.295 1190.26 509.83 1191.54 509.83C1192.86 509.83 1193.43 510.19 1193.43 510.85V510.925H1195.75V510.85C1195.75 509.56 1195.02 508.015 1191.54 508.015C1188.3 508.015 1187.62 509.41 1187.62 510.58C1187.62 512.26 1189.12 512.8 1191.54 513.115C1191.66 513.13 1191.78 513.145 1191.9 513.16C1192.81 513.265 1193.62 513.385 1193.62 514.015C1193.62 514.57 1192.75 514.69 1191.84 514.69C1190.32 514.69 1189.78 514.36 1189.78 513.64V513.565H1187.44V513.73C1187.43 514.165 1187.43 514.87 1188.01 515.455C1188.69 516.13 1189.99 516.475 1191.9 516.475C1194.48 516.475 1195.98 516.07 1195.98 513.985C1195.98 511.99 1193.82 511.66 1191.91 511.375ZM1200.22 506.725C1200.22 505.66 1199.62 505.105 1198.87 505.105C1198.14 505.105 1197.54 505.705 1197.54 506.455C1197.54 507.145 1197.9 507.7 1198.74 507.595C1198.69 507.985 1198.17 508.36 1198.17 508.36C1198.17 508.36 1198.21 508.54 1198.36 509.125C1199.94 508.57 1200.22 507.325 1200.22 506.725ZM1211.92 511.375L1211.72 511.36C1210.25 511.135 1210 510.925 1210 510.55C1210 510.295 1210.27 509.83 1211.54 509.83C1212.86 509.83 1213.43 510.19 1213.43 510.85V510.925H1215.76V510.85C1215.76 509.56 1215.02 508.015 1211.54 508.015C1208.3 508.015 1207.63 509.41 1207.63 510.58C1207.63 512.26 1209.13 512.8 1211.54 513.115C1211.66 513.13 1211.78 513.145 1211.9 513.16C1212.82 513.265 1213.63 513.385 1213.63 514.015C1213.63 514.57 1212.76 514.69 1211.84 514.69C1210.33 514.69 1209.79 514.36 1209.79 513.64V513.565H1207.45V513.73C1207.43 514.165 1207.43 514.87 1208.02 515.455C1208.69 516.13 1210 516.475 1211.9 516.475C1214.48 516.475 1215.98 516.07 1215.98 513.985C1215.98 511.99 1213.82 511.66 1211.92 511.375ZM1226.13 512.8H1226.22C1226.34 511.645 1226.19 509.875 1224.57 508.765V508.78C1223.87 508.285 1222.91 507.985 1221.72 507.985C1218.89 507.985 1217.21 509.485 1217.21 512.23C1217.21 515.035 1218.84 516.475 1221.72 516.475C1224.48 516.475 1225.95 515.365 1226.18 513.55H1223.97C1223.76 514.105 1223.09 514.48 1221.72 514.48C1220.25 514.48 1219.58 513.925 1219.41 512.8H1226.13ZM1221.72 509.98C1223.34 509.98 1223.76 510.67 1223.94 511.3H1219.5C1219.77 510.445 1220.46 509.98 1221.72 509.98ZM1229.93 516.475V505.69H1227.67V516.475H1229.93ZM1235.8 507.13C1236.67 507.13 1237.89 507.235 1237.89 507.235V505.3C1237.89 505.3 1236.43 505.09 1234.99 505.09C1233.28 505.09 1232.58 505.645 1232.44 508.06H1231.27V509.935H1232.41V516.475H1234.69V509.935H1237.74V508.06H1234.72C1234.78 507.31 1235.01 507.13 1235.8 507.13ZM1072.6 536.475V525.69H1070.33V536.475H1072.6ZM1082.92 532.8H1083.01C1083.13 531.645 1082.98 529.875 1081.36 528.765V528.78C1080.66 528.285 1079.7 527.985 1078.51 527.985C1075.68 527.985 1074 529.485 1074 532.23C1074 535.035 1075.63 536.475 1078.51 536.475C1081.27 536.475 1082.74 535.365 1082.97 533.55H1080.76C1080.55 534.105 1079.88 534.48 1078.51 534.48C1077.04 534.48 1076.37 533.925 1076.2 532.8H1082.92ZM1078.51 529.98C1080.13 529.98 1080.55 530.67 1080.73 531.3H1076.29C1076.56 530.445 1077.25 529.98 1078.51 529.98ZM1091.33 529.305C1090.76 528.555 1089.82 528.06 1088.26 528.06C1084.7 528.06 1084.33 531.045 1084.33 532.275C1084.33 533.4 1084.72 536.475 1088.24 536.475C1089.83 536.475 1090.79 536.04 1091.36 535.305H1091.44V536.475H1093.72V528.06H1091.44V529.305H1091.33ZM1088.92 534.525C1086.74 534.525 1086.5 532.875 1086.5 532.275C1086.5 531.615 1086.73 530.025 1088.92 530.025C1090.88 530.025 1091.29 531.135 1091.29 532.275C1091.29 533.55 1090.88 534.525 1088.92 534.525ZM1100.16 528.06C1098.71 528.06 1098.2 528.495 1097.72 529.305H1097.58V528.06H1095.3V536.475H1097.58V532.71C1097.58 531.57 1098.08 530.25 1099.77 530.25C1100.49 530.25 1101.08 530.37 1101.29 530.43L1101.65 528.285C1101.26 528.195 1100.76 528.06 1100.16 528.06ZM1108.09 528.06C1106.57 528.06 1105.81 528.555 1105.27 529.305H1105.16V528.06H1102.88V536.475H1105.16V532.425C1105.16 531.285 1105.45 530.025 1107.43 530.025C1109.6 530.025 1109.47 531.615 1109.47 532.275V536.475H1111.73V532.275C1111.73 531.045 1111.64 528.06 1108.09 528.06ZM1115.56 536.475V528.12H1113.3V536.475H1115.56ZM1115.56 527.52V525.48H1113.3V527.52H1115.56ZM1122.33 528.06C1120.81 528.06 1120.05 528.555 1119.51 529.305H1119.4V528.06H1117.12V536.475H1119.4V532.425C1119.4 531.285 1119.69 530.025 1121.67 530.025C1123.84 530.025 1123.71 531.615 1123.71 532.275V536.475H1125.97V532.275C1125.97 531.045 1125.88 528.06 1122.33 528.06ZM1134.39 528.15V529.395H1134.25C1133.68 528.645 1132.74 528.15 1131.18 528.15C1127.62 528.15 1127.25 531.135 1127.25 532.365C1127.25 533.505 1127.64 536.58 1131.16 536.58C1132.75 536.58 1133.71 536.13 1134.28 535.41H1134.39V536.01C1134.39 537.555 1133.7 538.56 1132.15 538.56C1130.37 538.56 1129.98 537.69 1129.92 537.24C1129.54 537.24 1128.25 537.24 1127.65 537.24C1127.65 538.485 1128.39 540.525 1132.17 540.525C1136.35 540.525 1136.67 537.405 1136.67 535.665V528.15H1134.39ZM1131.84 534.615C1129.66 534.615 1129.42 532.98 1129.42 532.365C1129.42 531.705 1129.65 530.115 1131.84 530.115C1133.8 530.115 1134.21 531.225 1134.21 532.365C1134.21 533.64 1133.8 534.615 1131.84 534.615ZM1151.77 531.105C1152.43 530.745 1152.79 530.115 1152.79 528.975C1152.79 526.86 1151.38 525.975 1149.21 525.975C1148.62 525.975 1148.2 525.975 1147.9 525.975H1143.87V536.475C1143.87 536.475 1149.15 536.475 1150.29 536.475C1151.89 536.475 1153.24 535.515 1153.24 533.49C1153.24 532.11 1152.72 531.435 1151.77 531.105ZM1148.55 528.06C1149.66 528.06 1150.56 528.12 1150.56 529.17C1150.56 530.22 1149.7 530.265 1148.65 530.265C1148.07 530.265 1146.99 530.265 1146.15 530.265V528.06C1146.46 528.06 1147.96 528.06 1148.55 528.06ZM1149.03 534.405C1148.26 534.405 1148.95 534.405 1148.05 534.405H1146.15V532.095C1146.76 532.095 1148.61 532.095 1149.33 532.095C1150.38 532.095 1151.01 532.26 1151.01 533.25C1151.01 534.33 1150.15 534.405 1149.03 534.405ZM1159.2 527.91C1156.65 527.91 1154.52 529.305 1154.52 532.2C1154.52 535.11 1156.65 536.475 1159.2 536.475C1161.76 536.475 1163.89 535.155 1163.89 532.2C1163.89 529.275 1161.76 527.91 1159.2 527.91ZM1159.2 534.405C1157.77 534.405 1156.75 533.775 1156.75 532.2C1156.75 530.61 1157.77 529.995 1159.2 529.995C1160.64 529.995 1161.66 530.64 1161.66 532.2C1161.66 533.715 1160.64 534.405 1159.2 534.405ZM1168.12 530.01H1170.85V528.09H1168.12V525.66H1165.83V528.09H1164.72V530.01H1165.83V533.385C1165.83 534.6 1165.83 536.475 1168.12 536.475C1170.4 536.475 1170.85 536.325 1170.85 536.325V534.105C1168.66 534.225 1168.12 534.39 1168.12 533.175V532.995V530.01ZM1185.03 529.305C1184.46 528.555 1183.51 528.06 1181.95 528.06C1178.4 528.06 1178.02 531.045 1178.02 532.275C1178.02 533.4 1178.41 536.475 1181.94 536.475C1183.53 536.475 1184.49 536.04 1185.06 535.305H1185.13V536.475H1187.41V528.06H1185.13V529.305H1185.03ZM1182.61 534.525C1180.44 534.525 1180.2 532.875 1180.2 532.275C1180.2 531.615 1180.42 530.025 1182.61 530.025C1184.58 530.025 1184.98 531.135 1184.98 532.275C1184.98 533.55 1184.58 534.525 1182.61 534.525ZM1194.2 528.06C1192.69 528.06 1191.92 528.555 1191.38 529.305H1191.28V528.06H1189V536.475H1191.28V532.425C1191.28 531.285 1191.56 530.025 1193.54 530.025C1195.72 530.025 1195.58 531.615 1195.58 532.275V536.475H1197.85V532.275C1197.85 531.045 1197.76 528.06 1194.2 528.06ZM1206.34 525.645V529.305H1206.2C1205.63 528.555 1204.69 528.06 1203.13 528.06C1199.57 528.06 1199.2 531.045 1199.2 532.275C1199.2 533.4 1199.59 536.475 1203.11 536.475C1204.7 536.475 1205.66 536.04 1206.23 535.305H1206.34V536.475H1208.62V525.645H1206.34ZM1203.79 534.525C1201.61 534.525 1201.37 532.875 1201.37 532.275C1201.37 531.615 1201.6 530.025 1203.79 530.025C1205.75 530.025 1206.16 531.135 1206.16 532.275C1206.16 533.55 1205.75 534.525 1203.79 534.525ZM1069.86 553.325C1069.69 553.91 1069.17 554.435 1067.73 554.435C1066.24 554.435 1065.46 553.76 1065.46 552.26C1065.46 550.835 1066.24 550.1 1067.73 550.1C1069.12 550.1 1069.68 550.58 1069.87 551.21H1072.11C1071.91 549.215 1070.14 548.045 1067.73 548.045C1065.25 548.045 1063.24 549.545 1063.24 552.26C1063.24 555.05 1065.25 556.475 1067.73 556.475C1070.14 556.475 1071.93 555.35 1072.11 553.325H1069.86ZM1077.89 547.91C1075.34 547.91 1073.21 549.305 1073.21 552.2C1073.21 555.11 1075.34 556.475 1077.89 556.475C1080.45 556.475 1082.58 555.155 1082.58 552.2C1082.58 549.275 1080.45 547.91 1077.89 547.91ZM1077.89 554.405C1076.46 554.405 1075.44 553.775 1075.44 552.2C1075.44 550.61 1076.46 549.995 1077.89 549.995C1079.33 549.995 1080.35 550.64 1080.35 552.2C1080.35 553.715 1079.33 554.405 1077.89 554.405ZM1095.32 548.06C1093.22 548.06 1092.55 548.555 1091.99 549.305H1091.89C1091.41 548.6 1090.55 548.06 1089.04 548.06C1087.54 548.06 1086.79 548.555 1086.25 549.305H1086.14V548.135H1083.88V556.475H1086.14V552.425C1086.14 551.285 1086.28 550.025 1088.24 550.025C1090.31 550.025 1090.28 551.615 1090.28 552.275V556.475H1092.55V552.38L1092.56 552.425C1092.56 551.285 1092.7 550.025 1094.66 550.025C1096.73 550.025 1096.7 551.615 1096.7 552.275V556.475H1098.98V552.275C1098.97 551.045 1098.88 548.06 1095.32 548.06ZM1111.79 548.06C1109.69 548.06 1109.01 548.555 1108.46 549.305H1108.35C1107.87 548.6 1107.02 548.06 1105.5 548.06C1104 548.06 1103.25 548.555 1102.71 549.305H1102.61V548.135H1100.34V556.475H1102.61V552.425C1102.61 551.285 1102.74 550.025 1104.71 550.025C1106.78 550.025 1106.75 551.615 1106.75 552.275V556.475H1109.01V552.38L1109.03 552.425C1109.03 551.285 1109.16 550.025 1111.13 550.025C1113.2 550.025 1113.17 551.615 1113.17 552.275V556.475H1115.45V552.275C1115.43 551.045 1115.34 548.06 1111.79 548.06ZM1123.31 548.06V552.125C1123.31 553.265 1123.01 554.525 1121.04 554.525C1118.85 554.525 1119 552.935 1119 552.275V548.06H1116.74V552.275C1116.74 553.505 1116.83 556.475 1120.38 556.475C1121.9 556.475 1122.66 555.995 1123.2 555.245H1123.31V556.475H1125.59V548.06H1123.31ZM1132.36 548.06C1130.85 548.06 1130.08 548.555 1129.54 549.305H1129.44V548.06H1127.16V556.475H1129.44V552.425C1129.44 551.285 1129.72 550.025 1131.7 550.025C1133.88 550.025 1133.74 551.615 1133.74 552.275V556.475H1136.01V552.275C1136.01 551.045 1135.92 548.06 1132.36 548.06ZM1139.84 556.475V548.12H1137.57V556.475H1139.84ZM1139.84 547.52V545.48H1137.57V547.52H1139.84ZM1144.66 550.01H1147.39V548.09H1144.66V545.66H1142.36V548.09H1141.25V550.01H1142.36V553.385C1142.36 554.6 1142.36 556.475 1144.66 556.475C1146.94 556.475 1147.39 556.325 1147.39 556.325V554.105C1145.2 554.225 1144.66 554.39 1144.66 553.175V552.995V550.01ZM1155.67 548.075L1153.24 554.405L1150.79 548.075H1148.39L1151.63 556.49H1152.44L1151.21 559.685H1153.63L1158.08 548.075H1155.67ZM1172.41 548.15V549.395H1172.28C1171.71 548.645 1170.76 548.15 1169.2 548.15C1165.65 548.15 1165.27 551.135 1165.27 552.365C1165.27 553.505 1165.66 556.58 1169.19 556.58C1170.78 556.58 1171.74 556.13 1172.31 555.41H1172.41V556.01C1172.41 557.555 1171.72 558.56 1170.18 558.56C1168.39 558.56 1168 557.69 1167.94 557.24C1167.57 557.24 1166.28 557.24 1165.68 557.24C1165.68 558.485 1166.41 560.525 1170.19 560.525C1174.38 560.525 1174.69 557.405 1174.69 555.665V548.15H1172.41ZM1169.86 554.615C1167.69 554.615 1167.45 552.98 1167.45 552.365C1167.45 551.705 1167.67 550.115 1169.86 550.115C1171.83 550.115 1172.23 551.225 1172.23 552.365C1172.23 553.64 1171.83 554.615 1169.86 554.615ZM1185.04 552.8H1185.13C1185.25 551.645 1185.1 549.875 1183.48 548.765V548.78C1182.77 548.285 1181.81 547.985 1180.63 547.985C1177.79 547.985 1176.11 549.485 1176.11 552.23C1176.11 555.035 1177.75 556.475 1180.63 556.475C1183.39 556.475 1184.86 555.365 1185.08 553.55H1182.88C1182.67 554.105 1181.99 554.48 1180.63 554.48C1179.16 554.48 1178.48 553.925 1178.32 552.8H1185.04ZM1180.63 549.98C1182.25 549.98 1182.67 550.67 1182.85 551.3H1178.41C1178.68 550.445 1179.37 549.98 1180.63 549.98ZM1189.32 550.01H1192.05V548.09H1189.32V545.66H1187.03V548.09H1185.92V550.01H1187.03V553.385C1187.03 554.6 1187.03 556.475 1189.32 556.475C1191.6 556.475 1192.05 556.325 1192.05 556.325V554.105C1189.86 554.225 1189.32 554.39 1189.32 553.175V552.995V550.01ZM1202.64 550.01H1205.37V548.09H1202.64V545.66H1200.35V548.09H1199.24V550.01H1200.35V553.385C1200.35 554.6 1200.35 556.475 1202.64 556.475C1204.92 556.475 1205.37 556.325 1205.37 556.325V554.105C1203.18 554.225 1202.64 554.39 1202.64 553.175V552.995V550.01ZM1211.01 547.91C1208.46 547.91 1206.33 549.305 1206.33 552.2C1206.33 555.11 1208.46 556.475 1211.01 556.475C1213.58 556.475 1215.71 555.155 1215.71 552.2C1215.71 549.275 1213.58 547.91 1211.01 547.91ZM1211.01 554.405C1209.59 554.405 1208.57 553.775 1208.57 552.2C1208.57 550.61 1209.59 549.995 1211.01 549.995C1212.45 549.995 1213.47 550.64 1213.47 552.2C1213.47 553.715 1212.45 554.405 1211.01 554.405ZM1113.13 568.06C1111.61 568.06 1110.85 568.555 1110.31 569.305H1110.2V568.06H1107.92V576.475H1110.2V572.425C1110.2 571.285 1110.49 570.025 1112.47 570.025C1114.64 570.025 1114.51 571.615 1114.51 572.275V576.475H1116.77V572.275C1116.77 571.045 1116.68 568.06 1113.13 568.06ZM1125.11 569.305C1124.54 568.555 1123.6 568.06 1122.04 568.06C1118.48 568.06 1118.11 571.045 1118.11 572.275C1118.11 573.4 1118.5 576.475 1122.02 576.475C1123.61 576.475 1124.57 576.04 1125.14 575.305H1125.22V576.475H1127.5V568.06H1125.22V569.305H1125.11ZM1122.7 574.525C1120.52 574.525 1120.28 572.875 1120.28 572.275C1120.28 571.615 1120.51 570.025 1122.7 570.025C1124.66 570.025 1125.07 571.135 1125.07 572.275C1125.07 573.55 1124.66 574.525 1122.7 574.525ZM1140.6 568.06C1138.5 568.06 1137.82 568.555 1137.27 569.305H1137.16C1136.68 568.6 1135.83 568.06 1134.31 568.06C1132.81 568.06 1132.06 568.555 1131.52 569.305H1131.42V568.135H1129.15V576.475H1131.42V572.425C1131.42 571.285 1131.55 570.025 1133.52 570.025C1135.59 570.025 1135.56 571.615 1135.56 572.275V576.475H1137.82V572.38L1137.84 572.425C1137.84 571.285 1137.97 570.025 1139.94 570.025C1142.01 570.025 1141.98 571.615 1141.98 572.275V576.475H1144.26V572.275C1144.24 571.045 1144.15 568.06 1140.6 568.06ZM1154.66 572.8H1154.75C1154.87 571.645 1154.72 569.875 1153.1 568.765V568.78C1152.4 568.285 1151.44 567.985 1150.25 567.985C1147.42 567.985 1145.74 569.485 1145.74 572.23C1145.74 575.035 1147.37 576.475 1150.25 576.475C1153.01 576.475 1154.48 575.365 1154.71 573.55H1152.5C1152.29 574.105 1151.62 574.48 1150.25 574.48C1148.78 574.48 1148.11 573.925 1147.94 572.8H1154.66ZM1150.25 569.98C1151.87 569.98 1152.29 570.67 1152.47 571.3H1148.03C1148.3 570.445 1148.99 569.98 1150.25 569.98ZM1164.24 576.475V568.12H1161.98V576.475H1164.24ZM1164.24 567.52V565.48H1161.98V567.52H1164.24ZM1169.06 570.01H1171.79V568.09H1169.06V565.66H1166.76V568.09H1165.65V570.01H1166.76V573.385C1166.76 574.6 1166.76 576.475 1169.06 576.475C1171.34 576.475 1171.79 576.325 1171.79 576.325V574.105C1169.6 574.225 1169.06 574.39 1169.06 573.175V572.995V570.01Z" fill="#33FF00"/>
<g style="mix-blend-mode:screen" filter="url(#filter12_f_374_1533)">
<path d="M1247 536.475C1247 554.7 1194.62 569.475 1130 569.475C1065.38 569.475 1013 554.7 1013 536.475C1013 518.249 1065.38 503.475 1130 503.475C1194.62 503.475 1247 518.249 1247 536.475Z" fill="#177100" fill-opacity="0.5"/>
</g>
<line x1="640.5" y1="1050.5" x2="553.5" y2="1050.5" stroke="#33FF00" stroke-opacity="0.5" stroke-width="19" stroke-linecap="round"/>
<line x1="9.5" y1="890.5" x2="9.5" y2="856.5" stroke="#33FF00" stroke-opacity="0.5" stroke-width="19" stroke-linecap="round"/>
<line y1="-0.5" x2="212" y2="-0.5" transform="matrix(-1 0 0 1 610 1060)" stroke="#33FF00" stroke-opacity="0.5"/>
<line y1="-0.5" x2="275" y2="-0.5" transform="matrix(-1 0 0 1 277 940)" stroke="#33FF00" stroke-opacity="0.5"/>
<line y1="-0.5" x2="53" y2="-0.5" transform="matrix(4.37113e-08 1 1 -4.37113e-08 2 887)" stroke="#33FF00" stroke-opacity="0.5"/>
<line y1="-0.5" x2="169.706" y2="-0.5" transform="matrix(-0.707107 -0.707107 -0.707107 0.707107 397 1060)" stroke="#33FF00" stroke-opacity="0.5"/>
<line x1="876.5" y1="1050.5" x2="787.5" y2="1050.5" stroke="#33FF00" stroke-opacity="0.5" stroke-width="19" stroke-linecap="round"/>
<line x1="1420.5" y1="890.5" x2="1420.5" y2="856.5" stroke="#33FF00" stroke-opacity="0.5" stroke-width="19" stroke-linecap="round"/>
<line x1="820" y1="1059.5" x2="1032" y2="1059.5" stroke="#33FF00" stroke-opacity="0.5"/>
<line x1="1153" y1="939.5" x2="1428" y2="939.5" stroke="#33FF00" stroke-opacity="0.5"/>
<line x1="1428.5" y1="887" x2="1428.5" y2="940" stroke="#33FF00" stroke-opacity="0.5"/>
<line x1="1032.65" y1="1059.65" x2="1152.65" y2="939.646" stroke="#33FF00" stroke-opacity="0.5"/>
<line x1="610" y1="141.5" x2="398" y2="141.5" stroke="#33FF00" stroke-opacity="0.5"/>
<line x1="277" y1="261.5" x2="2" y2="261.5" stroke="#33FF00" stroke-opacity="0.5"/>
<line x1="1.5" y1="314" x2="1.5" y2="261" stroke="#33FF00" stroke-opacity="0.5"/>
<line x1="9.5" y1="344.5" x2="9.5" y2="310.5" stroke="#33FF00" stroke-opacity="0.5" stroke-width="19" stroke-linecap="round"/>
<line x1="640.5" y1="150.5" x2="553.5" y2="150.5" stroke="#33FF00" stroke-opacity="0.5" stroke-width="19" stroke-linecap="round"/>
<line x1="397.354" y1="141.354" x2="277.354" y2="261.354" stroke="#33FF00" stroke-opacity="0.5"/>
<line x1="876.5" y1="150.5" x2="787.5" y2="150.5" stroke="#33FF00" stroke-opacity="0.5" stroke-width="19" stroke-linecap="round"/>
<line x1="1420.5" y1="346.5" x2="1420.5" y2="312.5" stroke="#33FF00" stroke-opacity="0.5" stroke-width="19" stroke-linecap="round"/>
<line x1="818" y1="142.5" x2="1032" y2="142.5" stroke="#33FF00" stroke-opacity="0.5"/>
<line y1="-0.5" x2="275" y2="-0.5" transform="matrix(1 0 0 -1 1153 263)" stroke="#33FF00" stroke-opacity="0.5"/>
<line y1="-0.5" x2="53" y2="-0.5" transform="matrix(-4.37113e-08 -1 -1 4.37113e-08 1428 316)" stroke="#33FF00" stroke-opacity="0.5"/>
<line y1="-0.5" x2="169.706" y2="-0.5" transform="matrix(0.707107 0.707107 0.707107 -0.707107 1033 143)" stroke="#33FF00" stroke-opacity="0.5"/>
<defs>
<filter id="filter0_d_374_1533" x="306.52" y="0.989258" width="816.359" height="808.971" filterUnits="userSpaceOnUse" color-interpolation-filters="sRGB">
<feFlood flood-opacity="0" result="BackgroundImageFix"/>
<feColorMatrix in="SourceAlpha" type="matrix" values="0 0 0 0 0 0 0 0 0 0 0 0 0 0 0 0 0 0 127 0" result="hardAlpha"/>
<feOffset/>
<feGaussianBlur stdDeviation="125"/>
<feComposite in2="hardAlpha" operator="out"/>
<feColorMatrix type="matrix" values="0 0 0 0 0.2 0 0 0 0 1 0 0 0 0 0 0 0 0 0.3 0"/>
<feBlend mode="normal" in2="BackgroundImageFix" result="effect1_dropShadow_374_1533"/>
<feBlend mode="normal" in="SourceGraphic" in2="effect1_dropShadow_374_1533" result="shape"/>
</filter>
<filter id="filter1_d_374_1533" x="577.027" y="392.675" width="274.867" height="37.9199" filterUnits="userSpaceOnUse" color-interpolation-filters="sRGB">
<feFlood flood-opacity="0" result="BackgroundImageFix"/>
<feColorMatrix in="SourceAlpha" type="matrix" values="0 0 0 0 0 0 0 0 0 0 0 0 0 0 0 0 0 0 127 0" result="hardAlpha"/>
<feOffset dy="4"/>
<feGaussianBlur stdDeviation="2"/>
<feComposite in2="hardAlpha" operator="out"/>
<feColorMatrix type="matrix" values="0 0 0 0 0 0 0 0 0 0 0 0 0 0 0 0 0 0 0.25 0"/>
<feBlend mode="normal" in2="BackgroundImageFix" result="effect1_dropShadow_374_1533"/>
<feBlend mode="normal" in="SourceGraphic" in2="effect1_dropShadow_374_1533" result="shape"/>
</filter>
<filter id="filter2_f_374_1533" x="483" y="299.475" width="464" height="215" filterUnits="userSpaceOnUse" color-interpolation-filters="sRGB">
<feFlood flood-opacity="0" result="BackgroundImageFix"/>
<feBlend mode="normal" in="SourceGraphic" in2="BackgroundImageFix" result="shape"/>
<feGaussianBlur stdDeviation="39.5" result="effect1_foregroundBlur_374_1533"/>
</filter>
<filter id="filter3_d_374_1533" x="551.602" y="703.979" width="329.844" height="253.48" filterUnits="userSpaceOnUse" color-interpolation-filters="sRGB">
<feFlood flood-opacity="0" result="BackgroundImageFix"/>
<feColorMatrix in="SourceAlpha" type="matrix" values="0 0 0 0 0 0 0 0 0 0 0 0 0 0 0 0 0 0 127 0" result="hardAlpha"/>
<feOffset dy="5"/>
<feComposite in2="hardAlpha" operator="out"/>
<feColorMatrix type="matrix" values="0 0 0 0 0.2 0 0 0 0 1 0 0 0 0 0 0 0 0 1 0"/>
<feBlend mode="normal" in2="BackgroundImageFix" result="effect1_dropShadow_374_1533"/>
<feBlend mode="normal" in="SourceGraphic" in2="effect1_dropShadow_374_1533" result="shape"/>
</filter>
<filter id="filter4_d_374_1533" x="273" y="603.462" width="318.23" height="314.706" filterUnits="userSpaceOnUse" color-interpolation-filters="sRGB">
<feFlood flood-opacity="0" result="BackgroundImageFix"/>
<feColorMatrix in="SourceAlpha" type="matrix" values="0 0 0 0 0 0 0 0 0 0 0 0 0 0 0 0 0 0 127 0" result="hardAlpha"/>
<feOffset dy="5"/>
<feComposite in2="hardAlpha" operator="out"/>
<feColorMatrix type="matrix" values="0 0 0 0 0.2 0 0 0 0 1 0 0 0 0 0 0 0 0 1 0"/>
<feBlend mode="normal" in2="BackgroundImageFix" result="effect1_dropShadow_374_1533"/>
<feBlend mode="normal" in="SourceGraphic" in2="effect1_dropShadow_374_1533" result="shape"/>
</filter>
<filter id="filter5_d_374_1533" x="843.477" y="596.644" width="318.23" height="314.729" filterUnits="userSpaceOnUse" color-interpolation-filters="sRGB">
<feFlood flood-opacity="0" result="BackgroundImageFix"/>
<feColorMatrix in="SourceAlpha" type="matrix" values="0 0 0 0 0 0 0 0 0 0 0 0 0 0 0 0 0 0 127 0" result="hardAlpha"/>
<feOffset dy="5"/>
<feComposite in2="hardAlpha" operator="out"/>
<feColorMatrix type="matrix" values="0 0 0 0 0.2 0 0 0 0 1 0 0 0 0 0 0 0 0 1 0"/>
<feBlend mode="normal" in2="BackgroundImageFix" result="effect1_dropShadow_374_1533"/>
<feBlend mode="normal" in="SourceGraphic" in2="effect1_dropShadow_374_1533" result="shape"/>
</filter>
<filter id="filter6_d_374_1533" x="991.363" y="429.348" width="276.637" height="256.42" filterUnits="userSpaceOnUse" color-interpolation-filters="sRGB">
<feFlood flood-opacity="0" result="BackgroundImageFix"/>
<feColorMatrix in="SourceAlpha" type="matrix" values="0 0 0 0 0 0 0 0 0 0 0 0 0 0 0 0 0 0 127 0" result="hardAlpha"/>
<feOffset dy="5"/>
<feComposite in2="hardAlpha" operator="out"/>
<feColorMatrix type="matrix" values="0 0 0 0 0.2 0 0 0 0 1 0 0 0 0 0 0 0 0 1 0"/>
<feBlend mode="normal" in2="BackgroundImageFix" result="effect1_dropShadow_374_1533"/>
<feBlend mode="normal" in="SourceGraphic" in2="effect1_dropShadow_374_1533" result="shape"/>
</filter>
<filter id="filter7_d_374_1533" x="165" y="430.274" width="276.637" height="256.42" filterUnits="userSpaceOnUse" color-interpolation-filters="sRGB">
<feFlood flood-opacity="0" result="BackgroundImageFix"/>
<feColorMatrix in="SourceAlpha" type="matrix" values="0 0 0 0 0 0 0 0 0 0 0 0 0 0 0 0 0 0 127 0" result="hardAlpha"/>
<feOffset dy="5"/>
<feComposite in2="hardAlpha" operator="out"/>
<feColorMatrix type="matrix" values="0 0 0 0 0.2 0 0 0 0 1 0 0 0 0 0 0 0 0 1 0"/>
<feBlend mode="normal" in2="BackgroundImageFix" result="effect1_dropShadow_374_1533"/>
<feBlend mode="normal" in="SourceGraphic" in2="effect1_dropShadow_374_1533" result="shape"/>
</filter>
<filter id="filter8_f_374_1533" x="799" y="615.475" width="392" height="215" filterUnits="userSpaceOnUse" color-interpolation-filters="sRGB">
<feFlood flood-opacity="0" result="BackgroundImageFix"/>
<feBlend mode="normal" in="SourceGraphic" in2="BackgroundImageFix" result="shape"/>
<feGaussianBlur stdDeviation="39.5" result="effect1_foregroundBlur_374_1533"/>
</filter>
<filter id="filter9_f_374_1533" x="113" y="436.475" width="392" height="215" filterUnits="userSpaceOnUse" color-interpolation-filters="sRGB">
<feFlood flood-opacity="0" result="BackgroundImageFix"/>
<feBlend mode="normal" in="SourceGraphic" in2="BackgroundImageFix" result="shape"/>
<feGaussianBlur stdDeviation="39.5" result="effect1_foregroundBlur_374_1533"/>
</filter>
<filter id="filter10_f_374_1533" x="520" y="719.475" width="392" height="215" filterUnits="userSpaceOnUse" color-interpolation-filters="sRGB">
<feFlood flood-opacity="0" result="BackgroundImageFix"/>
<feBlend mode="normal" in="SourceGraphic" in2="BackgroundImageFix" result="shape"/>
<feGaussianBlur stdDeviation="39.5" result="effect1_foregroundBlur_374_1533"/>
</filter>
<filter id="filter11_f_374_1533" x="247" y="640.475" width="392" height="215" filterUnits="userSpaceOnUse" color-interpolation-filters="sRGB">
<feFlood flood-opacity="0" result="BackgroundImageFix"/>
<feBlend mode="normal" in="SourceGraphic" in2="BackgroundImageFix" result="shape"/>
<feGaussianBlur stdDeviation="39.5" result="effect1_foregroundBlur_374_1533"/>
</filter>
<filter id="filter12_f_374_1533" x="934" y="424.475" width="392" height="224" filterUnits="userSpaceOnUse" color-interpolation-filters="sRGB">
<feFlood flood-opacity="0" result="BackgroundImageFix"/>
<feBlend mode="normal" in="SourceGraphic" in2="BackgroundImageFix" result="shape"/>
<feGaussianBlur stdDeviation="39.5" result="effect1_foregroundBlur_374_1533"/>
</filter>
</defs>
</svg>
