<svg width="20" height="20" viewBox="0 0 20 20" fill="none" xmlns="http://www.w3.org/2000/svg">
<path d="M15.0333 11.2923C14.6833 11.634 14.4833 12.1256 14.5333 12.6506C14.6083 13.5506 15.4333 14.209 16.3333 14.209H17.9167V15.2006C17.9167 16.9256 16.5083 18.334 14.7833 18.334H5.21667C3.49167 18.334 2.08334 16.9256 2.08334 15.2006V9.59233C2.08334 7.86733 3.49167 6.45898 5.21667 6.45898H14.7833C16.5083 6.45898 17.9167 7.86733 17.9167 9.59233V10.7923H16.2333C15.7667 10.7923 15.3417 10.9756 15.0333 11.2923Z" stroke="#101310" stroke-width="1.5" stroke-linecap="round" stroke-linejoin="round"/>
<path d="M2.08334 10.3421V6.53379C2.08334 5.54212 2.69167 4.65875 3.61667 4.30875L10.2333 1.80875C11.2667 1.41708 12.375 2.18377 12.375 3.29211V6.45876" stroke="#101310" stroke-width="1.5" stroke-linecap="round" stroke-linejoin="round"/>
<path d="M18.799 11.641V13.3577C18.799 13.816 18.4323 14.191 17.9657 14.2077H16.3323C15.4323 14.2077 14.6073 13.5493 14.5323 12.6493C14.4823 12.1243 14.6823 11.6327 15.0323 11.291C15.3407 10.9743 15.7657 10.791 16.2323 10.791H17.9657C18.4323 10.8077 18.799 11.1826 18.799 11.641Z" stroke="#101310" stroke-width="1.5" stroke-linecap="round" stroke-linejoin="round"/>
<path d="M5.83334 10H11.6667" stroke="#101310" stroke-width="1.5" stroke-linecap="round" stroke-linejoin="round"/>
</svg>
