<svg width="26" height="26" viewBox="0 0 26 26" fill="none" xmlns="http://www.w3.org/2000/svg">
<path d="M2.16666 2.16602H4.05166C5.22166 2.16602 6.14249 3.17352 6.04499 4.33268L5.14582 15.1227C4.99416 16.8885 6.39165 18.4052 8.16832 18.4052H19.7058C21.2658 18.4052 22.6308 17.1269 22.75 15.5777L23.335 7.45269C23.465 5.65435 22.1 4.19184 20.2908 4.19184H6.305" stroke="#33FF00" stroke-width="1.5" stroke-miterlimit="10" stroke-linecap="round" stroke-linejoin="round"/>
<path d="M17.6042 23.8333C18.3521 23.8333 18.9583 23.2271 18.9583 22.4792C18.9583 21.7313 18.3521 21.125 17.6042 21.125C16.8563 21.125 16.25 21.7313 16.25 22.4792C16.25 23.2271 16.8563 23.8333 17.6042 23.8333Z" stroke="#33FF00" stroke-width="1.5" stroke-miterlimit="10" stroke-linecap="round" stroke-linejoin="round"/>
<path d="M8.93751 23.8333C9.6854 23.8333 10.2917 23.2271 10.2917 22.4792C10.2917 21.7313 9.6854 21.125 8.93751 21.125C8.18962 21.125 7.58334 21.7313 7.58334 22.4792C7.58334 23.2271 8.18962 23.8333 8.93751 23.8333Z" stroke="#33FF00" stroke-width="1.5" stroke-miterlimit="10" stroke-linecap="round" stroke-linejoin="round"/>
<path d="M9.75 8.66602H22.75" stroke="#33FF00" stroke-width="1.5" stroke-miterlimit="10" stroke-linecap="round" stroke-linejoin="round"/>
</svg>
