<svg width="28" height="20" viewBox="0 0 28 20" fill="none" xmlns="http://www.w3.org/2000/svg">
<g clip-path="url(#clip0_270_6442)">
<path d="M27.8992 4.74923C27.4888 1.94654 25.2702 0.00596117 22.4468 0.00596117C17.0432 -0.000765292 11.6391 -0.00805229 6.23548 0.0126876C5.62338 0.0194141 4.9838 0.110221 4.41317 0.304728C2.12506 1.09116 0.734362 3.09397 0.727075 5.50708C0.720348 8.50428 0.720348 11.4953 0.733801 14.4925C0.733801 14.9028 0.761828 15.3272 0.858801 15.7302C1.45017 18.2963 3.57797 19.9936 6.2069 19.9936C11.6312 20.0004 17.0494 20.0004 22.4737 19.9936C25.0606 19.9936 27.1609 18.3316 27.7871 15.8277C27.8498 15.5844 27.8913 15.3406 27.9468 15.1046V4.89553C27.9261 4.84677 27.9048 4.798 27.898 4.74923H27.8992ZM26.828 14.59C26.814 16.6489 25.4373 18.3384 23.4272 18.784C23.1004 18.8535 22.7596 18.8815 22.4255 18.8815C17.0354 18.8882 11.6391 18.8882 6.24221 18.8815C4.09311 18.8815 2.38963 17.5256 1.93728 15.46C1.8745 15.1887 1.84703 14.8967 1.84703 14.6186C1.8403 11.5446 1.82629 8.47065 1.84703 5.39666C1.85376 3.36583 3.22427 1.6758 5.20633 1.23074C5.56116 1.14722 5.94344 1.11919 6.31228 1.11919C8.98268 1.11246 11.6604 1.11919 14.3381 1.11919C17.0158 1.11919 19.7416 1.11246 22.4401 1.11919C24.5819 1.11919 26.2932 2.48915 26.7383 4.55473C26.8011 4.82603 26.8285 5.11807 26.8285 5.3961C26.8353 8.46336 26.8425 11.5301 26.8285 14.59H26.828Z" fill="#33FF00"/>
<path d="M19.1148 9.72259C16.6462 8.26911 14.1703 6.82236 11.6944 5.37617C11.131 5.04209 10.7207 5.27864 10.7207 5.93951V14.6262C10.7207 15.2657 11.1377 15.5096 11.6871 15.1962C14.1697 13.7428 16.6456 12.2893 19.1288 10.8358C19.6781 10.5157 19.6714 10.0432 19.1148 9.72315V9.72259ZM11.8541 13.805V6.74613C13.8709 7.9283 15.853 9.09703 17.8771 10.2792C15.853 11.4614 13.8709 12.6301 11.8541 13.805Z" fill="#33FF00"/>
</g>
<defs>
<clipPath id="clip0_270_6442">
<rect width="27.2253" height="20" fill="white" transform="translate(0.722656)"/>
</clipPath>
</defs>
</svg>
