<svg width="25" height="20" viewBox="0 0 25 20" fill="none" xmlns="http://www.w3.org/2000/svg">
<g clip-path="url(#clip0_270_6440)">
<path d="M24.1962 2.31969C24.0186 2.2226 23.8587 2.274 23.6867 2.35967C23.4292 2.49104 23.1659 2.60013 22.9026 2.71436C22.8968 2.69151 22.8854 2.67438 22.874 2.65153C22.9425 2.56586 23.0116 2.48533 23.0802 2.39394C23.412 1.93588 23.7324 1.46696 23.7439 0.866114C23.7553 0.494294 23.412 0.288109 23.0802 0.454314C23.0231 0.47716 22.9717 0.51714 22.9197 0.551409C22.2046 1.03803 21.4147 1.32418 20.5506 1.40414C20.3844 1.42127 20.2587 1.387 20.1273 1.27277C19.4008 0.620519 18.5538 0.230994 17.592 0.0653598C15.0509 -0.357863 12.4762 1.31847 11.8411 3.81382C11.6634 4.50606 11.612 5.20458 11.6983 5.93679C11.6126 5.93679 11.5378 5.93679 11.4578 5.93108C10.6165 5.8911 9.79235 5.7249 8.9916 5.45017C7.42379 4.91786 6.0159 4.07655 4.75137 3.00679C4.07627 2.44021 3.45829 1.79937 2.8226 1.18139C2.54216 0.912377 2.20461 0.900954 2.02698 1.20995C1.26564 2.5373 1.07145 3.93948 1.59805 5.39877C1.7871 5.93679 2.07325 6.44569 2.30742 6.95516C2.26173 6.9266 2.18177 6.88091 2.10123 6.83521C1.69514 6.59476 1.33989 6.80095 1.33989 7.27557C1.33989 7.47033 1.35702 7.67024 1.37416 7.865C1.49981 9.31858 2.1178 10.5089 3.26238 11.413C3.3195 11.4587 3.3709 11.5101 3.44001 11.5672C3.02821 11.6871 2.91341 11.899 3.03392 12.2709C3.59479 13.9592 4.71653 15.0689 6.42713 15.5784C6.48996 15.5955 6.54707 15.6241 6.63903 15.6584C5.90681 16.2192 5.10549 16.5511 4.24705 16.7458C3.18242 16.9863 2.10123 17.0377 1.01947 16.8949C0.704769 16.8549 0.435757 16.8778 0.292969 17.2153V17.4501C0.533423 17.6562 0.756744 17.8904 1.01947 18.068C2.4445 19.0236 4.03515 19.5502 5.72347 19.8135C7.33698 20.0654 8.95105 20.0654 10.5531 19.7906C11.8633 19.573 13.0999 19.1212 14.2959 18.549C17.1459 17.1868 19.2575 15.0809 20.5848 12.2143C21.5175 10.1999 21.9813 8.07119 22.0213 5.85112C22.0213 5.69063 22.0727 5.5764 22.1875 5.46217C22.6684 4.98697 23.1544 4.51805 23.6011 4.0143C23.8986 3.67675 24.1505 3.28779 24.3853 2.90398C24.5166 2.68637 24.4081 2.42878 24.1962 2.32026V2.31969ZM22.0218 4.3627C21.8099 4.56889 21.5986 4.78021 21.3696 4.97498C21.1691 5.1526 21.1006 5.35822 21.1063 5.62152C21.1463 7.97352 20.6539 10.205 19.5842 12.3057C18.3825 14.6577 16.5685 16.3974 14.2165 17.582C13.0319 18.1828 11.7845 18.6638 10.4737 18.8751C8.04178 19.2583 5.6498 19.1212 3.32635 18.24C3.0859 18.1486 2.85687 18.0338 2.56501 17.9081C2.99394 17.8624 3.36062 17.8339 3.72673 17.7768C5.30596 17.542 6.72527 16.9697 7.85273 15.7966C8.02464 15.6189 8.2017 15.4419 8.08176 15.1615C7.97324 14.8924 7.7385 14.8867 7.49804 14.8639C6.05588 14.7091 4.94557 14.0454 4.2362 12.7581C4.21335 12.7124 4.1905 12.6667 4.18479 12.6495C4.60802 12.581 5.0261 12.5239 5.43219 12.4319C5.71833 12.3634 5.83256 12.18 5.82114 11.9453C5.80401 11.6763 5.62638 11.5735 5.39792 11.5044C3.91578 11.052 2.86829 10.1479 2.43364 8.62006C2.37653 8.43101 2.34797 8.23111 2.3137 8.07061C2.74264 8.12773 3.1493 8.20198 3.55538 8.24253C3.79013 8.26538 3.99574 8.18542 4.0877 7.93925C4.17908 7.69308 4.05914 7.52174 3.89293 7.35553C3.04021 6.51423 2.42793 5.53585 2.25602 4.32272C2.15892 3.61906 2.25602 2.93197 2.60499 2.19975C2.71922 2.34882 2.81689 2.50874 2.94825 2.64068C4.2242 3.89379 5.64351 4.9527 7.25759 5.73632C8.79684 6.48624 10.4166 6.90375 12.1444 6.84093C12.579 6.8295 12.7738 6.60618 12.6824 6.17154C12.5567 5.5764 12.5453 4.98697 12.6424 4.39183C12.9571 2.54358 14.6169 1.05002 16.4822 0.935223C17.7125 0.860973 18.7714 1.2385 19.6641 2.07981C19.8532 2.26315 20.0588 2.36596 20.3164 2.32598C20.8658 2.22888 21.4096 2.13121 21.959 2.03412C22.0447 2.01698 22.1309 1.98271 22.2166 1.95416C22.2337 1.97129 22.2452 1.98843 22.2566 2.00556C21.9362 2.30884 21.6272 2.61212 21.2953 2.89827C20.9464 3.20726 20.8487 3.38489 20.9635 3.61906C21.1297 3.95661 21.433 3.88807 21.7071 3.85381C21.999 3.82525 22.2909 3.76813 22.6113 3.76242C22.4108 3.9629 22.2223 4.16851 22.0218 4.36327V4.3627Z" fill="#33FF00"/>
</g>
<defs>
<clipPath id="clip0_270_6440">
<rect width="24.1494" height="20" fill="white" transform="translate(0.292969)"/>
</clipPath>
</defs>
</svg>
